<svg version="1.1" xmlns="http://www.w3.org/2000/svg" viewBox="0 0 2048 2048" width="1024" height="1024">
<defs>
	<linearGradient id="Gradient1" gradientUnits="userSpaceOnUse" x1="1188.98" y1="1254.28" x2="1120.88" y2="1017.6">
		<stop class="stop0" offset="0" stop-opacity="1" stop-color="rgb(182,78,48)"/>
		<stop class="stop1" offset="1" stop-opacity="1" stop-color="rgb(200,118,67)"/>
	</linearGradient>
	<linearGradient id="Gradient2" gradientUnits="userSpaceOnUse" x1="1140.68" y1="1104.84" x2="1294.8" y2="1469.63">
		<stop class="stop0" offset="0" stop-opacity="1" stop-color="rgb(221,144,39)"/>
		<stop class="stop1" offset="1" stop-opacity="1" stop-color="rgb(185,80,54)"/>
	</linearGradient>
</defs>
<path transform="translate(0,0)" fill="rgb(0,0,0)" d="M 1395.7 330.438 C 1422.67 329.267 1450.48 328.774 1477.45 329.988 C 1579.59 334.587 1750.96 358.643 1836.75 414.947 C 1861.04 430.884 1885.15 451.518 1891.14 481.394 C 1897.05 510.874 1884.88 538.847 1863.06 558.685 C 1852.55 568.239 1840.77 575.799 1831.3 586.599 C 1820.86 598.522 1813.88 613.142 1808.32 627.873 C 1778.82 706.115 1765.46 790.375 1745.72 871.359 C 1730.13 935.294 1708.73 996.866 1685.53 1058.38 C 1653.3 1143.87 1618.16 1228.39 1567.68 1305 C 1493.03 1417.69 1395.99 1513.81 1282.59 1587.39 C 1254.51 1605.39 1228.37 1619.14 1199.17 1634.84 C 1142.63 1665.23 1090.27 1688.83 1027.21 1701.79 C 970.707 1713.4 931.546 1712.85 874.907 1709.38 C 737.122 1700.94 621.313 1648.89 507.27 1573.66 C 457.806 1541.03 408.67 1503.43 367.733 1459.41 C 279.791 1364.87 211.449 1218.86 184.993 1093.77 C 160.689 978.861 177.377 860.596 226.819 755.006 C 240.985 724.753 254.34 698.979 272.995 671.044 C 326.142 591.946 409.274 533.651 497.409 499.645 C 504.66 481.313 509.257 469.552 526.249 457.848 C 542.665 446.541 560.459 441.981 580.019 439.337 C 606.835 435.711 627.33 417.995 653.706 413.003 C 681.676 406.917 701.507 420.9 728.767 415.795 C 744.056 412.931 761.052 416.268 774.155 425.229 C 794.076 438.853 801.056 457.96 805.586 481.045 C 836.193 506.778 868.151 495.9 875.694 548.011 C 881.49 553.553 887.194 555.85 892.844 560.203 C 912.4 575.275 946.118 595.922 950.511 621.754 C 951.64 628.706 950.926 635.832 948.439 642.421 C 945.378 650.636 938.672 658.057 934.446 665.845 C 928.945 675.984 925.391 686.662 918.56 696.105 C 882.612 745.8 839.021 694.996 816.355 700.892 C 812.597 701.87 811.373 703.815 809.52 706.925 C 809.421 718.211 828.089 719.891 836.319 719.334 C 904.467 714.726 891.087 781.987 848.792 805.981 C 814.942 825.184 795.985 794.206 765.012 784.543 C 753.533 827.457 735.769 860.535 685.186 861.013 C 648.719 861.358 601.72 836.803 586.858 802.66 C 577.094 780.23 579.705 753.205 558.656 734.956 C 554.618 731.208 546.135 722.541 540.423 723.84 C 520.46 728.382 493.239 751.565 480.52 765.602 C 436.496 814.186 417.314 887.31 420.962 952.009 C 424.617 1016.84 459.386 1090.43 508.035 1134.2 C 568.893 1188.95 656.364 1205.02 735.935 1200.48 C 854.995 1193.69 977.48 1115.65 1054.09 1026.81 C 1120.99 950.966 1159.58 855.623 1184.49 758.834 C 1198.52 704.311 1210.74 653.087 1203.47 596.646 C 1200.94 577 1200.1 557.949 1195.5 538.227 C 1193.15 523.43 1182.62 515.516 1172.39 505.117 C 1141.72 473.935 1136.58 422.415 1168.53 389.658 C 1224.01 332.769 1321.5 334.871 1395.7 330.438 z"/>
<path transform="translate(0,0)" fill="rgb(187,85,51)" d="M 515.514 529.046 C 517.958 529.558 519.731 531.004 521.376 532.912 C 534.677 548.331 520.377 567.636 524.371 585.155 C 527.661 599.59 539.39 611.722 538.282 626.94 C 536.631 649.631 528.505 668.493 526.799 691.797 C 511.473 699.229 493.407 707.14 480.14 718.011 C 422.277 765.423 395.011 824.847 385.9 897.492 C 373.729 994.538 401.586 1069.13 460.465 1144.07 C 451.796 1156.06 437.351 1177.01 428.238 1187.77 C 398.791 1222.53 352.964 1266.46 313.562 1289.17 C 310.108 1291.1 307.467 1292.23 303.819 1293.81 C 296.86 1282.76 288.759 1265.72 283.369 1253.6 C 268.859 1220.97 253.948 1186.86 243.138 1152.81 C 196.575 1006.11 204.668 880.15 274.891 742.859 C 319.843 654.976 370.478 604.029 458.654 556.383 C 473.749 548.226 500.249 534.044 515.514 529.046 z"/>
<path transform="translate(0,0)" fill="rgb(0,0,0)" d="M 253.843 904.361 C 258.097 904.849 258.948 905.196 261.271 907.968 C 263.61 920.976 259.721 937.687 259.243 951.051 C 256.463 1028.94 279.647 1103.5 303.395 1176.69 C 306.233 1185.44 313.478 1205.31 300.991 1208.34 C 286.054 1196.06 274.154 1160.3 268.568 1140.85 C 249.609 1074.82 235.893 1005.84 245.575 936.975 C 246.837 928.002 249.591 912.194 253.843 904.361 z"/>
<path transform="translate(0,0)" fill="rgb(0,0,0)" d="M 478.413 666.96 C 482.723 666.655 482.528 666.677 486.694 667.938 C 489.386 670.566 488.713 669.027 488.956 672.631 C 485.343 681.243 469.255 689.443 462.118 696.437 C 436.664 721.378 415.846 748.919 399.117 780.433 C 390.834 796.036 384.645 818.274 372.926 831.431 L 370.008 832.099 C 365.687 830.835 366.834 831.796 364.116 828.77 C 361.385 819.473 367.847 804.008 370.952 794.951 C 386.75 748.859 433.801 687.951 478.413 666.96 z"/>
<path transform="translate(0,0)" fill="rgb(0,0,0)" d="M 349.482 895.754 C 350.578 895.721 351.689 895.679 352.784 895.732 C 354.58 895.817 356.767 896.479 357.884 897.989 C 360.855 902.005 362.381 960.516 361.383 968.476 C 360.699 973.935 359.989 975.6 355.772 978.935 C 337.337 969.583 338.615 911.458 349.482 895.754 z"/>
<path transform="translate(0,0)" fill="rgb(187,85,51)" d="M 1416.58 365.499 C 1468.93 364.667 1513.01 367.127 1565.2 375.12 C 1656.51 389.103 1760.71 401.386 1835.44 460.371 C 1854.17 475.152 1864.91 502.123 1845.18 520.179 C 1820.08 545.909 1813.63 548.566 1780.04 556.178 C 1727.39 568.104 1678.88 570.986 1625.42 572.801 C 1509.62 573.63 1401.65 562.765 1290.59 527.893 C 1278.13 523.978 1232.71 508.849 1224.42 501.118 C 1213.33 490.76 1185.94 465.094 1184.91 448.097 C 1184.17 434.654 1189.05 421.508 1198.39 411.81 C 1218.76 390.323 1270.47 374.824 1299.47 371.999 C 1324.48 369.563 1353.4 369.682 1378.95 366.812 C 1389.78 365.596 1405.38 365.781 1416.58 365.499 z"/>
<path transform="translate(0,0)" fill="rgb(137,51,27)" d="M 1715.66 443.279 C 1718.93 436.206 1725.31 433.457 1732.79 435.536 C 1757.17 442.313 1785.97 448.713 1801.03 471.025 C 1813.23 488.555 1801.8 506.654 1784.75 515.23 C 1734.94 540.271 1672.71 538.433 1618.37 537.632 C 1550.45 536.631 1481.39 532.09 1414.62 520.892 C 1390.85 516.785 1367.33 511.358 1344.16 504.634 C 1318.28 497.061 1244.7 471.647 1232.85 448.479 C 1230.04 442.984 1229.15 436.66 1231.34 430.789 C 1234.68 421.847 1243.3 416.655 1251.71 413.165 C 1299.12 393.476 1369.67 394.024 1420.35 396.615 C 1431.15 397.167 1447.12 396.576 1456.95 401.156 C 1457.56 401.439 1458.15 401.759 1458.75 402.06 C 1474.32 405.141 1520.18 406.34 1529.9 409.293 L 1530.1 409.21 C 1534.01 404.761 1537.62 404.366 1543.41 403.99 C 1564.84 402.595 1651.51 413.374 1665.61 425.961 C 1666.51 426.767 1667.32 427.646 1668.13 428.547 L 1667.88 430.738 C 1671.71 433.202 1707.41 441.395 1715 443.604 L 1715.66 443.279 z"/>
<path transform="translate(0,0)" fill="rgb(0,0,0)" d="M 1715.66 443.279 C 1718.93 436.206 1725.31 433.457 1732.79 435.536 C 1757.17 442.313 1785.97 448.713 1801.03 471.025 C 1813.23 488.555 1801.8 506.654 1784.75 515.23 C 1734.94 540.271 1672.71 538.433 1618.37 537.632 C 1550.45 536.631 1481.39 532.09 1414.62 520.892 C 1390.85 516.785 1367.33 511.358 1344.16 504.634 C 1318.28 497.061 1244.7 471.647 1232.85 448.479 C 1230.04 442.984 1229.15 436.66 1231.34 430.789 C 1234.68 421.847 1243.3 416.655 1251.71 413.165 C 1299.12 393.476 1369.67 394.024 1420.35 396.615 C 1431.15 397.167 1447.12 396.576 1456.95 401.156 C 1457.56 401.439 1458.15 401.759 1458.75 402.06 C 1458.15 404.513 1458.11 407.271 1455.98 408.018 C 1446.15 411.454 1432.2 410.492 1422.39 411.399 C 1380.9 415.236 1290.66 414.963 1256.64 436.97 C 1264 445.271 1275.83 452.909 1287.12 453.913 C 1297.06 454.061 1307 446.941 1316.59 445.14 C 1358.56 437.254 1402.72 434.298 1445.25 438.344 C 1451.56 438.944 1464.47 439.715 1464.03 447.856 C 1460.75 451.593 1454.53 452.783 1449.79 452.892 C 1404.25 453.93 1354.89 453.884 1310.47 465.099 C 1399.82 496.933 1491 504.088 1585.27 507.675 C 1646.39 510 1713.72 514.75 1771.82 491.698 C 1775.18 490.321 1777.42 488.801 1778.56 485.552 C 1774.91 469.168 1734.87 460.092 1722.26 451.706 C 1719.85 450.107 1717.5 445.386 1715.66 443.279 z"/>
<path transform="translate(0,0)" fill="rgb(0,0,0)" d="M 1530.1 409.21 C 1534.01 404.761 1537.62 404.366 1543.41 403.99 C 1564.84 402.595 1651.51 413.374 1665.61 425.961 C 1666.51 426.767 1667.32 427.646 1668.13 428.547 C 1667.11 430.392 1665.57 433.26 1663.41 433.812 C 1660.04 434.675 1537.08 416.934 1534 415.085 C 1531.49 413.578 1531 411.808 1530.1 409.21 z"/>
<path transform="translate(0,0)" fill="rgb(187,85,51)" d="M 1170.36 926.449 C 1305.84 1015.39 1488.18 1059.74 1648.91 1032.76 C 1624.98 1104.2 1584.74 1196.31 1545.88 1259.51 C 1529.71 1287.12 1502.17 1323.87 1482.53 1348.93 C 1466.1 1319.2 1443.63 1290.49 1423.01 1263.55 C 1362.58 1184.59 1292.64 1113.63 1222.34 1043.57 C 1197.36 1018.68 1172.21 995.175 1145.48 972.205 C 1154.45 957.334 1162.76 942.066 1170.36 926.449 z"/>
<path transform="translate(0,0)" fill="rgb(0,0,0)" d="M 1588.26 1064.7 C 1591.15 1064.9 1592.86 1065.15 1594.99 1067.41 C 1597.69 1070.26 1596.88 1076.71 1596.12 1080.29 C 1585.96 1127.87 1526.1 1250.25 1488.55 1276.64 C 1483.85 1276.05 1482.55 1275.51 1480.45 1271.38 C 1480.42 1268.44 1480.65 1266.54 1482.08 1263.9 C 1499.77 1230.96 1521.54 1200.16 1539.29 1167.19 C 1551.78 1143.97 1562.51 1118.99 1572.78 1094.69 C 1577.01 1084.68 1580.75 1072.61 1588.26 1064.7 z"/>
<path transform="translate(0,0)" fill="rgb(0,0,0)" d="M 1519.53 1093.67 C 1524.14 1093.96 1524.04 1093.93 1527.23 1096.38 C 1535.29 1112.36 1496.05 1179.47 1482.3 1190.94 C 1479.28 1191.13 1479.28 1190.98 1476.26 1190.61 C 1474.8 1189.51 1472.85 1188.36 1473.03 1186.26 C 1474.27 1172.29 1513.79 1100.8 1519.53 1093.67 z"/>
<path transform="translate(0,0)" fill="rgb(211,130,43)" d="M 526.222 508.325 C 546.729 467.286 569.13 474.586 607.505 463.798 C 625.438 458.756 643.426 441.25 663.159 440.606 C 675.368 440.006 691.668 446.985 703.867 449.069 C 710.677 450.232 726.59 446.367 731.499 447.518 C 733.556 451.158 734.182 453.301 734.054 457.436 C 733.725 467.999 749.244 481.471 744.461 492.503 C 742.417 493.376 740.852 493.702 738.404 492.534 C 721.299 484.371 707.406 461.723 685.297 469.8 C 682.43 470.847 681.664 472.277 680.502 474.588 C 683.004 483.575 695.619 481.223 702.843 485.205 C 718.211 493.675 727.912 513.808 748.46 508.336 C 751.415 507.55 754.717 499.851 757.579 500.084 C 765.902 500.761 771.519 501.449 779.776 499.52 C 799.088 514.407 817.933 521.07 838.341 532.965 C 847.139 538.093 845.228 556.998 853.356 565.74 C 867.157 580.582 920.026 606.627 921.414 627.208 L 919.816 628.369 C 909.568 626.653 901.276 616.362 890.469 619.18 C 875.712 632.056 903.6 647.318 910.293 653.554 C 901.715 680.47 889.052 699.787 859.029 684.704 C 841.006 675.649 822.94 668.48 803.02 677.756 C 786.163 685.605 779.366 707.385 788.286 723.841 C 798.937 742.332 819.484 744.469 838.561 745.509 C 847.279 745.984 858.892 748.32 854.097 760.034 C 847.363 775.503 838.438 780.358 822.232 781.852 L 821.133 781.204 C 793.498 764.59 777.796 744.886 741.315 756.91 C 739.005 756.048 733.841 754.7 733.381 752.197 C 728.736 726.926 733.764 717.351 700.575 715.869 C 704.266 692.73 722.748 676.345 707.759 656.117 C 698.243 643.275 685.389 633.768 687.319 615.865 C 688.36 606.198 700.938 589.91 697.353 582.023 C 691.775 583.1 685.811 590.63 682.436 595.881 C 673.839 609.259 671.989 618.347 673.885 633.295 C 676.073 650.548 697.419 663.578 696.005 674.03 C 694.485 685.263 669.318 720.145 686.664 731.374 C 693.301 735.672 705.02 733.528 713.12 733.977 C 712.745 743.414 715.533 781.309 721.106 788.337 L 723.074 788.395 C 727.433 783.681 728.285 776.766 736.683 779.418 C 737.981 785.188 729.825 801.182 726.618 806.689 C 716.96 823.274 704.444 827.658 686.581 829.287 C 700.59 805.378 697.699 781.524 700.833 752.626 C 675.181 769.959 692.085 799.77 668.381 825.747 C 656.11 823.019 652.568 821.517 641.577 815.358 C 673.382 793.584 664.616 762.143 667.926 730.26 C 668.654 723.243 675.08 712.829 672.011 705.642 C 664.828 703.038 656.189 721.008 654.372 726.571 C 648.921 743.254 652.691 799.156 626.518 798.793 C 614.845 794.281 612.108 764.449 610.544 753.21 C 634.886 733.373 635.831 720.419 645.911 691.861 C 648.51 684.499 658.157 676.905 657.811 668.106 L 656.322 667.128 C 647.451 669.147 638.024 678.921 633.565 686.591 C 621.922 706.616 620.372 721.287 604.437 739.716 C 596.181 726.219 594.079 722.955 582.668 712.288 C 620.815 694.67 619.52 681.137 638.756 646.864 C 641.672 641.668 655.102 635.179 658.806 629.612 C 657.351 621.124 644.566 623.802 639.389 626.747 C 603.548 647.132 615.59 694.489 565.429 699.595 C 559.013 692.21 556.444 687.886 557.097 677.797 C 558.206 660.647 566.157 649.673 576.019 636.553 C 583.358 626.79 587.318 612.616 597.786 604.734 C 606.453 597.694 619.696 592.054 629.967 587.19 C 624.037 583.429 622.916 583.235 616.243 581.403 C 588.251 589.275 580.448 595.161 566.163 620.327 C 562.553 609.294 558.144 598.538 552.971 588.146 C 562.232 570.475 576.974 556.767 591.601 543.689 C 593.266 542.2 592.634 541.206 592.154 539.523 C 581.03 530.968 561.603 552.142 553.944 559.425 L 553.442 538.954 C 562.944 524.015 565.58 522.604 578.126 511.703 C 588.498 502.692 615.475 495.288 618.089 490.114 C 614.711 480.488 591.528 488.277 584.623 490.666 C 566.303 497.003 556.585 507.949 544.981 522.843 C 538.265 516.103 534.901 512.881 526.222 508.325 z"/>
<path transform="translate(0,0)" fill="rgb(0,0,0)" d="M 633.668 576.86 C 625.327 561.725 621.121 548.315 626.47 530.782 C 629.737 519.774 637.472 510.643 647.792 505.61 C 670.848 494.186 691.6 503.361 709.726 517.959 C 713.118 514.258 712.456 513.689 716.326 513.01 C 718.937 514.843 720.072 516.509 720.66 519.704 C 721.67 525.186 720.79 532.43 717.443 537.028 C 715.976 539.044 713.909 540.583 711.338 540.755 C 701.864 541.387 676.615 507.233 654.253 528.699 C 649.653 533.115 646.901 541.303 646.805 547.569 C 646.701 554.372 650.115 560.318 654.78 565.046 C 660.953 571.304 669.234 575.023 672.583 583.6 C 670.522 598.629 651.746 591.239 643.471 586.907 C 639.366 583.451 637.194 580.838 633.668 576.86 z"/>
<path transform="translate(0,0)" fill="rgb(137,51,27)" d="M 633.668 576.86 C 637.194 580.838 639.366 583.451 643.471 586.907 L 629.967 587.19 C 624.037 583.429 622.916 583.235 616.243 581.403 C 622.156 579.693 627.687 578.31 633.668 576.86 z"/>
<path transform="translate(0,0)" fill="rgb(0,0,0)" d="M 812.243 554.175 C 818.411 553.608 824.266 552.989 828.776 557.819 C 831.542 564.662 829.175 568.332 826.655 575.381 C 836.071 588.882 863.068 594.841 865.499 608.421 C 864.328 611.687 865.366 610.458 862.12 612.094 C 851.826 612.067 832.515 599.929 824.482 593.465 L 822.03 590.251 L 820.427 590.138 L 817.589 593.427 C 807.387 605.433 785.125 590.685 775.2 583.477 C 768.857 585.888 760.928 589.066 756.681 581.629 C 757.312 569.125 800.989 556.913 812.243 554.175 z"/>
<path transform="translate(0,0)" fill="rgb(0,0,0)" d="M 803.001 645.246 C 805.114 645.066 807.237 645.038 809.353 645.16 C 812.503 645.363 816.549 646.169 818.737 648.593 C 816.979 658.062 795.097 659.457 786.123 668.03 C 775.858 677.835 774.978 680.864 768.35 692.859 C 765.725 695.977 764.814 696.884 760.974 696.734 C 754.031 689.983 760.119 676.837 764.405 669.963 C 773.612 655.197 786.792 649.108 803.001 645.246 z"/>
<path transform="translate(0,0)" fill="rgb(0,0,0)" d="M 668.802 536.06 C 684.527 534.947 702.037 544.681 692.621 562.101 C 688.754 562.451 687.956 562.345 685.184 559.621 C 679.446 553.984 671.072 549.135 666.576 542.33 C 666.469 538.538 666.42 539.811 668.802 536.06 z"/>
<path transform="translate(0,0)" fill="rgb(187,85,51)" d="M 906.518 1193.02 C 908.201 1195.04 917.563 1219.15 920.024 1224.43 C 961.798 1314.02 997.925 1405.26 1034.58 1496.91 L 1092.64 1638.65 C 1068.72 1648.5 1048.56 1653.75 1023.45 1659.78 C 976.464 1669.25 954.717 1670.21 906.433 1669.66 C 904.822 1650.92 900.745 1627.84 898.386 1608.64 C 891.315 1549.92 883.867 1491.25 876.043 1432.62 C 870.715 1386.19 865.079 1339.79 859.136 1293.43 C 856.156 1269.92 853.168 1241.53 848.604 1218.68 C 867.415 1209.62 886.502 1202.99 906.518 1193.02 z"/>
<path transform="translate(0,0)" fill="rgb(0,0,0)" d="M 1044.7 1610.39 C 1049.91 1609.7 1053.81 1610.25 1056.36 1615.05 C 1053.34 1639.66 965.644 1643.7 945.748 1643.07 C 940.472 1642.6 936.938 1641.99 934.447 1637.01 C 934.403 1632.92 933.9 1634.77 936.051 1631.26 C 942.862 1626.56 981.898 1623.17 993.025 1621.05 C 1008.81 1618.04 1029.23 1612.07 1044.7 1610.39 z"/>
<path transform="translate(0,0)" fill="url(#Gradient2)" d="M 1120.69 1011.46 C 1162.13 1055.26 1204.08 1099.69 1242.71 1145.86 C 1253.28 1158.49 1272.12 1179.01 1280.81 1192.75 C 1285.44 1197.55 1291.6 1206.46 1295.87 1212.03 L 1322.83 1246.77 C 1362.04 1297.83 1399.97 1349.85 1436.59 1402.8 C 1429.87 1409.99 1424.62 1415.33 1417.36 1421.94 C 1409.63 1409.85 1396.21 1378.6 1383.82 1371.42 C 1379.48 1368.91 1365.34 1382.49 1361.1 1385.97 L 1326.26 1414.35 C 1298.65 1436.6 1258.56 1464.76 1227.79 1482.26 C 1221.88 1471.45 1216.35 1458.27 1210.38 1447 C 1203 1433.07 1194.27 1418.37 1187.6 1404.31 C 1202.73 1393.4 1216.73 1384.88 1232.3 1373.07 C 1238.95 1383.59 1258.23 1420.5 1271.68 1413.11 C 1293.67 1401.02 1341.48 1366.72 1352.95 1344.46 C 1352.01 1341.79 1350.93 1339.18 1349.71 1336.62 C 1338.67 1313.89 1319.02 1289.23 1304.9 1267.95 C 1295.63 1253.98 1273.72 1214.08 1259.33 1209.15 C 1252.24 1210.66 1217.66 1243.05 1207.65 1249.59 C 1170.29 1274.03 1127.55 1307.02 1088.03 1327.19 L 1086.61 1327.9 C 1073.25 1305.19 1061.36 1278.76 1047.97 1255.8 C 1036.05 1235.37 1020.91 1215.01 1009.57 1194.38 C 1038.49 1172.87 1069.62 1153.8 1097.48 1130.58 C 1105.42 1123.96 1113.29 1117.07 1121.44 1110.75 C 1132.63 1123.27 1144.13 1142.93 1156.33 1152.8 C 1159.9 1158.26 1166.8 1159.55 1172.82 1161.19 C 1178.35 1158.28 1183.67 1155.03 1189.05 1151.83 C 1191.15 1145.39 1190.95 1139.25 1194.42 1133.82 C 1188.38 1124.05 1167.78 1101.07 1160.15 1092.54 C 1148.07 1079.04 1135.02 1064.05 1122.62 1050.97 C 1096.75 1076.94 1070.53 1100.16 1040.69 1121.51 C 1034.14 1126.2 1024.67 1136.25 1016.45 1133.43 L 1016.31 1131.2 C 1020.3 1123.17 1032.51 1113.44 1039.6 1107.12 C 1039.41 1104.26 1039.53 1105.13 1038.59 1102.39 C 1045.53 1094.5 1058.05 1083.81 1065.86 1075.43 C 1076.35 1064.18 1086.02 1052.63 1096.33 1041.5 C 1101.97 1034.34 1115 1016.73 1120.69 1011.46 z"/>
<path transform="translate(0,0)" fill="rgb(0,0,0)" d="M 1120.69 1011.46 C 1162.13 1055.26 1204.08 1099.69 1242.71 1145.86 C 1253.28 1158.49 1272.12 1179.01 1280.81 1192.75 C 1267.93 1187.51 1264.56 1184.47 1250.03 1183.25 C 1225.12 1194.97 1187.95 1223.26 1166.43 1239.9 C 1146.99 1254.94 1129.62 1266.71 1109.21 1280.44 C 1107 1282.28 1102.81 1285.17 1100.05 1282.79 C 1091.41 1275.38 1046.88 1208.53 1051.93 1200.69 C 1058.55 1190.4 1097.29 1161.07 1110.38 1155.74 C 1122.77 1164.15 1139.03 1189.95 1147.97 1203 C 1171.34 1186.12 1186.39 1171.77 1211.54 1155.29 C 1207.15 1148.98 1199.44 1140.02 1194.42 1133.82 C 1188.38 1124.05 1167.78 1101.07 1160.15 1092.54 C 1148.07 1079.04 1135.02 1064.05 1122.62 1050.97 C 1096.75 1076.94 1070.53 1100.16 1040.69 1121.51 C 1034.14 1126.2 1024.67 1136.25 1016.45 1133.43 L 1016.31 1131.2 C 1020.3 1123.17 1032.51 1113.44 1039.6 1107.12 C 1039.41 1104.26 1039.53 1105.13 1038.59 1102.39 C 1045.53 1094.5 1058.05 1083.81 1065.86 1075.43 C 1076.35 1064.18 1086.02 1052.63 1096.33 1041.5 C 1101.97 1034.34 1115 1016.73 1120.69 1011.46 z"/>
<path transform="translate(0,0)" fill="url(#Gradient1)" d="M 1120.69 1011.46 C 1162.13 1055.26 1204.08 1099.69 1242.71 1145.86 C 1253.28 1158.49 1272.12 1179.01 1280.81 1192.75 C 1267.93 1187.51 1264.56 1184.47 1250.03 1183.25 C 1225.12 1194.97 1187.95 1223.26 1166.43 1239.9 C 1146.99 1254.94 1129.62 1266.71 1109.21 1280.44 C 1102.26 1259.22 1081.1 1226.13 1068.82 1207.23 C 1081.45 1197.42 1094.44 1187.88 1107.16 1178.1 C 1116.96 1189.39 1128.91 1212.51 1139.57 1220.38 C 1141.91 1222.11 1143.92 1223.06 1146.9 1222.54 C 1159.78 1220.28 1218.63 1173.99 1226.96 1162.28 C 1228.57 1160.01 1231.01 1156.26 1230.32 1153.35 C 1226.74 1138.2 1144.03 1047.82 1129.58 1038.25 C 1124.92 1035.16 1121.22 1036.3 1116.09 1037.44 C 1107.74 1036.8 1104.62 1040.39 1096.33 1041.5 C 1101.97 1034.34 1115 1016.73 1120.69 1011.46 z"/>
<path transform="translate(0,0)" fill="rgb(187,85,51)" d="M 1096.33 1041.5 C 1104.62 1040.39 1107.74 1036.8 1116.09 1037.44 C 1090.82 1063.11 1067.2 1083.97 1039.6 1107.12 C 1039.41 1104.26 1039.53 1105.13 1038.59 1102.39 C 1045.53 1094.5 1058.05 1083.81 1065.86 1075.43 C 1076.35 1064.18 1086.02 1052.63 1096.33 1041.5 z"/>
<path transform="translate(0,0)" fill="rgb(187,85,51)" d="M 532.854 1202.04 C 568.407 1218.53 583.683 1224.87 622.134 1233.6 C 619.401 1254.53 618.668 1280.34 616.365 1302.19 C 606.359 1393.69 598.583 1485.42 593.045 1577.3 C 570.276 1564.93 543.658 1547.63 522.016 1533.13 C 481.144 1505.27 420.703 1460.29 389.985 1420.94 C 400.302 1408.31 411.217 1392.94 420.926 1379.69 C 462.399 1323.2 499.803 1263.83 532.854 1202.04 z"/>
<path transform="translate(0,0)" fill="rgb(0,0,0)" d="M 432.312 1402.36 C 446.567 1403.91 473.286 1431.66 486.089 1441.71 C 514.539 1464.04 544.674 1482.76 573.881 1503.95 C 581.491 1509.47 584.847 1513.39 580.116 1521.99 C 551.458 1527.28 446.453 1439.6 430.413 1411 C 429.101 1408.66 431.243 1404.78 432.312 1402.36 z"/>
<path transform="translate(0,0)" fill="rgb(0,0,0)" d="M 483.893 1385.76 C 492.9 1386.44 504.847 1395.21 511.433 1401.18 C 518.99 1408.04 547.101 1424.09 549.729 1431.27 C 549.367 1435.12 547.885 1436.3 545.443 1439.34 C 540.007 1439.61 534.403 1438.83 529.65 1436.19 C 516.774 1429.04 481.442 1407.75 479.369 1392.55 C 480.086 1388.76 481.044 1388.34 483.893 1385.76 z"/>
<path transform="translate(0,0)" fill="rgb(187,85,51)" d="M 1039.6 1107.12 C 1032.51 1113.44 1020.3 1123.17 1016.31 1131.2 L 1016.45 1133.43 C 1024.67 1136.25 1034.14 1126.2 1040.69 1121.51 C 1070.53 1100.16 1096.75 1076.94 1122.62 1050.97 C 1135.02 1064.05 1148.07 1079.04 1160.15 1092.54 C 1167.78 1101.07 1188.38 1124.05 1194.42 1133.82 C 1190.95 1139.25 1191.15 1145.39 1189.05 1151.83 C 1183.67 1155.03 1178.35 1158.28 1172.82 1161.19 C 1166.8 1159.55 1159.9 1158.26 1156.33 1152.8 C 1181.59 1150 1155.47 1125.41 1150.29 1117.69 C 1120.66 1073.56 1112.15 1097.65 1079.96 1121.42 C 1076.26 1124.15 1071.17 1128.22 1067.26 1131.12 C 1056.4 1139.28 1045.4 1147.27 1034.28 1155.09 C 1020.72 1164.43 998.049 1177.64 989.75 1191.35 C 996.982 1209.39 1012.74 1230.54 1022.78 1248.02 C 1036.5 1271.91 1049.12 1295.55 1061.38 1320.28 C 1064.86 1327.3 1071.5 1343.09 1077.89 1346.58 C 1081.34 1348.46 1087.96 1346.67 1091.24 1344.95 C 1102.07 1339.23 1115.51 1331.4 1125.79 1324.76 C 1166.93 1298.17 1224.29 1263.76 1258.71 1229.51 C 1276.56 1254.66 1293.45 1281.22 1310.19 1307.15 L 1308.67 1309.15 C 1310.6 1314.49 1316.01 1325.03 1312.85 1329.74 C 1306.62 1339.06 1293.87 1348.22 1282.48 1346.41 C 1282.54 1345.19 1282.85 1340.34 1282.19 1339.08 C 1273.77 1323.37 1259.77 1303.12 1246.08 1292 C 1237.97 1285.4 1216.06 1307.57 1208.78 1313.06 C 1192.72 1325.09 1176.31 1336.66 1159.59 1347.76 C 1146.32 1356.42 1132.7 1364.65 1119.87 1373.95 C 1113 1378.92 1106.21 1384.38 1110.42 1393.69 C 1120.15 1415.16 1132.81 1435.23 1143.39 1456.27 C 1152.42 1473.15 1186.61 1557.58 1198.33 1562.53 C 1209.41 1561.65 1223.04 1553.49 1232.91 1548.08 C 1277.54 1523.55 1319.45 1494.35 1357.94 1460.98 C 1360.28 1464.75 1362.27 1468.8 1364.32 1472.75 C 1338.61 1495.46 1315.93 1514.8 1287.43 1534.13 C 1245.51 1562.55 1201.51 1585.9 1156.79 1609.35 C 1145.72 1580.18 1134.82 1549.53 1122.82 1520.89 C 1099.45 1465.12 1072.15 1410.76 1046.09 1356.21 C 1027.24 1316.76 1008.69 1277.15 988.982 1238.11 C 977.085 1214.42 963.765 1191.36 952.085 1167.66 C 987.078 1144.53 1007.23 1130.4 1038.59 1102.39 C 1039.53 1105.13 1039.41 1104.26 1039.6 1107.12 z"/>
<path transform="translate(0,0)" fill="rgb(211,130,43)" d="M 1248.17 633.767 C 1301.22 657.204 1351.39 662.604 1405.29 677.323 C 1403.77 712.11 1392.82 753.43 1384.78 787.901 C 1368.39 783.786 1328.12 772.897 1311.69 776.933 C 1305.75 778.392 1294.51 829.783 1298.06 837.051 C 1309.34 847.878 1347.27 856.433 1363.31 860.497 C 1374.89 863.433 1425.96 877.64 1434.76 871.264 C 1442.15 865.902 1465.96 710.464 1470.8 690.426 C 1494.77 696.516 1519.26 697.953 1543.48 701.244 C 1588.56 707.366 1630.8 708.386 1676.25 707.955 C 1673.04 720.292 1671.38 740.356 1669.98 753.481 L 1662.68 821.656 C 1652.14 823.129 1583.26 825.502 1579.88 829.75 C 1574.1 837.015 1572.07 871.213 1572.78 881.326 C 1572.94 883.704 1573.3 887.277 1575.38 888.792 C 1584.02 895.08 1649.45 891.914 1662.91 890.691 C 1674.46 889.663 1685.94 887.999 1697.31 885.706 C 1695.59 893.128 1693.45 900.413 1691.36 907.739 C 1690.4 910.969 1690.49 910.91 1688.63 913.69 C 1675.55 919.777 1560.8 921.167 1537.62 920.871 C 1543.57 887.076 1547.13 830.662 1549.94 794.988 C 1573.72 795.155 1610.13 795.665 1634.35 792.803 C 1636.07 792.579 1639.95 789.488 1640.14 787.847 C 1641.24 779.003 1648.94 741.68 1637.65 739.083 C 1609.31 732.557 1577.61 733.971 1548.58 730.356 C 1541.02 729.726 1494.93 724.373 1491.75 729.51 C 1484.53 741.174 1479.2 782.575 1476.5 796.7 C 1469.49 833.076 1462.12 869.38 1454.39 905.608 C 1432.21 899.321 1402.15 895.152 1379.06 889.89 C 1338.36 880.613 1301.05 871.009 1262.93 853.998 C 1266.44 843.467 1268.83 830.072 1271.44 819.093 C 1277.82 792.303 1282.51 767.911 1285.54 740.557 C 1307.97 744.76 1331.36 752.149 1353.84 753.074 C 1365.16 753.54 1368.76 718.199 1366.9 710.984 C 1364.32 707.466 1359.78 704.461 1355.66 703.181 C 1327.93 694.563 1299.21 689.352 1271.72 679.605 C 1263.06 676.533 1254.59 674.282 1246.56 669.57 C 1247.55 656.823 1248.06 646.539 1248.17 633.767 z"/>
<path transform="translate(0,0)" fill="rgb(187,85,51)" d="M 1244.75 578.618 C 1277.85 595.686 1321.85 608.365 1358.22 617.826 C 1486.45 651.192 1625.18 662.528 1756.84 644.616 C 1745.95 680.33 1736.29 716.411 1727.9 752.793 C 1718.99 792.61 1712.52 828.524 1702.09 868.248 C 1685.45 870.763 1664.55 873.951 1647.85 874.698 C 1629.08 875.538 1607.86 875.162 1588.92 875.168 C 1589.81 864.153 1590.88 853.154 1592.12 842.174 C 1607.5 841.881 1665.64 842.73 1672.48 834.025 C 1681.75 822.216 1686.54 752.855 1688.32 736.169 C 1698.02 679.247 1694.7 691.477 1642.58 690.798 C 1599.06 690.231 1554.5 685.938 1511.05 681.256 C 1499.74 680.038 1475.82 674.172 1463.46 676.532 C 1451.36 683.134 1445.36 745.42 1443.12 757.134 C 1436.58 791.33 1430.69 823.929 1424.46 857.296 C 1409.17 852.937 1388.46 849 1372.49 845.147 C 1352.56 840.256 1332.82 834.599 1313.31 828.191 C 1316.27 816.139 1318.81 803.515 1321.74 791.285 C 1333.72 793.972 1387.34 809.957 1395.61 804.853 C 1398.53 803.053 1400.35 797.21 1401.37 794.157 C 1407.59 775.505 1429.55 681.559 1421.11 666.335 C 1418.53 661.703 1405.41 658.856 1400.5 657.467 C 1380.91 651.935 1360.26 649.544 1340.37 645.063 C 1309.31 638.064 1277.67 628.496 1247.47 618.501 C 1246.93 605.366 1245.67 591.785 1244.75 578.618 z"/>
<path transform="translate(0,0)" fill="rgb(187,85,51)" d="M 1245.09 685.824 C 1272.4 699.207 1320.96 713.338 1350.67 718.377 L 1347.84 736.847 C 1335.07 733.654 1276.02 715.219 1270.9 731.603 C 1268.08 740.602 1262.4 768.676 1261.05 778.999 C 1259 794.785 1242.68 851.391 1247.31 862.625 C 1257.15 873.52 1292.6 884.501 1307.72 889.123 C 1341.24 899.112 1375.43 907.277 1409.87 913.426 C 1423.88 915.927 1452.51 924.313 1464.99 917.624 C 1474.06 905.491 1500.89 762.429 1503.67 738.65 C 1525.76 743.335 1561.76 745.59 1584.97 748.102 C 1599.77 749.704 1612.79 748.881 1629.31 751.34 C 1628.26 760.151 1627.37 768.981 1626.65 777.826 C 1615.08 778.098 1545.91 777.368 1541.1 780.107 C 1537.65 782.066 1536.26 784.649 1534.9 788.225 C 1534.78 788.94 1534.67 789.658 1534.58 790.377 C 1531.16 816.54 1528.99 842.958 1526.33 869.21 C 1524.68 885.555 1521.99 902.272 1521.52 918.664 C 1521.42 922.132 1521.02 930.457 1523.46 932.907 C 1534.83 944.348 1659.66 935.857 1682.83 934.278 L 1676.02 956.63 C 1647.27 958.16 1617.68 963.775 1586.89 965.097 C 1478.53 969.747 1371.54 950.306 1271.04 909.753 C 1243.22 898.528 1220.89 885.003 1193.37 873.776 C 1203.36 851.489 1211.91 821.001 1218.87 797.496 C 1230.06 759.694 1238.24 724.644 1245.09 685.824 z"/>
<path transform="translate(0,0)" fill="rgb(211,130,43)" d="M 766.068 1238.51 L 766.777 1238.93 C 768.758 1245.55 770.95 1318.57 771.018 1326.91 C 761.042 1326.89 750.61 1327.23 740.599 1327.41 C 740.589 1290.07 748.4 1269.17 704.531 1274.83 C 694.235 1275.1 675.083 1274.6 675.413 1289.98 C 675.856 1310.55 664.747 1384.67 674.733 1398.65 C 687.587 1404.34 721.737 1401.07 737.365 1401.26 C 749.563 1401.4 761.738 1402.35 773.814 1404.08 C 773.131 1432.85 777.382 1480.94 780.833 1509.18 C 769.074 1510.94 752.968 1510.93 741.043 1510.85 C 738.975 1476.76 750.405 1450.13 706.638 1456.44 C 688.643 1459.03 679.393 1450.7 677.448 1476.32 C 674.957 1509.13 673.474 1541.42 673.659 1574.15 C 673.68 1577.2 679.172 1580.77 681.401 1582.17 C 701.822 1585.32 721.353 1584.83 741.898 1585.54 C 758.855 1586.12 775.93 1587.84 792.848 1589.37 L 800.377 1656.99 C 792.73 1655.69 785.011 1653.92 777.416 1652.28 C 777.534 1646.17 776.802 1618.75 771.152 1616.99 C 750.405 1610.5 692.212 1609.21 674.221 1616.58 C 665.952 1615.54 654.508 1608.98 646.681 1604.98 C 649.726 1568.9 649.76 1531.59 652.158 1495.3 C 657.727 1411.01 663.828 1324.22 665.796 1239.89 C 705.946 1242.03 726.688 1242.34 766.068 1238.51 z"/>
<path transform="translate(0,0)" fill="rgb(187,85,51)" d="M 798.833 1232.34 C 799.987 1233.89 816.234 1475.23 818.562 1497.26 C 823.141 1540.62 832.816 1618.55 838.228 1663.42 C 832.006 1662.79 825.437 1661.86 819.195 1661.1 C 817.284 1645.63 815.462 1630.16 813.731 1614.67 C 812.602 1603.67 812.136 1592.8 810.086 1581.95 C 809.342 1580.98 808.607 1580.02 807.792 1579.1 C 794.452 1564.03 714.814 1566.94 691.528 1565.84 C 691.76 1538.54 693.781 1507.22 694.958 1479.75 C 695.031 1476.36 694.439 1477.72 696.284 1475.35 C 702.858 1473.88 714.641 1473.94 721.737 1473.72 C 722.867 1487.8 721.276 1510.83 726.536 1522.42 C 732.131 1534.75 789.027 1528.82 797.506 1522.96 C 801.443 1516.25 795.354 1468.88 794.498 1457.42 C 793.562 1445.14 792.705 1432.86 791.925 1420.58 C 791.525 1413.78 791.747 1406.32 790.631 1399.61 C 790.08 1396.3 788.062 1393 785.668 1390.69 C 774.011 1379.46 706.425 1383.83 687.556 1383.99 C 688.044 1352.72 691.065 1326.34 690.986 1292.92 C 701.389 1293.13 712.262 1292.7 722.698 1292.44 C 723.296 1304.2 719.677 1331.33 727.708 1339.9 C 731.48 1343.93 737.475 1345.25 742.791 1345.34 C 752.999 1345.53 777.537 1347.01 784.697 1339.51 C 793.41 1330.38 783.204 1252.62 782.816 1235.67 L 798.833 1232.34 z"/>
<path transform="translate(0,0)" fill="rgb(211,130,43)" d="M 1235.13 529.194 C 1251.1 536.028 1265.58 543.139 1282.17 548.583 C 1390.19 584.029 1502.08 598.084 1615.49 597.169 C 1677.07 596.672 1724.64 595.052 1784.2 580.097 C 1779.56 588.458 1775.2 596.975 1771.15 605.634 L 1764.06 622.586 C 1590.78 651.208 1407.6 620.56 1243.22 563.235 C 1240.94 551.793 1238.24 540.439 1235.13 529.194 z"/>
<path transform="translate(0,0)" fill="rgb(211,130,43)" d="M 1282.48 1346.41 C 1293.87 1348.22 1306.62 1339.06 1312.85 1329.74 C 1316.01 1325.03 1310.6 1314.49 1308.67 1309.15 L 1310.19 1307.15 C 1316.66 1315.77 1328.87 1333.38 1334.05 1342.64 C 1309.03 1366.51 1296.48 1375.57 1268.5 1394.92 C 1260.57 1383.36 1246.78 1358.91 1234.99 1354.92 C 1223.93 1356.31 1181.07 1386.28 1173.44 1395.71 C 1171.77 1397.79 1170.8 1398.97 1170.87 1401.76 C 1171.13 1412.08 1213.37 1494.06 1221.25 1499.99 C 1223.17 1501.43 1223.42 1501.5 1225.78 1501.05 C 1256.02 1495.33 1352.55 1415.19 1380.77 1393.26 C 1389.75 1409.19 1394.71 1420.14 1405.33 1435.6 C 1396.15 1444.51 1387.14 1453.32 1377.62 1461.87 C 1373.53 1453.56 1365.06 1433.96 1352.85 1443.51 C 1328.79 1462.33 1305.58 1480.35 1280.64 1498.13 C 1255.41 1516.11 1229.34 1528.46 1203.24 1544.27 C 1189 1510.45 1173.6 1477.12 1157.07 1444.35 C 1148.71 1427.91 1134.36 1404.58 1127.97 1388.95 C 1141.83 1379.98 1156.48 1371.52 1170.11 1362.36 C 1194.24 1346.15 1219.51 1327.54 1241.52 1308.65 C 1248.33 1316.53 1253.01 1325.22 1259.01 1333.62 C 1265.14 1342.2 1270.86 1354.51 1282.48 1346.41 z"/>
<path transform="translate(0,0)" fill="rgb(211,130,43)" d="M 1187.5 888.329 C 1333.24 971.805 1503.13 1002.99 1669.02 976.721 L 1657.45 1010.88 C 1625.62 1012.72 1593.04 1019.79 1560.13 1020.05 C 1462.37 1020.8 1360.18 996.87 1270.84 957.937 C 1238.66 943.912 1208.25 927.489 1177.23 911.74 C 1181.07 903.824 1184.15 896.431 1187.5 888.329 z"/>
<path transform="translate(0,0)" fill="rgb(211,130,43)" d="M 935.403 1177.93 C 945.114 1182.14 1066.88 1446.88 1081.98 1477.65 C 1098.12 1510.53 1124.2 1580.98 1139.63 1617.89 C 1134.23 1620.13 1128.07 1623.16 1122.69 1625.65 L 1110.86 1631.38 C 1050.84 1486.61 993.326 1323.97 920.698 1185.77 L 935.403 1177.93 z"/>
<path transform="translate(0,0)" fill="rgb(211,130,43)" d="M 1136.53 986.407 C 1142.38 989.725 1186.83 1035.31 1194.83 1043.28 C 1297.52 1145.53 1389.51 1243.17 1469.2 1365.21 L 1455.81 1381.3 L 1450.16 1387.52 C 1418.92 1340.7 1384 1295.79 1350.33 1250.73 C 1310.63 1197.62 1271.3 1146.84 1226.4 1097.76 C 1194.93 1063.35 1161.88 1030.97 1128.63 998.242 L 1136.53 986.407 z"/>
<path transform="translate(0,0)" fill="rgb(211,130,43)" d="M 831.375 1224.09 L 832.859 1225.01 C 835.348 1235.37 838.308 1272.79 839.749 1285.6 L 853.999 1405.76 L 877.518 1600.05 C 880.297 1622.63 883.92 1645.6 886.219 1668.14 C 881.553 1668.02 876.844 1667.56 872.186 1667.18 C 867.378 1667.04 862.753 1666.43 857.977 1665.9 C 854.889 1650.44 851.912 1618.64 849.675 1601.61 C 842.45 1548.31 836.697 1494.83 832.421 1441.22 C 827.355 1370.5 825.369 1299.32 813.594 1229.49 L 831.375 1224.09 z"/>
<path transform="translate(0,0)" fill="rgb(211,130,43)" d="M 498.984 1179.06 L 517.326 1192.34 C 480.703 1257.28 440.178 1319.94 395.975 1379.98 C 392.768 1384.36 380.226 1402.25 376.844 1404.45 C 373.144 1403.44 373.767 1402.9 370.754 1399.15 C 362.476 1388.86 354.695 1378.18 347.437 1367.15 C 408.118 1322.03 462.57 1244.32 498.984 1179.06 z"/>
<path transform="translate(0,0)" fill="rgb(187,85,51)" d="M 472.924 1157.53 C 476.151 1159.15 484.199 1167.73 487.091 1170.67 C 446.828 1230.93 398.324 1300.53 342.01 1347.02 C 338.772 1349.69 338.674 1349.98 335.714 1349.57 L 333.768 1346.56 C 326.547 1334.54 319.478 1322.43 312.565 1310.22 C 358.982 1291.78 418.276 1233.54 449.131 1193.4 C 456.218 1184.17 466.062 1167.91 472.924 1157.53 z"/>
<path transform="translate(0,0)" fill="rgb(211,130,43)" d="M 638.116 1236.52 C 642.76 1236.8 646.803 1237.48 651.382 1238.18 C 647.533 1321.9 639.968 1407.23 634.809 1490.84 C 633.476 1514.04 632.444 1537.26 631.713 1560.49 C 631.424 1569.16 631.524 1588.45 630.277 1595.48 L 628.665 1595.85 C 622.526 1592.96 618.486 1590.55 612.695 1587.05 C 618.339 1494.4 624.38 1402.37 634.03 1310.03 C 636.516 1286.23 635.447 1257.34 638.116 1236.52 z"/>
<path transform="translate(0,0)" fill="rgb(211,130,43)" d="M 733.437 444.36 C 735.133 444.255 736.831 444.189 738.53 444.163 C 764.174 443.92 777.723 464.485 777.151 488.35 C 770.453 488.207 765.901 487.254 759.321 486.069 C 756.945 478.651 752.586 467.829 748.206 461.376 C 744.014 455.201 735.205 453.483 733.437 444.36 z"/>
<path transform="translate(0,0)" fill="rgb(187,85,51)" d="M 700.383 1629.04 C 717.221 1627.79 742 1629.79 758.605 1631.2 L 759.031 1648.49 C 740.896 1643.12 717.302 1636.77 700.383 1629.04 z"/>
</svg>