<svg version="1.1" xmlns="http://www.w3.org/2000/svg" viewBox="0 0 2048 2048" width="1024" height="1024">
<path transform="translate(0,0)" fill="rgb(0,0,0)" d="M 1444.62 267.255 C 1477.5 264.607 1517.61 272.554 1545.69 290.255 C 1556.19 296.877 1563.68 303.665 1573.5 310.356 C 1625.8 265.07 1733.9 278.992 1672.35 313.347 L 1688.17 314.924 C 1717.18 317.998 1742.6 330.139 1770.4 338.686 C 1789.59 344.586 1774.66 358.924 1764.83 365.303 C 1774.07 372.19 1784.37 383.554 1792.31 389.031 C 1816.08 405.428 1832.36 419.413 1832.71 450.723 C 1832.9 467.328 1830.87 482.371 1822.18 497.82 C 1831.11 521.867 1842.06 529.017 1859.19 546.737 C 1874.21 562.276 1847.89 570.226 1836.83 574.177 C 1842.32 589.771 1849.56 601.393 1853.68 619.134 C 1858.62 640.365 1861.41 660.289 1867 681.563 C 1869.4 693.609 1887.99 711.235 1884.23 724.025 C 1880.52 736.597 1852.49 728.84 1844.65 726.295 C 1844.78 743.333 1844.33 759.083 1842.1 776.124 C 1838.24 805.598 1831.73 835.037 1835.36 864.91 C 1836.35 873.077 1843.28 887.667 1837.96 895.945 C 1827.39 908.461 1807.5 889.572 1799.73 882.102 C 1796.72 895.267 1792.01 916.419 1786.43 928.606 C 1779.29 944.237 1772 956.293 1765.7 972.93 C 1758.65 988.676 1757.32 1008.32 1752.17 1024.16 C 1742.95 1052.54 1731.35 1075.85 1731.04 1106.5 C 1730.97 1113.52 1724.96 1122.8 1716.46 1120.29 C 1706.89 1117.46 1700.45 1107.05 1695.15 1099.11 C 1677.09 1135.6 1649.01 1166.83 1637.04 1206.29 C 1635.21 1212.33 1634.14 1218.88 1632.35 1224.93 C 1623.8 1253.76 1612.5 1239.38 1602.2 1223.62 C 1598.52 1235.19 1595.66 1247.39 1593.59 1259.36 C 1576.24 1360.01 1544.71 1457.64 1528.95 1558.47 C 1525.24 1582.19 1523.59 1627.85 1556.79 1630.55 C 1567.76 1631.44 1578.95 1631.64 1589.76 1633.6 C 1626.18 1639.96 1645.41 1681.85 1638.12 1715.51 C 1633.5 1736.81 1618.78 1741.97 1600.34 1747.1 C 1571.57 1757.23 1559.53 1758.73 1529.98 1751.53 C 1524.77 1753.29 1518.57 1754.56 1512.78 1754.92 C 1484.41 1756.71 1428.64 1748.3 1414.53 1719.52 C 1410.1 1710.48 1410.77 1693.84 1406.58 1685.07 C 1405.85 1683.55 1396.62 1677.04 1394.99 1675.22 C 1377.67 1655.88 1386.06 1635.66 1382.64 1614.33 C 1380.22 1605.83 1372.6 1595.53 1372.45 1586.56 C 1371.98 1559.15 1380.7 1532.82 1380.07 1504.97 C 1379.45 1477.29 1376.53 1450.91 1373.66 1423.51 C 1370.74 1396.6 1368.42 1369.63 1366.7 1342.63 C 1347.29 1342.68 1348.13 1339.2 1345.63 1321.22 C 1335.47 1326.67 1325.97 1330.61 1315.67 1336.66 C 1305.23 1400.62 1312.26 1467.06 1316.82 1531.04 C 1320.98 1589.43 1318.23 1601.58 1349.1 1651.53 C 1382.02 1664.92 1401.1 1683.48 1403.55 1721.19 C 1404.51 1735.91 1401.69 1751.02 1391.33 1762.21 C 1379.26 1775.25 1365.24 1773.43 1349.36 1773.29 C 1343.76 1773.4 1329.1 1781.42 1319.58 1782.22 C 1302.13 1783.68 1291.54 1779.14 1274.87 1777.26 C 1273.23 1777.07 1258.53 1780.52 1252.51 1780.56 C 1227.24 1780.72 1211.37 1775.1 1193.33 1757.99 C 1176.33 1740.82 1176.23 1725.52 1172.76 1703.37 C 1160.39 1709.79 1154.62 1708.45 1141.95 1710.89 C 1102.3 1718.54 1067.72 1708.84 1027.93 1705.89 C 1025.01 1728.7 1017.43 1747.46 989.951 1749.58 C 980.082 1750.35 973.578 1755.08 964.456 1758.33 C 952.902 1762.46 935.452 1762.95 924.261 1757.76 C 883.657 1773.49 859.444 1753.88 819.551 1747.07 C 799.41 1743.82 779.156 1741.32 758.829 1739.58 C 744.003 1738.21 717.56 1736.06 703.672 1732.04 C 659.059 1769.74 606.355 1776.68 554.895 1747.91 C 539.343 1751.51 523.979 1756.27 508.257 1759.75 C 475.227 1766.72 441.611 1770.56 407.859 1771.19 C 336.673 1772.33 243.351 1763.17 188.656 1712.7 C 159.493 1685.8 154.741 1638.59 180.187 1607.51 C 245.304 1527.99 376.561 1573.64 448.186 1501.55 C 456.285 1493.4 463.701 1481.7 466.889 1470.22 C 475.115 1414.5 474.469 1364.01 492.009 1309.49 C 514.312 1240.16 558.71 1191.1 599.543 1132.71 C 622.072 1100.49 640.356 1064.52 665.08 1033.59 C 723.11 955.559 788.697 903.003 874.126 857.104 C 912.897 836.273 950.729 817.201 985.641 789.822 C 1018.37 764.152 1034.9 733.027 1064.34 703.65 C 1006.67 679.053 1033.21 666.381 1071.22 649.845 C 1089.23 642.009 1113.81 608.613 1128.46 593.775 C 1119.49 592.249 1081.84 582.485 1086.48 566.934 C 1089.61 556.451 1116.88 548.136 1127.01 539.814 C 1167.03 506.931 1190.53 452.695 1235.28 425.113 C 1226.27 415.962 1217.13 405.594 1211.88 393.72 C 1202.01 371.382 1241.33 374.971 1253.77 372.154 C 1279.28 366.38 1300.99 353.351 1326.6 347.354 C 1297.64 318.658 1306.52 305.851 1340.15 309.594 C 1342.4 309.845 1351.87 308.662 1354.33 308.188 C 1381.35 302.974 1406.57 298.183 1434.06 295.428 C 1415.38 278.387 1422.06 271.304 1444.62 267.255 z M 349.765 1681.67 C 393.276 1692.19 492.824 1694.18 532.048 1675.96 C 539.133 1662.38 544.121 1656.41 554.345 1644.69 C 537.713 1635.98 528.467 1630.49 517.5 1614.88 C 516.421 1613.34 508.67 1603.14 507.798 1602.43 C 470.957 1626.12 440.967 1633.95 397.807 1638.19 C 368.316 1641.1 313.354 1640.77 291.535 1661.49 C 308.56 1673.07 329.829 1677.44 349.765 1681.67 z M 1008 1579.04 C 1020.63 1581.79 1036.4 1585.6 1048.93 1587.33 C 1079.55 1593.41 1098.96 1590.85 1129.82 1590.1 C 1132.52 1590.04 1144.82 1593.26 1148.25 1594.06 C 1157.91 1586.1 1133.74 1474.62 1128.46 1461.76 C 1125.66 1454.94 1123.52 1439.8 1121.31 1432.64 C 1111.01 1480.68 1080.93 1516.96 1044.89 1548.8 C 1033.11 1559.21 1019.57 1568.82 1008 1579.04 z"/>
<path transform="translate(0,0)" fill="rgb(207,129,40)" d="M 1464.41 289.318 C 1510.95 291.916 1562.16 314.097 1582.25 359.432 C 1585.31 366.33 1587.79 394.159 1594.92 395.397 C 1606.86 380.086 1591.66 349.652 1582.17 336.095 C 1600.79 315.15 1623.36 306.825 1650.67 304.641 C 1644.08 314.731 1629.74 329.962 1629.87 342.058 C 1633.1 348.437 1643.32 343.239 1649.09 341.098 C 1679.88 329.67 1708.9 339.047 1738.93 352.893 C 1726.55 357.364 1692.85 360.541 1689.14 372.258 C 1693.89 378.412 1709.16 375.153 1716.36 374.839 C 1735.49 374.005 1746.98 381.614 1762.32 391.059 C 1737.33 398.132 1720.5 404.263 1705.52 426.759 C 1701.59 432.676 1694.11 442.815 1688.92 447.431 C 1683.42 444.869 1668.65 434.024 1661.48 429.807 C 1672.12 420.547 1683.49 411.212 1696.73 406.008 C 1701.97 403.951 1709.03 403.108 1711.8 398.026 L 1710.97 396.556 C 1689.07 388.028 1662.14 412.675 1647.51 425.853 C 1601.43 428.816 1653.81 373.869 1652.73 365.847 C 1648.23 364.504 1643.47 366.244 1640.1 369.309 C 1624.68 383.314 1616.66 404.256 1614.71 424.524 C 1606.49 435.366 1598.83 443.348 1588.92 452.541 C 1583.69 447.699 1580.05 444.122 1575.25 438.863 C 1573.62 416.432 1567.49 394.371 1555.3 375.347 C 1550.45 367.776 1537.4 348.077 1527.4 349.426 C 1526.83 351.421 1526.91 353.626 1528.24 355.326 C 1546.72 378.897 1555.31 401.434 1561.61 430.859 C 1552.66 425.127 1530.97 417.284 1526.28 412.077 C 1507.71 391.423 1498.46 363.214 1470.57 351.047 C 1466.03 349.068 1455.7 345.297 1450.89 347.051 C 1450.95 352.523 1464.97 359.963 1469.32 362.922 C 1492.99 379.037 1507.06 409.13 1523.46 432.347 C 1512.91 431.612 1470.97 419.566 1466.36 427.324 C 1471.68 441.369 1523.33 448.85 1536.05 443.873 C 1539.25 441.25 1538.11 438.466 1540.49 434.825 C 1557.11 437.812 1571.68 458.586 1586.32 465.15 C 1601.66 469.902 1607.65 447.036 1619.9 442.804 C 1630.23 439.474 1646.5 439.896 1656.16 444.637 C 1677.08 454.902 1687.16 475.484 1699.38 493.77 C 1708.87 507.957 1725.8 520.499 1731.93 537.027 C 1736.12 545.496 1732.38 564.23 1734.74 571.817 C 1747.97 614.42 1739.43 638.918 1718.94 679.658 C 1716.65 675.01 1703.25 646.387 1695.9 653.228 C 1695.91 660.242 1706.23 687.181 1708.56 695.749 C 1710.97 704.604 1712.24 710.838 1713.88 720.128 C 1708.04 721.698 1693.35 724.8 1691.13 730.739 L 1692.5 732.351 C 1699.61 734.635 1705.95 733.537 1713.38 732.907 C 1712.99 738.647 1712.04 745.444 1711.35 751.257 C 1704.81 750.984 1689.22 749.209 1684.47 754.007 L 1685.39 755.843 C 1692.46 760.478 1699.89 761.821 1708.03 763.588 C 1700.59 777.262 1695.51 784.947 1680.82 791.358 C 1663.14 787.873 1646.65 776.532 1634.1 763.938 C 1633.83 757.778 1634.63 751.878 1635.26 745.746 C 1640.71 740.794 1644.09 736.702 1648.71 731.047 C 1662.85 713.716 1678.96 712.29 1690.89 691.856 C 1691.15 685.102 1692.97 677.148 1685.91 674.321 C 1682.57 675.314 1682.31 677.201 1679.75 680.84 C 1675.19 680.531 1672.61 677.29 1670.07 676.627 C 1660.26 673.707 1644.75 680.944 1635.7 680.273 C 1608.15 678.23 1602.04 672.301 1574.84 684.233 C 1571.13 680.249 1565.62 674.198 1559.74 675.327 C 1557.74 677.467 1556.8 679.09 1556.71 681.897 C 1555.93 706.496 1584 712.415 1599.34 722.156 C 1602.45 724.133 1615.79 742.881 1618.92 747.028 L 1619.24 761.51 C 1601.81 775.522 1566.91 795.468 1543.05 793.12 C 1533.78 792.207 1516.95 780.14 1509.03 791.111 C 1507.78 795.154 1509.19 799.981 1509.97 804.359 C 1484.41 781.258 1490.44 760.011 1471.16 731.919 C 1458.19 713.637 1437.65 704.366 1424.26 686.873 C 1416.11 676.228 1418.9 628.371 1408.7 625.329 C 1405.1 627.65 1402.45 637.007 1401.68 641.341 C 1397.14 667.116 1391.28 693.976 1381.21 718.244 C 1375.73 731.434 1369.72 739.891 1365.7 754.371 C 1388.13 739.213 1399.51 702.07 1406.72 677.236 C 1409.88 689.343 1411.39 691.557 1418.3 701.959 C 1415.69 711.938 1413.23 719.356 1410.22 728.867 C 1406.16 741.689 1391.34 768.933 1394.26 780.422 L 1395.74 780.746 C 1409.29 768.71 1423.98 731.021 1428.69 713.484 C 1459.88 740.015 1465.46 755.581 1477.43 793.466 C 1469.23 818.696 1457.17 841.891 1456.25 869.492 C 1455.95 878.66 1456.63 901.527 1462.81 908.398 C 1466.05 886.654 1465.83 864.922 1472.99 843.925 C 1477 832.15 1480.88 820.296 1486.1 808.976 L 1486.64 807.841 C 1494.52 813.675 1499.83 817.136 1509.09 820.372 C 1510.24 825.26 1511.47 830.129 1512.78 834.977 C 1516.37 847.902 1523.17 867.449 1535.52 875.088 C 1538.79 878.988 1551.08 873.414 1552.11 874.122 C 1566.13 883.704 1571.72 893.959 1587.4 902.541 C 1592.22 921.226 1590.73 935.967 1594.75 952.449 C 1608.37 931.437 1601.31 913.928 1597.88 890.5 C 1609.43 901.476 1611.43 905.31 1626.67 898.088 C 1629.46 929.605 1625.45 953.736 1615.44 983.789 C 1614.65 986.151 1615.02 987.986 1616.24 989.984 L 1618.14 989.136 C 1622.45 983.716 1624.81 978.132 1627.73 971.898 C 1640.35 944.994 1640.78 920.306 1637.6 891.31 C 1662.06 894.613 1661.46 877.731 1678.05 865.253 C 1698.33 850.004 1697.79 831.225 1691.4 808.85 C 1694.45 807.02 1697.7 804.487 1700.59 802.355 C 1704.65 811.24 1715.66 838.507 1723.05 842.965 L 1724.61 842.295 C 1727.89 829.677 1714.49 804.785 1708.79 793.307 C 1721.57 780.085 1723.29 772.005 1729.26 755.141 C 1743.03 781.518 1745.58 791.58 1755.34 818.072 L 1756.41 817.881 C 1767.25 799.031 1743.6 762.293 1736.54 743.987 C 1722.64 707.904 1734.8 687.843 1748.92 655.45 C 1754.67 666.063 1772.03 699.527 1784.02 701.033 C 1788.23 694.098 1768.73 670.682 1766.16 662.711 C 1764.11 656.353 1758.32 648.355 1757.47 641 C 1755.84 626.908 1759.39 613.169 1758.05 599.061 C 1756.88 587.792 1752.62 577.431 1751.42 566.006 C 1769.67 582.351 1787.76 596.886 1805.65 612.792 C 1794.08 581.793 1775.38 575.725 1756.24 551.241 C 1752.13 545.982 1745.17 528.001 1740.9 519.982 C 1733.77 508.538 1722.92 499.281 1715.94 489.292 C 1707.79 477.619 1700.64 465.066 1692.25 452.977 C 1725.57 452.284 1734.38 465.265 1763.4 479.254 L 1744.08 479.158 L 1743.37 479.668 L 1742.2 480.533 C 1740.63 481.675 1736.93 484.013 1736.69 485.575 C 1735.64 492.26 1754.07 499.908 1758.63 504.974 C 1765.57 512.481 1768.38 522.802 1774.09 531.236 C 1787.84 551.569 1808.85 568.326 1819.98 590.342 C 1831.31 612.752 1834.63 639.493 1839.74 663.872 C 1842.96 679.226 1846.76 691.165 1852.27 705.728 C 1843.38 700.664 1836.3 696.521 1827.76 690.736 C 1823.63 681.183 1800.52 622.81 1787.93 625.267 C 1787.62 625.847 1787.31 626.426 1787 627.006 C 1796.28 647.841 1819.28 704.361 1820.78 723.935 C 1824.69 774.705 1806.35 816.542 1813.55 865.726 C 1788.44 833.481 1799.03 820.93 1794.77 784.182 C 1793.78 775.582 1785.03 747.22 1775.08 746.264 C 1772.42 751.046 1781.75 781.115 1781.39 794.166 C 1779.98 844.387 1780.64 888.136 1758.13 934.377 C 1755.91 927.96 1751.07 910.952 1743.14 911.65 C 1741.81 919.7 1741.96 933.383 1741.49 942.097 C 1740.48 960.99 1738.39 977.194 1735.08 995.597 C 1729.98 1023.96 1712.95 1054.06 1710.66 1082.1 C 1710.74 1082.28 1709.27 1079.25 1709.45 1079.48 C 1704.5 1072.9 1703.13 1040.54 1693.88 1039.21 C 1689.78 1042.63 1681.72 1073.22 1677.55 1081.57 C 1657.29 1122.14 1632.87 1154.12 1614.87 1196.39 C 1606.34 1171.69 1610.64 1161.87 1613.89 1136.75 C 1587.43 1159.24 1583.51 1184.34 1561 1206.93 C 1537.1 1230.92 1509.7 1246.32 1485.93 1272.51 C 1485.76 1260.24 1486.74 1252.69 1488.95 1240.63 C 1512.16 1217.46 1536.84 1197.37 1545.82 1163.34 C 1546.86 1159.37 1548.03 1153.98 1545.9 1150.48 C 1539.63 1152.89 1534.55 1166.03 1530.31 1172.01 C 1509.08 1201.93 1476.2 1228.75 1453.22 1257.22 C 1439.69 1274 1389.86 1305.99 1370.4 1312.06 C 1372.14 1287.6 1378.51 1278.9 1388.78 1257.55 C 1391.27 1252.38 1391.56 1243.16 1391.92 1237.22 C 1381.01 1244.92 1377.62 1255.34 1369.17 1265.88 C 1352.56 1286.61 1337.76 1297.48 1315.48 1310.49 C 1317.92 1291.4 1325.94 1261.87 1339.41 1246.54 C 1342.49 1243.03 1354.78 1236.51 1358.49 1231.94 C 1374.33 1212.43 1393.52 1177.28 1393.91 1151.6 C 1393.96 1148.47 1392.9 1146 1390.71 1144.07 L 1388.53 1144.72 C 1385.76 1147.38 1363.63 1194.11 1359.97 1201.43 C 1361.62 1147.56 1354.17 1110.62 1333.54 1060.99 C 1329.19 1050.54 1327.54 1027 1318.38 1020.25 C 1312.84 1021.87 1309.72 1037.72 1307.89 1043.06 C 1303.06 1057.15 1295.57 1067.74 1286.09 1079.02 C 1287.32 1016.89 1255.63 973.096 1258.53 912.021 C 1259.37 894.222 1260.19 876.712 1263.39 859.171 C 1264.25 854.428 1265.3 849.298 1262.61 845.018 L 1260.5 844.743 C 1245.84 854.463 1244.95 903.737 1241.81 920.935 C 1237.83 942.712 1218.12 955.764 1200.57 967.145 C 1202.7 948.397 1203.51 932.503 1200.61 913.718 C 1195.42 880.01 1184.69 847.45 1186.7 812.87 C 1187.96 791.106 1195.25 768.464 1204.05 748.565 C 1208.59 738.304 1218.13 723.365 1219.48 712.781 C 1217.55 710.45 1218.76 711.165 1215.69 710.668 C 1214.16 711.252 1212.38 711.949 1211.19 713.091 C 1183.37 739.976 1171.87 784.221 1168.93 820.673 C 1156.18 835.17 1147.51 843.524 1133.53 856.867 C 1145.6 803.592 1125.59 752.495 1146.8 700.938 C 1156.6 677.131 1164.94 657.334 1181.64 637.265 C 1187.71 629.975 1208.92 609.559 1209.85 602.213 L 1208.61 601.341 C 1184.52 604.909 1163.81 646.294 1148.24 662.739 C 1126.88 685.311 1089.97 688.988 1062.19 679.759 L 1060.85 679.305 C 1116.93 662.988 1141.48 604.671 1183.55 569.619 C 1190.17 564.101 1211.08 548.821 1212.45 541.052 C 1209.78 538.422 1205.66 540.336 1202.31 541.893 C 1185.52 549.716 1168.32 567.169 1150.16 571.265 C 1145.5 572.316 1130.17 570.737 1124.67 570.236 C 1129.82 566.197 1135.79 561.913 1140.98 558.193 C 1191.14 522.2 1208.38 454.566 1270.13 432.051 C 1274.54 430.442 1289.68 423.713 1292.19 420.883 C 1291.48 412.204 1270.77 416.253 1261.24 411.62 C 1250.22 406.254 1249.83 406.54 1241.53 397.25 C 1294.58 392.89 1313.79 362.506 1372.85 363.718 C 1390.17 364.011 1407.26 367.66 1423.19 374.463 C 1430.13 377.366 1451.04 391.745 1455.59 387.012 C 1455.22 381.254 1450.63 376.976 1446.66 373.341 C 1425.31 353.75 1398.03 352.024 1371.36 345.749 C 1362.95 343.769 1352.29 337.175 1344.66 332.556 C 1376.71 329.885 1413.53 314.688 1445.52 318.086 C 1458.72 319.488 1483.02 333.352 1496.82 334.721 L 1497.71 333.397 C 1498.46 320.973 1472.94 300.525 1465.63 290.951 L 1464.41 289.318 z"/>
<path transform="translate(0,0)" fill="rgb(0,0,0)" d="M 1293.83 735.272 C 1283.85 741.23 1267.49 753.854 1257.11 743.444 C 1254.49 736.727 1264.7 718.222 1266.36 709.329 C 1274.55 665.432 1265.54 604.507 1314.01 581.551 C 1315.05 581.061 1316.9 580.783 1318.01 580.602 L 1319.43 581.793 C 1318.83 589.675 1308.25 600.07 1303.85 607.579 C 1299.56 614.995 1296.07 622.85 1293.45 631.008 C 1287.4 650.336 1288.23 670.545 1286.08 690.515 C 1284.69 703.406 1281.6 714.162 1277.86 726.413 C 1287.24 720.3 1289.8 718.477 1297.62 711.393 C 1304.12 705.506 1322.54 680.961 1327.94 678.997 L 1330.27 679.797 C 1330.53 682.04 1330.81 681.273 1330.02 682.683 C 1325.95 689.877 1323.75 701.057 1320.35 708.263 C 1305.76 739.206 1301.93 771.037 1308.47 804.662 C 1311.22 818.775 1315.19 834.796 1317.07 849.291 C 1328.58 832.163 1344.61 812.006 1346.82 791.949 C 1347.36 787.043 1350.04 776.436 1354.76 774.135 L 1356.38 775.117 C 1357.88 781.52 1352.81 802.224 1352.27 811.254 C 1349.76 852.882 1355.2 873.324 1374.82 909.859 C 1378.46 916.633 1385.2 933.803 1389.05 942.295 C 1390.66 934.499 1396.13 916.107 1396.64 910.269 C 1399.33 879.439 1397.14 851.924 1411.92 822.814 C 1414.95 816.834 1417.84 810.792 1423.45 806.576 L 1425.49 806.45 L 1426.51 807.731 C 1420.44 839.13 1411.18 851.3 1412.35 886.591 C 1414.11 939.457 1426.62 964.392 1453.79 1007.53 C 1458.06 1007.62 1462.8 1007.43 1467.12 1007.36 C 1468.3 992.998 1469.4 978.626 1470.43 964.249 C 1497.03 997.503 1516 1038.19 1524.46 1080.37 C 1526.27 1089.41 1526.12 1102.71 1526.06 1112.17 C 1557.67 1085.49 1577.28 1062.87 1587.35 1021.63 C 1588.61 1016.46 1591.29 1002.28 1597.22 1002.57 C 1605.12 1010.53 1598.49 1047.44 1597.86 1058.47 C 1630.81 1017.4 1656.29 987.25 1667.18 934.695 C 1667.63 932.52 1668.82 930.428 1670.52 929.025 C 1682.5 935.399 1665.64 976.425 1665.05 988.021 C 1664.51 998.764 1665.69 1005.63 1667.79 1016.02 C 1686.96 983.337 1713.02 956.684 1718.74 917.831 C 1720.24 907.682 1718.97 881.612 1723.35 874.735 C 1725.79 875.037 1725.93 875.47 1727.44 877.311 C 1735.81 887.481 1735.8 909.761 1734.15 922.291 C 1732.81 932.452 1730.34 943.213 1726.18 952.613 C 1720.85 964.638 1677.24 1035.07 1669.02 1041.6 C 1668.04 1042.38 1667.2 1042.72 1665.99 1042.96 C 1657.7 1039.71 1654.89 1022.35 1652.35 1014.29 C 1638.68 1035.83 1621.81 1052.04 1610.47 1074.62 C 1600.96 1093.57 1603.28 1129.11 1586.55 1144.23 L 1585.2 1143.92 C 1585 1126.37 1591.63 1105.63 1591.08 1084.24 C 1587.84 1080.02 1586.97 1077.89 1584.76 1073.12 C 1577.31 1087.18 1533.83 1141.52 1515.25 1132.19 C 1511.52 1128.47 1510.8 1120.82 1510.93 1115.7 C 1511.96 1077.53 1499.99 1043.34 1481.19 1010.35 C 1479.97 1027.98 1479.66 1047.37 1463.63 1058.02 C 1454.93 1047.32 1449.55 1034.51 1442.76 1022.64 C 1431.27 1002.56 1416.22 984.417 1408.36 962.468 C 1406.69 957.797 1404.98 952.41 1402.98 947.971 C 1389.05 981.01 1396.31 996.293 1399.41 1030.91 C 1399.81 1035.36 1400.75 1043.05 1399.45 1047.18 L 1397.67 1047.64 C 1389.51 1039.7 1383.46 1004.49 1383.61 992.712 C 1383.69 985.581 1383.98 979.155 1383.39 971.485 C 1381.24 943.447 1363 926.026 1351.98 901.397 C 1342.1 879.292 1339.98 862.318 1337.39 838.688 C 1334.19 848.58 1324.49 878.842 1318.42 885.227 C 1308.82 888.289 1305.68 877.705 1304.2 870.238 C 1297.65 837.056 1287.48 803.775 1288.08 769.695 C 1288.26 761.026 1291.99 743.934 1293.83 735.272 z"/>
<path transform="translate(0,0)" fill="rgb(207,129,40)" d="M 1453.79 1007.53 C 1458.06 1007.62 1462.8 1007.43 1467.12 1007.36 C 1465.96 1013.25 1464.94 1018.88 1463.33 1024.68 C 1459.78 1018.72 1456.96 1013.7 1453.79 1007.53 z"/>
<path transform="translate(0,0)" fill="rgb(0,0,0)" d="M 1297.52 461.628 C 1299.45 439.728 1302.49 422.893 1320.45 407.732 C 1334.9 395.539 1355.96 391.17 1374.5 392.979 C 1399.23 395.618 1421.95 407.834 1437.8 427.014 C 1441.57 431.637 1444.18 436.189 1447.15 441.344 C 1457.01 441.497 1471.4 441.325 1479.2 447.671 L 1480.13 449.715 C 1474.61 456.25 1452.88 452.772 1445.49 455.297 C 1422.62 463.114 1404.23 475.565 1380.37 481.646 C 1410.7 494.323 1394.26 497.615 1380.78 515.7 C 1356.9 547.734 1334.01 557.97 1298.06 572.994 C 1294.5 570.403 1293.86 569.814 1290.86 566.563 C 1303.83 557.079 1324.1 546.369 1338.69 538.541 C 1325.3 528.296 1322.14 526.01 1311.55 512.819 C 1297.38 518.295 1286.1 524.244 1273.45 532.451 C 1265.21 537.789 1250.42 551.079 1242.16 553.883 L 1241.02 552.635 C 1248.36 529.595 1284.17 508.9 1305.47 501.455 C 1301.15 490.693 1298.82 484.242 1297.43 472.748 C 1287.21 476.123 1268.83 481.86 1259.75 486.768 C 1245.79 494.322 1243.33 499.729 1226.49 504.457 C 1242.1 477.816 1267.72 465.42 1297.52 461.628 z"/>
<path transform="translate(0,0)" fill="rgb(207,129,40)" d="M 1360.92 412.243 C 1389.25 408.672 1412.44 426.021 1430.95 445.206 L 1408.22 456.073 C 1398.94 448.824 1356.51 415.118 1343.73 447.008 C 1343.05 448.702 1344.9 450.381 1346.2 451.507 C 1350.75 451.956 1362.47 449.143 1368.61 448.38 C 1374.1 450.525 1389.85 456.538 1388.41 463.676 L 1385.09 465.039 C 1359.37 473.843 1351.85 480.242 1378.13 497.502 C 1368.88 506.259 1362.59 515.543 1353.71 524.413 C 1321.86 506.104 1307.84 469.602 1324.93 433.957 C 1331.02 421.26 1347.46 415.046 1360.92 412.243 z"/>
<path transform="translate(0,0)" fill="rgb(0,0,0)" d="M 1688.65 542.315 C 1689.6 542.385 1690.55 542.47 1691.5 542.571 C 1699.63 543.459 1727.07 549.958 1723.72 561.062 C 1721.06 563.963 1718.91 564.163 1714.98 565.392 C 1703.36 586.913 1699.72 590.559 1675.36 593.149 C 1665.65 602.099 1666.52 603.977 1672.56 615.685 C 1676.95 624.168 1687.38 640.988 1681.53 650.334 C 1678.64 650.376 1679.86 650.315 1676.66 648.187 C 1666.58 632.548 1645.13 597.46 1642.19 579.428 C 1641.61 575.848 1642.85 567.161 1643.39 563.138 C 1649.27 573.759 1651.76 579.019 1655.56 590.519 C 1655.04 562.182 1659.75 549.765 1688.65 542.315 z"/>
<path transform="translate(0,0)" fill="rgb(207,129,40)" d="M 1691.57 556.537 C 1711.58 563.851 1694.62 579.427 1678.84 580.819 C 1675.13 578.982 1668.94 575.897 1669.83 571.14 C 1675.54 567.804 1680.34 570.283 1686.33 571.962 C 1689.88 565.822 1690.74 563.567 1691.57 556.537 z"/>
<path transform="translate(0,0)" fill="rgb(0,0,0)" d="M 1502.43 541.269 C 1534.14 536.943 1558.41 591.365 1550.21 601.577 C 1542.58 602.568 1535.7 592.447 1525.25 590.644 C 1504.07 591.681 1495.23 590.343 1480.95 573.533 C 1475.51 567.133 1473.07 564.127 1465.24 564.48 C 1463.29 564.568 1462 561.46 1461.15 559.732 L 1462.08 557.019 C 1470.39 548.643 1490.92 543.161 1502.43 541.269 z"/>
<path transform="translate(0,0)" fill="rgb(207,129,40)" d="M 1496.3 554.52 C 1500.78 555.205 1500.02 554.982 1502 557.495 C 1502.39 561.953 1502.05 564.307 1504.7 567.599 C 1513.24 572.225 1523.22 561.316 1526.99 567.644 C 1526.78 570.837 1525.73 571.757 1523.86 574.359 C 1515.9 580.278 1514.17 579.294 1504.07 578.685 C 1494.84 572.175 1483.55 564.847 1496.3 554.52 z"/>
<path transform="translate(0,0)" fill="rgb(0,0,0)" d="M 1445.76 482.029 C 1449.67 483.385 1449.63 482.671 1451.76 485.383 C 1451.48 495.103 1438.3 502.209 1433.48 510.019 C 1423.77 524.204 1415.24 547.703 1403.4 559.987 C 1383.61 580.538 1363.47 594.391 1344.2 616.404 C 1342.11 618.206 1343.25 617.651 1340.61 617.856 L 1339.05 616.091 C 1337.28 598.817 1380.48 568.641 1390.31 557.436 C 1413.64 530.859 1415.35 503.718 1445.76 482.029 z"/>
<path transform="translate(0,0)" fill="rgb(0,0,0)" d="M 1244.74 598.849 C 1249.76 605.691 1242.26 617.352 1238.16 623.472 C 1224.24 644.239 1206.11 662.53 1193.35 684.118 C 1181.38 704.372 1177.21 727.782 1168.91 749.477 C 1166.91 747.284 1166.42 746.983 1166.15 743.544 C 1161.57 683.467 1211.01 641.808 1244.74 598.849 z"/>
<path transform="translate(0,0)" fill="rgb(0,0,0)" d="M 1352.43 966.534 C 1357.41 970.767 1361.99 1006.57 1364.29 1015.71 C 1371.65 1044.94 1392 1081.66 1383.28 1111.8 C 1381.36 1111.71 1382.31 1111.87 1380.43 1110.43 C 1377.1 1103.99 1372.4 1085.82 1369.93 1077.68 C 1357.06 1035.22 1345.45 1011.38 1352.43 966.534 z"/>
<path transform="translate(0,0)" fill="rgb(0,0,0)" d="M 1433.96 1068.39 C 1446.65 1075.04 1445.28 1094.98 1445.67 1107.48 C 1446.6 1137.92 1442.39 1163.56 1426.21 1189.52 C 1424.65 1192.04 1424.82 1192.39 1422.24 1193.63 L 1420.84 1192.42 C 1419.32 1183.71 1425.31 1167.91 1427.03 1158.72 C 1430.73 1138.92 1433.96 1121.37 1433.22 1101.11 C 1432.91 1092.62 1431.99 1075.76 1433.96 1068.39 z"/>
<path transform="translate(0,0)" fill="rgb(0,0,0)" d="M 1467.35 1146.66 C 1470.76 1150.48 1470.98 1160.16 1470.1 1165.07 C 1463.61 1201.11 1444.82 1230.59 1416.28 1253.21 C 1413.74 1250.99 1414.64 1252.32 1413.59 1249.02 C 1414.42 1245.14 1439.25 1209.53 1443.96 1201.15 C 1453.72 1183.78 1458.17 1162.32 1467.35 1146.66 z"/>
<path transform="translate(0,0)" fill="rgb(0,0,0)" d="M 1507.35 863.561 C 1508.65 866.715 1510.03 902.542 1510.19 907.285 C 1510.63 920.283 1526.39 968.698 1524.46 975.75 C 1521.71 977.28 1523.19 976.935 1519.79 976.449 C 1500.6 949.86 1490.53 893.197 1507.35 863.561 z"/>
<path transform="translate(0,0)" fill="rgb(0,0,0)" d="M 1232.39 760.737 C 1234.18 762.503 1233.52 767.089 1233.04 769.324 C 1227.49 795.044 1223.96 820.662 1221.18 846.795 C 1220.48 853.349 1220.97 859.277 1214.24 860.059 C 1205.35 827.932 1213.21 787.907 1232.39 760.737 z"/>
<path transform="translate(0,0)" fill="rgb(0,0,0)" d="M 1554.96 924.905 C 1570.68 939.361 1569.56 998.645 1560.16 1017.73 C 1558.38 1018.94 1558.63 1018.63 1556.45 1019.26 L 1554.82 1018.25 C 1552.09 1011.57 1556.63 991.764 1556.66 981.103 C 1556.7 967.021 1551.01 935.649 1554.96 924.905 z"/>
<path transform="translate(0,0)" fill="rgb(0,0,0)" d="M 1396.73 584.719 C 1414.46 602.524 1367.32 649.577 1354.94 661.344 C 1352.58 660.052 1352.61 660.24 1351.22 657.989 C 1352.62 654.701 1369.46 633.423 1373.53 627.461 C 1383.4 612.998 1388.04 598.079 1396.73 584.719 z"/>
<path transform="translate(0,0)" fill="rgb(0,0,0)" d="M 1438.3 600.52 C 1446.78 607.965 1446.92 623.725 1453.89 633.44 C 1459.19 640.83 1481.6 653.49 1477.61 662.574 C 1453.49 659.173 1425.78 623.233 1438.3 600.52 z"/>
<path transform="translate(0,0)" fill="rgb(0,0,0)" d="M 1318.36 930.682 C 1322.58 936.1 1320.96 989.846 1321.44 1000.59 C 1321.54 1002.74 1319.94 1004.27 1318.37 1005.48 L 1316.23 1004.67 C 1314.18 1001.01 1312.61 997.099 1311.56 993.039 C 1306.91 974.947 1308.81 947.147 1318.36 930.682 z"/>
<path transform="translate(0,0)" fill="rgb(0,0,0)" d="M 1510.45 675.652 C 1513.83 676.338 1513.68 677.226 1515.47 679.84 C 1516.74 687.447 1507.39 695.031 1504.8 702.736 C 1501.69 712.023 1501.26 722.074 1496.43 730.505 C 1479.35 716.841 1498.79 687.256 1510.45 675.652 z"/>
<path transform="translate(0,0)" fill="rgb(0,0,0)" d="M 1642.4 1074.62 C 1653.02 1085.4 1634.42 1120.69 1626.4 1130.39 C 1616.55 1122.26 1636.61 1082.98 1642.4 1074.62 z"/>
<path transform="translate(0,0)" fill="rgb(0,0,0)" d="M 1505.89 715.811 C 1517 716.765 1547.26 722.694 1558.51 726.924 C 1560.17 727.547 1559.94 729.099 1560.53 731.562 C 1554.08 733.391 1519.66 731.272 1512.7 725.793 C 1507.5 721.698 1507.78 722.361 1505.89 715.811 z"/>
<path transform="translate(0,0)" fill="rgb(0,0,0)" d="M 1592.82 489.175 C 1609.99 493.119 1609.51 517.155 1606.63 530.662 L 1604.64 530.746 C 1594.36 522.616 1592.13 501.663 1592.82 489.175 z"/>
<path transform="translate(0,0)" fill="rgb(0,0,0)" d="M 1510.37 744.575 C 1517.98 745.136 1549.64 748.615 1553.05 754.416 L 1550.8 756.171 C 1537.53 759.413 1529.41 759.446 1516.11 757.666 C 1513.04 755.413 1512.46 754.889 1509.78 752.16 C 1508.54 747.857 1508.78 749.463 1510.37 744.575 z"/>
<path transform="translate(0,0)" fill="rgb(0,0,0)" d="M 1562.32 608.426 C 1572.83 615.245 1562.31 643.272 1558.16 652.368 C 1545.63 639.999 1554.81 621.444 1562.32 608.426 z"/>
<path transform="translate(0,0)" fill="rgb(0,0,0)" d="M 1546.4 506.426 C 1550.16 509.101 1551.34 512.294 1553.39 516.398 C 1551.82 525.853 1548.16 535.121 1542.17 542.665 L 1537.91 541.419 C 1531.48 533.83 1541.21 513.586 1546.4 506.426 z"/>
<path transform="translate(0,0)" fill="rgb(0,0,0)" d="M 1646.72 508.76 C 1658.08 513.332 1667.8 530.483 1665.51 542.722 C 1652.13 537.859 1644.63 522.55 1646.72 508.76 z"/>
<path transform="translate(0,0)" fill="rgb(72,26,1)" d="M 1277.58 576.805 C 1281.51 573.329 1286.6 569.745 1290.86 566.563 C 1293.86 569.814 1294.5 570.403 1298.06 572.994 C 1291.31 577.72 1286.82 581.114 1281.06 587.155 C 1279.96 583.466 1278.91 580.417 1277.58 576.805 z"/>
<path transform="translate(0,0)" fill="rgb(0,0,0)" d="M 1277.58 576.805 C 1278.91 580.417 1279.96 583.466 1281.06 587.155 C 1279.06 592.101 1276.85 598.192 1270.78 597.827 C 1265.23 590.013 1272.23 582.409 1277.58 576.805 z"/>
<path transform="translate(0,0)" fill="rgb(203,95,40)" d="M 797.696 934.886 C 796.767 948.534 794.845 970.453 795.063 983.462 C 796.196 1051.01 807.99 1135.45 833.983 1198.1 C 780.924 1183.49 747.09 1193.09 697.208 1213.76 C 673.293 1206.96 649.411 1211.07 630.37 1227.47 C 652.293 1225.32 658.934 1222.21 682.347 1223.14 C 670.707 1230.31 624.504 1259.56 622.065 1272.12 C 625.885 1275.93 640.159 1266.4 644.418 1263.92 C 713.865 1223.43 816.991 1175.93 877.551 1256.91 C 909.829 1300.08 910.46 1354.6 902.65 1405.5 C 891.467 1406.3 881.702 1405.35 870.73 1404.79 C 822.607 1402.35 783.896 1389.54 739.897 1371.4 C 740.088 1365.93 740.459 1351.18 736.468 1347.51 L 734.555 1347.95 C 727.193 1354.99 724.245 1374.65 718.459 1385.14 C 704.91 1409.71 688.548 1427.52 674.411 1452.16 C 660.616 1478.14 653.716 1508.69 649.785 1537.71 C 645.326 1570.64 640.066 1588.76 622.189 1616.72 C 597.842 1619.14 598.003 1621.74 576.402 1628.87 C 550.425 1618.62 531.407 1600.57 519.937 1574.99 C 515.813 1565.79 511.478 1542.51 501.429 1539.98 L 499.569 1541.57 C 495.487 1552.42 497.461 1565.12 499.223 1576.23 C 482.393 1594.34 458.38 1601.89 435.078 1608 C 433.615 1587.01 429.2 1569.76 416.476 1552.45 C 451.138 1535.53 490.064 1506.52 494.42 1465.76 C 497.799 1434.13 497.096 1403.5 502.961 1371.5 C 508.959 1338.78 516.799 1308.45 531.393 1278.24 C 552.775 1233.98 585.455 1196.84 613.409 1156.77 C 630.521 1132.1 646.579 1106.07 662.942 1080.75 C 698.246 1026.11 744.532 972.978 797.696 934.886 z"/>
<path transform="translate(0,0)" fill="rgb(0,0,0)" d="M 550.164 1317.65 C 556.32 1324.28 532.284 1405.96 534.851 1421 C 535.342 1423.87 532.169 1455.84 530.006 1457.78 L 528.043 1456.79 C 517.167 1421.54 527.16 1346.43 550.164 1317.65 z"/>
<path transform="translate(0,0)" fill="rgb(0,0,0)" d="M 705.113 1069.6 C 707.57 1070.67 706.62 1069.84 707.727 1072.43 C 705.888 1081.35 663.262 1144.59 655.934 1152.86 L 654.547 1152.46 C 653.48 1150.66 653.059 1150.79 653.555 1148.94 C 660.954 1121.39 682.697 1086.06 705.113 1069.6 z"/>
<path transform="translate(0,0)" fill="rgb(0,0,0)" d="M 800.981 1278.54 C 812.993 1282.13 832.171 1323.06 836.444 1335.61 C 820.278 1336.24 801.072 1292.57 800.981 1278.54 z"/>
<path transform="translate(0,0)" fill="rgb(0,0,0)" d="M 536.69 1517.34 C 538.675 1518.2 539.828 1518.23 540.66 1520.49 C 547.703 1539.66 554.707 1558.74 562.548 1577.6 C 562.9 1578.45 562.412 1579.82 562.172 1580.68 C 545.025 1568.6 529.009 1538.06 536.69 1517.34 z"/>
<path transform="translate(0,0)" fill="rgb(0,0,0)" d="M 754.194 1015.08 L 755.399 1015.56 L 756.155 1017.42 C 751.591 1028.39 736.308 1043.26 726.55 1049.96 C 724.619 1048.15 725.232 1048.86 723.97 1046.48 C 724.189 1033.13 741.56 1017.68 754.194 1015.08 z"/>
<path transform="translate(0,0)" fill="rgb(0,0,0)" d="M 478.634 1550.58 L 481.091 1552.52 C 484.547 1565.88 460.611 1579 450.238 1583.44 L 448.312 1583.1 L 447.503 1581.59 C 448.901 1576.08 472.442 1556.67 478.634 1550.58 z"/>
<path transform="translate(0,0)" fill="rgb(203,95,40)" d="M 1039.33 884.571 C 1040.71 851.924 1043.06 820.994 1049.78 788.848 C 1055.35 762.187 1057.41 741.522 1079.26 722.55 C 1098.54 705.803 1102.91 703.074 1127.73 697.457 C 1123.69 712.542 1118.07 725.764 1116.32 741.285 C 1112.7 773.298 1120.24 804.549 1116.87 836.463 C 1115.43 850.03 1112.15 860.996 1108.26 873.935 C 1110.37 877.347 1112.82 882.026 1117.15 882.31 C 1134.59 883.452 1158.65 860.23 1167.99 847.98 C 1172.78 878.056 1181.62 907.218 1183.89 937.543 C 1184.2 941.716 1182.26 953.133 1181.53 957.995 C 1180.05 967.906 1176.07 992.552 1194.49 988.522 C 1214.61 984.118 1227.68 973.418 1241.21 958.26 C 1245.3 972.091 1248.86 986.025 1252.67 999.714 C 1260.06 1026.13 1269.97 1053.92 1266.02 1081.73 C 1265.13 1088 1263.05 1104.66 1269.73 1107.16 C 1284.65 1112.75 1307.78 1083.18 1314.89 1074.2 C 1329.35 1110.64 1352.23 1173 1334.87 1210.5 C 1324.69 1232.5 1307.71 1252.88 1299.4 1277.34 C 1294.29 1292.37 1294.41 1300.28 1291.34 1314.66 C 1243.54 1326.8 1206.28 1330.3 1156.8 1327.36 C 1146.93 1326.77 1129.96 1325.72 1120.62 1323.77 C 1118.78 1315.92 1118.49 1305.98 1113.25 1301.52 C 1108.58 1300.73 1107.5 1304.25 1104.94 1308.01 L 1103.81 1307.78 C 1099.59 1293.88 1109.64 1272.99 1105.1 1267.22 C 1099.05 1267.79 1091.25 1278.63 1086.71 1283.35 C 1087.03 1244.47 1107.72 1217.02 1110.58 1188.23 C 1114.96 1144.17 1101.15 1101.07 1105.24 1051.95 C 1106.13 1040.68 1107.57 1029.46 1109.54 1018.34 C 1111.15 1009.48 1116.42 990.016 1112.13 982.702 C 1097.41 979.133 1088.15 1053.59 1086.52 1063.67 C 1079.75 1105.39 1099 1159.21 1086.77 1198.18 C 1078.82 1176.62 1071.09 1156.15 1065.66 1133.77 C 1052.22 1078.36 1043.21 1022.44 1039.7 965.531 C 1039.26 958.391 1038.97 951.263 1038.36 944.109 C 1035.71 924.874 1037.49 903.922 1039.33 884.571 z"/>
<path transform="translate(0,0)" fill="rgb(203,95,40)" d="M 1039.33 884.571 C 1040.53 890.249 1041.01 940.06 1038.36 944.109 C 1035.71 924.874 1037.49 903.922 1039.33 884.571 z"/>
<path transform="translate(0,0)" fill="rgb(0,0,0)" d="M 1144.56 1014.63 L 1145.75 1015.84 C 1146.87 1020.83 1144.91 1041.59 1144.56 1047.95 C 1143.74 1062.39 1143.5 1076.85 1143.85 1091.3 C 1144.11 1099.81 1146.2 1127.41 1143.65 1132.99 L 1142.26 1133.35 L 1139.77 1130.69 C 1130.24 1103.66 1125.59 1038.66 1144.56 1014.63 z"/>
<path transform="translate(0,0)" fill="rgb(0,0,0)" d="M 1085.5 783.524 C 1092.57 790.434 1079.39 849.919 1080.37 862.667 C 1080.64 866.165 1080.03 884.25 1078.65 886.356 L 1077.16 885.75 C 1067.55 855.909 1069.24 810.893 1085.5 783.524 z"/>
<path transform="translate(0,0)" fill="rgb(0,0,0)" d="M 1303.04 1145.37 C 1320.85 1159.5 1296.81 1206.21 1286.62 1220.47 L 1284.69 1222.32 L 1283.88 1221.23 C 1283.68 1211.9 1299.29 1156.5 1303.04 1145.37 z"/>
<path transform="translate(0,0)" fill="rgb(0,0,0)" d="M 1138.64 1252.42 C 1150.21 1263.91 1150.21 1291.71 1146.7 1306.74 C 1134.53 1291.7 1133.4 1270.47 1138.64 1252.42 z"/>
<path transform="translate(0,0)" fill="rgb(203,95,40)" d="M 1293.06 1559.16 L 1294.57 1560.18 C 1297.31 1571.8 1296.69 1587.24 1298.98 1600.21 C 1300.32 1612.72 1323.57 1667.69 1333.27 1672 C 1360.36 1682.83 1376.57 1687.72 1380.4 1720.51 C 1382.99 1742.72 1372.37 1749.71 1352.42 1751.07 C 1353.49 1723.82 1351.52 1694.29 1325.69 1678.09 C 1318.6 1673.64 1298.16 1666.76 1293.11 1676.68 C 1298.91 1681.46 1317.45 1686.51 1321.79 1692.08 C 1335.86 1710.15 1335.79 1726.98 1334.76 1748.21 C 1324.3 1758.54 1301.93 1765.84 1288.03 1754.91 C 1285.8 1753.16 1286.87 1749.69 1287.19 1747.02 C 1291.59 1717.11 1281.35 1689.26 1249.16 1681.99 L 1247.91 1682.29 C 1243.31 1683.44 1240.38 1683.74 1237.98 1687.69 L 1239.08 1689.65 C 1243.33 1692.64 1247.68 1692.84 1252.9 1693.73 C 1271.62 1710.32 1273.4 1730.79 1267.21 1753.52 C 1248.06 1760.71 1228.87 1757.52 1214.06 1742.91 C 1191.96 1721.11 1199.49 1684.33 1191.6 1656.89 C 1187.86 1643.9 1177.69 1632.61 1175.47 1619 C 1173.42 1603.01 1174.09 1584.82 1174.04 1568.64 C 1221.43 1575.13 1247.87 1572.44 1293.06 1559.16 z"/>
<path transform="translate(0,0)" fill="rgb(0,0,0)" d="M 1193.3 1590.65 C 1204.16 1598.83 1208.22 1623.74 1204.99 1636.26 C 1193.67 1629.91 1189.81 1602.36 1193.3 1590.65 z"/>
<path transform="translate(0,0)" fill="rgb(207,129,40)" d="M 965.392 871.349 C 968.967 870.693 967.657 870.197 969.906 871.709 C 967.676 910.381 968.364 939.488 970.503 978.01 C 951.932 977.967 928.772 981.8 909.953 984.29 C 912.593 955.782 909.494 945.038 880.488 957.901 C 877.874 978.394 876.858 1008.26 884.48 1027.58 C 907.819 1027.3 949.276 1017 973.942 1012.68 C 979.921 1047.89 984.897 1086.89 991.841 1121.37 C 972.403 1126.75 952.874 1131.79 933.263 1136.5 C 932.427 1129.11 930.976 1121.32 929.509 1114.03 C 926.304 1098.09 910.711 1105.13 900.478 1108.17 C 899.265 1110.64 898.089 1113.14 896.951 1115.65 C 900.271 1134.69 906.771 1167.26 915.511 1183.91 C 939.937 1182.89 979.306 1168.91 1002.91 1161.17 C 1015.81 1194.48 1026.81 1223.67 1038.08 1257.59 C 1021.79 1263.74 1001.9 1273.23 985.865 1277.91 C 981.459 1260.1 972.916 1244.4 952.931 1255.22 C 948.43 1272.15 952.224 1276.53 959.809 1290.48 C 981.133 1329.69 978.055 1324.39 1015.82 1306.91 C 1028.34 1301.11 1041.01 1295.64 1053.81 1290.5 C 1060.41 1298.76 1062.89 1304.8 1068.54 1313.46 C 1079.69 1330.53 1092.36 1348.2 1101.56 1366.4 C 1089.06 1375.31 1074.27 1384.3 1060.46 1390.7 C 1050.72 1375.7 1031.17 1357.87 1025.51 1386.71 C 1030.93 1397.7 1041.12 1410.01 1049.21 1419.12 C 1045.3 1421.09 1042.67 1422.73 1038.94 1425.07 C 1024.28 1408.1 1012.95 1393.19 999.712 1375.02 C 1003.64 1372.92 1007.99 1370.24 1011.89 1367.96 C 1021.59 1362.4 1031.4 1357.01 1041.3 1351.81 C 1050.24 1360.7 1049.66 1364.35 1062.17 1371.96 C 1087.33 1366.7 1082.82 1357.96 1070.58 1339.62 C 1063.89 1329.59 1057.78 1320.32 1049.05 1311.79 C 1034.01 1314.86 995.386 1335.94 976.837 1342.64 C 960.241 1321.21 934.012 1270.61 923.92 1244.76 C 937.347 1240.44 964.99 1232.31 977.099 1226.53 C 985.773 1241.87 981.394 1253.94 1001.79 1254.91 C 1035.61 1256.5 996.508 1188.6 992.461 1186.57 C 985.871 1183.26 919.756 1204.79 908.277 1208.16 C 893.998 1173.46 884.552 1130.33 876.736 1093.66 C 896.222 1089.3 916.07 1083.67 935.575 1079.96 C 937.941 1091.36 939.945 1104.07 945.593 1114.15 L 946.868 1114.12 C 952.385 1113.94 970.293 1111.67 971.296 1107.45 C 974.507 1093.93 964.647 1049.18 961.668 1037.31 C 943.903 1035.81 890.613 1048.46 869.766 1052.19 C 864.761 1010.23 864.256 983.802 864.924 942.337 C 878.415 940.297 908.622 935.175 921.057 931.573 C 921.227 939.01 920.39 955.923 925.204 961.597 C 929.506 966.666 946.854 964.158 951.794 959.302 C 954.662 950.314 955.668 902 952.08 894.233 C 937.311 888.996 883.634 900.773 866.027 904.158 C 866.912 899.849 868.035 892.546 870.514 889.045 C 870.909 888.488 873.212 886.092 873.561 885.996 C 882.178 883.64 896.298 883.413 904.741 882.055 C 925.27 878.751 945.01 874.621 965.392 871.349 z"/>
<path transform="translate(0,0)" fill="rgb(203,95,40)" d="M 1400.3 1551.1 C 1435.08 1557.82 1470.11 1559.89 1505.32 1555.28 C 1505.11 1561.86 1504.11 1570.93 1503.44 1577.44 C 1501.09 1600.19 1509.46 1639.85 1532.85 1649.6 C 1547.35 1655.14 1562.02 1656.39 1572.67 1669.03 C 1583.52 1681.92 1591.29 1716.98 1575.55 1729.07 C 1568.18 1734.73 1553.57 1731.7 1544.66 1730.67 C 1549.29 1716.72 1550.76 1702.59 1545.1 1688.67 C 1535.41 1664.9 1515.29 1653.03 1490.79 1662.91 C 1490.33 1664.54 1490.76 1664.53 1491.36 1666.7 C 1494.99 1670.96 1507.79 1673.39 1514.29 1676.84 C 1531.46 1685.97 1536.29 1705.56 1527.25 1722.44 C 1522.16 1731.94 1504.65 1733.3 1494.88 1731.76 C 1478.49 1729.16 1459.26 1725.43 1445.06 1716.22 C 1434.91 1709.64 1433.36 1693.17 1431.9 1682.06 C 1439.34 1679.14 1443.87 1676.83 1449 1670.55 C 1458.21 1659.27 1463.1 1638.18 1449.66 1628.19 C 1442.06 1631.81 1444.57 1669.95 1423.05 1663.46 C 1399.52 1656.37 1409.97 1624.44 1405.97 1606.38 C 1403.8 1596.55 1402.04 1593.74 1396.79 1585.49 C 1397.54 1573.98 1398.71 1562.51 1400.3 1551.1 z"/>
<path transform="translate(0,0)" fill="rgb(203,95,40)" d="M 855.857 897.017 C 858.755 901.466 854.085 906.207 859.295 912.226 C 870.716 918.097 928.156 905 944.486 902.128 C 942.442 915.743 943.782 937.152 943.958 951.882 L 931.479 954.498 C 930.959 946.587 932.215 928.957 926.623 923.794 C 917.575 921.276 859.777 928.608 857.889 936.563 C 852.295 960.138 854.504 1004.67 857.55 1028.54 C 858.933 1039.38 861.158 1050.09 864.203 1060.59 C 883.896 1060.52 931.642 1048.42 953.83 1045.7 C 956.681 1064.34 960.346 1082.73 962.503 1101.46 C 958.011 1101.81 954.265 1102.71 949.874 1103.63 C 947.942 1091.33 945.278 1081.68 940.039 1070.45 C 923.222 1071.05 886.988 1080.12 870.4 1085.34 C 870.313 1085.65 870.225 1085.95 870.138 1086.26 L 869.731 1087.82 C 868.964 1090.65 867.985 1093.98 868.214 1096.88 C 869.882 1117.96 890.763 1205.57 904.1 1217.35 C 913.551 1220.2 974.055 1200.3 989.601 1196.46 L 1005.76 1240.39 L 996.972 1246.13 C 992.905 1237.51 988.051 1224.34 980.335 1219.28 C 971.364 1217.97 921.114 1230.75 915.378 1240.75 C 912.37 1246 922.328 1265.33 925.763 1272.66 C 933.212 1288.84 959.322 1341.38 973.272 1351.85 C 980.844 1357.53 1030.33 1329.06 1045.2 1323.39 L 1046.64 1322.85 C 1050.97 1328.97 1068.85 1353.24 1068.15 1359.07 L 1066.31 1360.23 C 1065.07 1360.25 1063.83 1360.27 1062.6 1360.29 C 1059.03 1356.27 1048.59 1342.52 1043.35 1341.65 C 1034.91 1340.24 1015.24 1352.86 1007.94 1357.18 C 1000.83 1361.39 992.501 1366.38 990.036 1373.54 C 991.088 1389.1 1020.81 1417.09 1029.72 1428.9 L 1029.07 1431.02 C 1026.09 1433.49 1027.69 1432.97 1024.41 1433.38 C 1005.24 1414.09 987.472 1393.46 971.248 1371.64 C 945.659 1336.62 923.633 1303.16 908.675 1262.59 C 906.023 1255.4 897.268 1246.39 893.902 1238.33 C 850.452 1134.21 826.768 1015.86 844.327 903.503 L 855.857 897.017 z"/>
<path transform="translate(0,0)" fill="rgb(203,95,40)" d="M 1002.82 807.902 C 1003.49 810.673 1002.05 817.414 1001.57 820.783 C 997.95 846.207 996.407 871.8 995.449 897.339 C 992.026 988.611 1003.29 1076.44 1029.12 1164 C 1040.01 1200.91 1048.96 1228.17 1065.73 1263.49 C 1065.13 1271.17 1064.43 1278.83 1063.6 1286.48 C 1060.66 1284.01 1057.37 1281.51 1054.34 1279.11 C 1033.88 1285.02 1002.18 1301.22 982.824 1311.17 C 977.645 1303.52 960.001 1273.28 960.005 1264.39 C 961.856 1261.79 960.703 1262.88 963.9 1261.36 C 972.968 1263.81 978.155 1293.85 991.877 1288.44 C 1008.43 1281.92 1025.28 1275.15 1041.82 1268.52 C 1050.88 1263.98 1049.97 1255.79 1046.78 1247.85 C 1036.12 1221.32 1027.87 1193.78 1016.51 1167.64 C 1013.69 1161.15 1011.48 1156.65 1007.35 1150.87 C 995.989 1152.09 981.057 1156.63 969.767 1159.75 C 952.076 1165.56 939.344 1169.45 921.02 1173.6 C 914.516 1154.16 910.128 1135.51 905.739 1115.55 C 911.542 1114.77 913.38 1114.43 918.924 1112.62 C 921.112 1119.94 922.223 1143.25 931.365 1145.22 C 941.563 1147.4 1002.95 1132.78 1001.63 1123.51 C 998.48 1101.27 989.25 1018.28 978.564 1004.65 C 965.206 1000.83 908.351 1014.16 891.039 1017.17 C 888.299 1000.14 887.6 982.839 888.957 965.641 L 898.363 962.561 C 901.195 973.5 899.391 985.787 905.024 993.222 C 911.924 997.644 973.954 988.812 978.066 982.161 C 980.862 977.639 976.942 904.591 979.073 893.52 C 980.031 888.544 981.771 861.512 975.16 860.892 C 953.61 858.872 924.162 866.763 902.351 871.155 C 928.839 855.167 957.3 842.016 981.977 823.194 C 988.769 818.014 995.923 812.979 1002.82 807.902 z"/>
<path transform="translate(0,0)" fill="rgb(203,95,40)" d="M 854.898 1642.91 C 872.527 1644.97 889.727 1647.67 907.472 1649.2 C 927.798 1651.08 947.642 1646.17 967.188 1654.22 C 986.87 1662.15 1001.87 1678.91 1003.47 1700.77 C 1004.62 1716.31 1003.16 1720.81 988.793 1726.59 C 989.149 1722.05 989.678 1717.3 989.368 1712.03 C 988.077 1690.04 970.006 1661.22 946.33 1659.9 C 943.42 1659.74 940.959 1662.55 939.201 1664.85 C 938.175 1669.85 965.997 1678.61 968.516 1695.34 C 970.782 1710.39 975.194 1713.42 967.535 1729.79 L 966.953 1731.01 C 962.131 1734.7 958.857 1736.16 953.172 1738.01 C 945.903 1738.29 940.014 1737.46 932.803 1736.66 C 934.233 1726.18 935.202 1719.44 932.496 1707.95 C 927.815 1688.09 908.693 1669.31 887.037 1673.05 C 884.634 1673.46 883.476 1675.3 882.35 1677.24 C 884.834 1681.28 902.932 1686.53 909.489 1696.94 C 916.984 1708.84 917.864 1716.54 915.522 1730.33 C 914.205 1732.33 910.795 1736.7 908.628 1737.71 C 890.952 1746 858.434 1730.94 840.157 1727.04 C 827.118 1724.25 816.475 1722.08 804.673 1719.61 C 805.82 1707.59 807.498 1696.91 812.141 1685.64 C 820.028 1666.2 835.454 1650.79 854.898 1642.91 z"/>
<path transform="translate(0,0)" fill="rgb(203,95,40)" d="M 929.989 1382.82 C 950.622 1410.51 969.395 1435.46 995.773 1458.44 C 987.684 1465.72 976.127 1479.17 969.01 1487.74 C 931.791 1532.6 915.777 1560.85 863.73 1590.96 C 852.157 1597.53 826.716 1606.96 814.001 1611.49 C 820.125 1601.92 831.631 1588.3 838.71 1578.14 C 885.203 1511.47 917.336 1464.52 929.989 1382.82 z"/>
<path transform="translate(0,0)" fill="rgb(207,129,40)" d="M 615.717 1641.28 C 635.019 1639.48 643.411 1642.6 662.035 1647.36 C 653.056 1648.17 629.813 1648.73 626.362 1657.91 L 627.65 1659.33 C 636.476 1661.17 691.808 1660.95 702.873 1659.76 C 708.284 1659.17 724.601 1652.86 730.344 1650.56 C 714.021 1693.18 667.23 1705.56 664.199 1711.58 L 665.14 1712.87 C 675.743 1715.45 684.473 1710.44 694.244 1706.13 C 669.18 1742.25 613.913 1749.42 575.611 1731.47 L 561.039 1723.05 C 592.142 1729.32 627.875 1733.71 650.499 1706.62 C 612.826 1714.59 599.55 1721.17 558.602 1710.01 C 555.095 1709.06 553.896 1709.07 552.355 1706.52 C 557.853 1690.75 600.705 1680 615.924 1677.82 C 618.694 1677.43 620.954 1677.65 622.46 1675.56 C 617.419 1669.76 601.344 1671.22 594.159 1672.11 C 578.174 1674.09 565.208 1680.53 552.003 1689.32 C 563.919 1662.9 587.518 1646.09 615.717 1641.28 z"/>
<path transform="translate(0,0)" fill="rgb(203,95,40)" d="M 255.104 1588.06 C 277.957 1585.49 288.403 1613.02 290.386 1631.42 C 279.119 1637.64 276.762 1640.05 267.867 1649.61 C 263.519 1640.49 262.864 1634.41 260.675 1624.73 C 260.278 1622.98 259.501 1623.22 257.672 1623.04 C 252.711 1626.23 250.94 1642.58 252.365 1648.31 C 257.468 1668.82 271.031 1677.84 288.197 1687.67 C 280.026 1698.37 277.408 1706.51 274.153 1719.3 C 273.5 1723.24 273.192 1727.35 272.815 1731.33 C 230.686 1720.31 167.784 1684.25 194.61 1631.09 C 206.393 1607.75 231.382 1595.78 255.104 1588.06 z"/>
<path transform="translate(0,0)" fill="rgb(207,129,40)" d="M 1616.09 788.468 C 1640.19 787.677 1652.84 798.532 1673.6 809.094 C 1679.37 823.642 1678.56 832.791 1675.26 847.407 L 1666.9 841.185 C 1662.22 852.922 1659.48 860.707 1650.49 869.765 C 1649.72 865.097 1649.1 856.099 1644.59 854.159 C 1641.39 855.843 1636.28 865.327 1632.45 869.273 C 1626.17 875.747 1620.72 878.995 1613.37 883.933 C 1608.73 879.276 1602.92 871.879 1598.58 866.652 C 1595.97 863.091 1593.61 860.842 1589.19 861.728 C 1584.61 866.2 1584.33 874.031 1583.53 880.333 C 1572.38 871.374 1568.95 864.176 1560.39 853.249 C 1552.82 843.592 1546.78 849.622 1541.09 856.086 C 1536.11 846.842 1524.6 823.59 1527.43 813.055 C 1532.42 809.041 1548.91 812.092 1558.65 809.358 C 1579.96 803.38 1594.02 794.526 1616.09 788.468 z"/>
<path transform="translate(0,0)" fill="rgb(203,95,40)" d="M 709.837 1431.61 C 715.439 1433.32 724.846 1438.2 730.596 1440.77 C 745.119 1447.27 758.425 1453.46 773.796 1457.94 C 770.06 1472.23 753.478 1517.83 754.424 1529.73 C 759.351 1539.06 788.674 1545.13 790.486 1541.4 C 799.932 1521.93 807.958 1491.01 813.585 1469.64 C 823.735 1470.78 834.145 1473.1 844.338 1474.32 C 854.66 1475.56 865.099 1475.76 875.49 1476.02 L 866.589 1492.61 C 859.026 1490.77 837.22 1487.53 829.947 1489.07 C 820.241 1497.22 815.261 1524.62 812.43 1536.43 C 808.79 1551.62 815.838 1550.76 828.024 1552.32 L 820.938 1564.25 C 797.891 1562.29 777.023 1558.06 754.775 1552.19 C 719.355 1543 706.2 1535.54 675.026 1517.77 C 679.498 1489.65 682.97 1480.84 695.116 1455.68 C 710.53 1462.98 725.115 1468.87 740.987 1475.04 C 736.539 1488.53 731.983 1502.34 728.743 1516.16 C 721.105 1513.37 713.552 1510.36 706.095 1507.12 C 707.852 1498.85 711.673 1490.4 712.779 1482.11 C 713.047 1480.1 711.275 1479.25 709.824 1478.13 C 700.202 1478.82 695.992 1503.2 695.166 1511.25 C 705.289 1521.07 721.596 1525.93 735.155 1528.35 C 741.914 1508.38 748.15 1491.6 752.379 1470.79 C 742.965 1461.95 714.779 1452.27 700.78 1445.28 C 703.806 1440.98 706.922 1436.04 709.837 1431.61 z"/>
<path transform="translate(0,0)" fill="rgb(207,129,40)" d="M 1037.61 772.755 C 1038.04 774.257 1028.76 844.196 1028.08 853.713 C 1021.53 944.748 1027.76 1027.61 1048.76 1116.46 C 1057.16 1152.01 1063.1 1185.11 1079.77 1218.95 C 1077.88 1223.82 1073.26 1240.05 1069.79 1241.93 L 1068.47 1238.75 C 1024.38 1129.13 1003.92 1011.44 1008.42 893.375 C 1009.93 860.356 1014.54 826.019 1019.47 793.335 C 1025.59 786.543 1031.64 779.682 1037.61 772.755 z"/>
<path transform="translate(0,0)" fill="rgb(203,95,40)" d="M 1052.05 1611.75 C 1087.19 1620.86 1121.75 1604.88 1149.07 1621.78 C 1153.98 1637.93 1163.11 1650.68 1167.51 1666.48 C 1171.72 1681.61 1161.09 1684.64 1149.66 1686.63 C 1152.42 1668.61 1148.61 1649.73 1134.56 1637.05 C 1126.51 1629.75 1115.92 1625.89 1105.07 1626.3 C 1100.77 1628.57 1098.73 1629.38 1097.77 1634.34 C 1101.56 1639.89 1115.19 1640.35 1123.17 1648.53 C 1130.4 1654.38 1132.77 1666.54 1133.41 1675.23 C 1135.11 1696.84 1102.24 1691.75 1089.08 1689.24 C 1067.28 1685.09 1045.92 1683.31 1023.84 1681.4 C 1024.68 1654.56 1034.66 1631.85 1052.05 1611.75 z"/>
<path transform="translate(0,0)" fill="rgb(203,95,40)" d="M 1284.32 1364.22 L 1286.31 1364.67 C 1285.89 1364.01 1287 1471.69 1287.4 1482.68 C 1258.5 1490.37 1239.45 1492.67 1209.74 1493.88 C 1207.85 1474.85 1206.16 1455.79 1204.66 1436.72 C 1212.17 1436.41 1219.67 1435.91 1227.15 1435.24 C 1227.14 1440.92 1226.73 1464.71 1232.06 1467.6 C 1240.9 1472.4 1262.87 1468.69 1270.34 1461.72 C 1273.81 1453.58 1271.24 1396.93 1263.72 1388.67 C 1259.93 1384.51 1237.7 1387.98 1230.25 1388.85 C 1219.19 1390.03 1167.57 1390.03 1162.57 1397.15 C 1152.62 1411.33 1173.11 1483.81 1166.8 1493.95 L 1165.14 1494.07 C 1162.94 1492.18 1163.08 1492.11 1162.27 1489.36 C 1150.86 1450.89 1142.98 1410.63 1132.07 1372.12 C 1192.78 1378.46 1224.29 1376.7 1284.32 1364.22 z"/>
<path transform="translate(0,0)" fill="rgb(203,95,40)" d="M 1576.54 1219.79 C 1577.43 1223.56 1560.26 1303.9 1557.85 1313.78 C 1515.96 1322.05 1474.68 1326.01 1432.13 1321.69 C 1422.84 1320.75 1413.68 1319.44 1404.35 1318.7 C 1410.38 1315.34 1416.53 1311.62 1422.51 1308.11 C 1444.56 1294.74 1452.59 1287.65 1470.84 1269.59 C 1470.89 1279.68 1471.64 1301.5 1484.06 1303.86 C 1489.71 1302.55 1498.32 1288.07 1504.5 1281.69 C 1527.31 1258.11 1552.6 1242.7 1576.54 1219.79 z"/>
<path transform="translate(0,0)" fill="rgb(203,95,40)" d="M 1245 1399.61 C 1248.51 1399.19 1251.58 1398.38 1254.74 1399.67 C 1259.14 1408.3 1259.81 1443.7 1260.18 1454.62 C 1253.99 1455.81 1246.5 1456.68 1240.17 1457.57 C 1239.92 1445.52 1239.71 1438.54 1237.63 1426.67 C 1236.7 1426.33 1235.77 1426.01 1234.84 1425.71 C 1220.66 1421.04 1207.4 1422.21 1194.03 1428.85 C 1190.58 1446.83 1196.29 1486.61 1201.19 1504.22 C 1221.16 1509.12 1246.05 1504.7 1265.76 1500.22 C 1272.42 1498.71 1281.18 1496.41 1287.82 1496.08 C 1289.8 1498.41 1289.28 1499.33 1289.78 1502.96 C 1290 1506.5 1290.14 1507.19 1289.38 1510.78 C 1278.28 1518.51 1250.28 1521.83 1236.87 1523.53 C 1215.02 1526.3 1190.8 1524.26 1168.74 1522.7 C 1161.9 1498.76 1172.92 1509.39 1178.62 1502.41 C 1181.51 1481.8 1174.47 1425.57 1170.33 1404.17 C 1195.29 1403.98 1220.21 1402.45 1245 1399.61 z"/>
<path transform="translate(0,0)" fill="rgb(207,129,40)" d="M 1402.93 1393.49 C 1428.03 1398.9 1453.38 1398.09 1478.94 1398.09 C 1478.34 1412.28 1477.88 1440.46 1475.58 1453.26 C 1470.67 1452.71 1463.57 1452.5 1458.52 1452.22 C 1459.12 1420.92 1459.69 1411.62 1421.36 1418.92 C 1413.45 1420.43 1416.63 1480.2 1417.45 1487.6 C 1434.16 1496.87 1457.96 1495.5 1477 1495.6 C 1518.72 1495.81 1515.28 1487.42 1515.02 1452.13 C 1516.1 1433.64 1517.82 1415.19 1520.17 1396.82 L 1539.59 1393.94 C 1528.73 1431.07 1519.9 1468.76 1513.15 1506.86 C 1507.94 1507.28 1501.87 1508.04 1496.64 1508.76 C 1465.34 1513.04 1434.86 1510.43 1403.86 1504.62 C 1403.08 1498.92 1403.11 1493.35 1402.8 1487.62 C 1401.07 1456.09 1401.72 1425 1402.93 1393.49 z"/>
<path transform="translate(0,0)" fill="rgb(203,95,40)" d="M 1392.81 1363.63 C 1450.64 1373.9 1489.96 1370.98 1546.9 1363.32 C 1545.84 1369.56 1543.98 1375.24 1542.16 1381.3 C 1530.1 1382.27 1521.34 1382.62 1510.49 1388.21 C 1503.98 1408.49 1502.81 1458.8 1502.1 1481.47 C 1485.33 1483.01 1470.08 1483.68 1453.24 1482.28 C 1445.12 1481.59 1436.98 1481.12 1428.83 1480.89 C 1428.26 1463.51 1428.01 1446.12 1428.08 1428.73 C 1434.35 1428.9 1440.62 1429.05 1446.9 1429.16 C 1447.03 1438.39 1444.22 1450.87 1448.22 1458.86 C 1452.2 1466.81 1478.58 1466.98 1484.48 1462.67 C 1490.93 1451.48 1493.56 1398.87 1485.94 1389.03 C 1470.46 1382.51 1413.03 1383.76 1394.07 1383.82 C 1393.52 1377.1 1393.1 1370.37 1392.81 1363.63 z"/>
<path transform="translate(0,0)" fill="rgb(203,95,40)" d="M 668.262 1560.28 C 713.459 1585.61 741.359 1594.65 792.384 1602.39 C 790.215 1606.55 788.215 1610.88 786.192 1615.13 C 776.568 1617.66 761.949 1626.01 757.753 1626.87 L 757.653 1624.49 C 753.409 1617.18 748.523 1614.3 740.695 1618.69 C 719.655 1630.5 710.821 1642.14 685.598 1631.12 C 677.724 1627.68 658.105 1621.46 649.162 1619.56 L 647.67 1619.25 C 658.587 1599.48 663.885 1582.43 668.262 1560.28 z"/>
<path transform="translate(0,0)" fill="rgb(0,0,0)" d="M 682.553 1588.74 C 689.483 1596.2 677.578 1615.42 670.044 1620.43 C 663.554 1609.02 674.718 1596.46 682.553 1588.74 z"/>
<path transform="translate(0,0)" fill="rgb(207,129,40)" d="M 829 914.057 C 830.09 916.686 827.192 946.033 826.89 951.498 C 825.752 972.096 825.823 992.742 827.104 1013.33 C 831.677 1085.73 847.273 1149.9 872.067 1217.69 C 868.661 1215.43 865.134 1213.2 861.693 1210.98 L 849.869 1204.63 C 827.088 1139.31 810.617 1068.79 808.938 999.428 C 808.322 973.999 810.178 950.315 811.293 925.018 C 817.604 919.866 821.803 917.622 829 914.057 z"/>
<path transform="translate(0,0)" fill="rgb(207,129,40)" d="M 1759.42 411.188 C 1763.4 410.785 1767.39 410.574 1771.39 410.557 C 1781.34 410.529 1790.88 414.526 1797.83 421.637 C 1816.7 441.036 1812.09 476.523 1798.19 497.384 C 1794.01 503.653 1790.22 507.511 1784.82 512.771 C 1778.94 505.878 1773.01 499.025 1767.04 492.214 C 1772.77 487.913 1775.88 484.623 1780.9 479.524 C 1777.28 474.967 1775.05 472.763 1770.97 468.8 C 1764.36 464.067 1758 459.88 1751.18 455.447 C 1757.82 449.917 1762 446.538 1769.35 442.158 C 1775.29 442.909 1781.05 444.494 1785.42 439.79 C 1786.1 433.34 1779.04 431.055 1773.64 430.391 C 1757.11 428.359 1750.34 438.895 1738.7 447.625 C 1729.69 442.816 1724.41 441.34 1714.49 439.284 C 1730.85 423.869 1737.08 416.358 1759.42 411.188 z"/>
<path transform="translate(0,0)" fill="rgb(203,95,40)" d="M 723.253 1410.45 C 731.416 1413.07 745.687 1421.19 755.287 1424.72 C 803.022 1442.28 837.456 1448.16 887.909 1448.77 C 884.332 1456.26 882.973 1459.72 880.461 1467.63 C 858.955 1465.9 840.044 1462.51 818.874 1458.93 C 812.926 1457.93 811.784 1458.31 807.112 1461.97 C 800.449 1472.68 788.428 1515.89 783.519 1530.93 C 778.34 1528.79 771.868 1527 766.436 1525.33 C 772.453 1503.2 781.423 1474.8 783.669 1452.54 C 783.613 1452.49 783.555 1452.44 783.501 1452.39 C 773.658 1443 732.652 1430.7 716.268 1421.9 L 723.253 1410.45 z"/>
<path transform="translate(0,0)" fill="rgb(203,95,40)" d="M 331.833 1701.75 C 354.138 1709.42 389.352 1711.6 412.904 1712.99 C 412.046 1726.73 412.356 1733.66 414.535 1747.22 L 405.119 1747.69 C 370.301 1747.59 354.05 1747.26 320.129 1741.33 C 319.623 1725.6 321.229 1713.87 331.833 1701.75 z"/>
<path transform="translate(0,0)" fill="rgb(203,95,40)" d="M 946.347 1552.64 C 958.205 1558.18 970.53 1562.67 983.177 1566.04 C 973.058 1576.74 970.2 1579.26 956.936 1586.76 C 939.882 1596.4 929.06 1609.07 922.85 1627.87 C 913.871 1628.37 904.864 1628.05 895.943 1626.92 C 886.488 1626.19 865.574 1621.96 855.236 1620.21 C 890.493 1605.79 921.3 1581.05 946.347 1552.64 z"/>
<path transform="translate(0,0)" fill="rgb(207,129,40)" d="M 1286.28 1330.21 L 1288.38 1330.35 C 1291.4 1334.32 1289.49 1344.91 1289.01 1350.36 C 1275.22 1351.9 1257.22 1357.15 1242.27 1359.18 C 1203.14 1364.5 1167.9 1362.07 1128.62 1359.77 C 1127.85 1353.42 1125.11 1342.97 1123.6 1336.45 C 1175.47 1347.58 1234.81 1341.41 1286.28 1330.21 z"/>
<path transform="translate(0,0)" fill="rgb(207,129,40)" d="M 737.167 1382.66 C 760.481 1398.22 829.097 1413.97 858.638 1417.25 C 872.018 1418.62 885.481 1419 898.915 1418.36 C 896.776 1424.66 894.601 1430.93 892.389 1437.2 C 835.175 1436.27 781.471 1424.7 729.775 1399.66 C 732.252 1393.14 734.086 1388.92 737.167 1382.66 z"/>
<path transform="translate(0,0)" fill="rgb(207,129,40)" d="M 1392.36 1329.3 C 1439.53 1342.73 1505.47 1336.23 1553.38 1329.42 C 1553.14 1335.6 1551.81 1341.65 1550.7 1347.75 C 1522.19 1354.81 1490.04 1357.3 1460.65 1356.25 C 1451.08 1355.91 1396.75 1352.49 1392.07 1348.06 C 1389.69 1342.02 1391.34 1335.71 1392.36 1329.3 z"/>
<path transform="translate(0,0)" fill="rgb(203,95,40)" d="M 367.803 1567.29 C 369.967 1566.95 371.453 1566.22 373.065 1567.94 C 383.408 1579.03 386.49 1601.29 388.447 1614.9 C 371.638 1615.81 349.793 1618.39 333.244 1620.45 L 330.486 1620.83 C 327.935 1618.87 326.625 1599.09 323.601 1593.02 C 319.458 1584.7 320.004 1584.28 313.388 1576.77 C 332.309 1574.96 349.22 1571.17 367.803 1567.29 z"/>
<path transform="translate(0,0)" fill="rgb(207,129,40)" d="M 673.526 1529.5 C 713.823 1556.13 765.522 1570.02 813.183 1575.57 C 810.204 1579.11 807.015 1583.72 804.235 1587.51 L 801.913 1590.29 C 796.68 1591.52 784.333 1588.9 778.584 1587.81 C 736.092 1579.75 706.573 1568.46 669.369 1547.26 C 670.601 1541.44 672.153 1535.32 673.526 1529.5 z"/>
<path transform="translate(0,0)" fill="rgb(203,95,40)" d="M 1042.56 1450.74 L 1043.54 1450.99 C 1053.87 1453.69 1076.43 1455.91 1087.9 1457.34 L 1080.81 1471.54 C 1072.43 1471.33 1048.53 1465.38 1044.46 1471.82 C 1038.66 1481.01 1025.71 1509.5 1026.54 1519.65 C 1028.57 1523.56 1030.44 1524.03 1034.5 1526.3 C 1031.6 1529.07 1028.62 1531.37 1025.5 1533.86 C 1016.51 1533.3 980.258 1525.91 974.501 1519.75 C 974.853 1516.97 978.024 1513.83 979.981 1511.47 C 991.551 1515.94 995.034 1516.21 1007.62 1516.81 C 1015.81 1501.63 1026.46 1474.78 1031.96 1458.35 C 1035.52 1455.32 1038.7 1453.31 1042.56 1450.74 z"/>
<path transform="translate(0,0)" fill="rgb(207,129,40)" d="M 1288.51 1526.06 C 1290.06 1525.74 1289.51 1525.92 1291.37 1526.52 C 1293.41 1531.91 1293.52 1538.93 1294 1544.84 C 1244.55 1558.02 1226.8 1559.1 1175.95 1555.79 C 1175.08 1555.66 1174.32 1555.12 1173.46 1554.66 C 1171.76 1549.85 1171.13 1542.09 1170.46 1536.81 C 1222.05 1541.2 1238.14 1540.7 1288.51 1526.06 z"/>
<path transform="translate(0,0)" fill="rgb(203,95,40)" d="M 535.646 1700.22 L 536.634 1701.06 C 537.033 1711.02 538.579 1716.95 543.533 1725.39 C 521.773 1732.6 487.994 1740.52 465.234 1742.4 C 462.891 1742.78 463.987 1743.02 461.972 1741.57 C 457.768 1732.96 458.75 1722.36 460.162 1713.17 C 492.598 1710.61 504.468 1709.54 535.646 1700.22 z"/>
<path transform="translate(0,0)" fill="rgb(207,129,40)" d="M 818.361 1634.78 C 823.273 1634.5 830.78 1637.11 835.737 1638.53 C 804.431 1658.4 795.971 1684.51 791.715 1719.45 C 785.303 1719 780.227 1718.06 773.906 1716.96 C 774.897 1708.56 775.775 1703.17 777.592 1694.93 C 777.728 1693.19 778.247 1690.6 777.506 1689.31 C 773.532 1682.39 752.928 1677.57 744.469 1674.37 C 747.158 1669.54 749.38 1664.87 751.77 1659.9 C 762.384 1663.76 772.97 1667.7 783.527 1671.71 C 787.552 1667.52 792.376 1660.45 796.165 1655.61 C 803.486 1646.25 808.978 1641.78 818.361 1634.78 z"/>
<path transform="translate(0,0)" fill="rgb(207,129,40)" d="M 1403.29 1518.74 C 1410.82 1519.1 1424.46 1521.65 1432.93 1522.65 C 1461.65 1526.02 1482.95 1526.04 1511.28 1520.56 C 1510.05 1527.54 1509.38 1532.67 1508.72 1539.73 C 1504.99 1543.08 1489.93 1543.14 1484.52 1543.41 C 1456.38 1544.81 1429.71 1542 1402.04 1537.36 C 1402.67 1531.65 1402.93 1524.57 1403.29 1518.74 z"/>
<path transform="translate(0,0)" fill="rgb(207,129,40)" d="M 971.322 1590.7 C 974.505 1590.96 977.996 1592.17 979.026 1595.27 C 976.065 1600.97 959.543 1612.57 962.739 1617.05 C 967.438 1623.63 996.153 1629.67 1003.52 1631.38 C 1012.27 1620.44 1012.71 1617.27 1024.17 1607.44 C 1028.89 1608.54 1034.34 1609.4 1039.16 1610.27 C 1029.74 1620.65 1027.8 1624.75 1021.21 1637.61 C 1017.3 1644.81 1014.95 1654.95 1012.85 1663.02 C 989.259 1633.38 972.795 1628.88 936.226 1626.77 C 943.628 1610.54 956.115 1599.48 971.322 1590.7 z"/>
<path transform="translate(0,0)" fill="rgb(207,129,40)" d="M 929.232 1333.8 C 931.428 1335.82 943.507 1354.76 946.082 1358.42 C 959.833 1377.93 973.469 1396.8 989.3 1414.74 C 993.912 1419.97 1012.31 1436.76 1013.4 1441.9 L 1011.07 1444.69 C 1008.61 1447.17 1008.41 1447.5 1005.36 1449.46 C 994.979 1446.18 939.418 1374.21 930.298 1361.2 L 929.232 1333.8 z"/>
<path transform="translate(0,0)" fill="rgb(203,95,40)" d="M 1589.7 689.392 C 1603.72 686.929 1618.61 692.334 1632.87 692.761 C 1644.06 693.096 1652.29 689.768 1663.02 688.872 C 1665.78 688.642 1667.14 689.447 1668.66 691.189 C 1665.39 695.225 1658.45 692.099 1647.55 704.96 L 1646.61 706.078 C 1642.17 713.688 1641.99 718.116 1635.71 727.184 L 1625.44 731.946 C 1618.02 724.601 1617.41 719.118 1615.24 709.085 C 1612.03 694.294 1592.48 698.571 1589.7 689.392 z"/>
<path transform="translate(0,0)" fill="rgb(207,129,40)" d="M 403.855 1557.14 L 405.119 1557.31 C 416.419 1566.55 421.706 1596.59 423.3 1610.66 L 405.51 1613.33 C 399.264 1613.3 399.951 1612.38 399.384 1606.14 C 397.845 1589.22 393.026 1577.93 385.636 1562.82 L 403.855 1557.14 z"/>
<path transform="translate(0,0)" fill="rgb(207,129,40)" d="M 298.828 1692.64 C 302.435 1693.36 313.485 1697.36 317.526 1698.72 C 312.16 1707.28 308.928 1717.01 308.101 1727.08 C 307.806 1731.04 308.275 1735.85 306.696 1739.16 C 298.435 1737.49 293.458 1736.25 285.446 1733.71 C 286.183 1717.38 289.25 1705.93 298.828 1692.64 z"/>
<path transform="translate(0,0)" fill="rgb(203,95,40)" d="M 737.932 1683.65 C 746.178 1687.99 756.107 1690.94 765.026 1693.93 C 763.565 1701.69 764.543 1708.86 761.345 1714.8 C 757.978 1716.6 758.335 1715.89 753.755 1715.49 C 743.166 1714.29 732.586 1713.02 722.015 1711.67 C 727.855 1702.2 731.011 1693.93 737.932 1683.65 z"/>
<path transform="translate(0,0)" fill="rgb(203,95,40)" d="M 833.601 1498.95 C 840.121 1501.15 852.277 1502.86 859.46 1504.09 C 852.993 1514.15 846.409 1525.44 840.131 1535.72 L 834.944 1541.89 C 829.949 1541.32 825.251 1540.5 820.303 1539.66 C 823.841 1528.19 828.936 1509 833.601 1498.95 z"/>
<path transform="translate(0,0)" fill="rgb(207,129,40)" d="M 293.235 1580.4 C 312.117 1578.19 315.184 1611.34 315.436 1624.28 L 301.502 1627.76 C 298.697 1606.58 295.467 1596.49 278.442 1582.67 C 283.472 1581.5 288.127 1581.03 293.235 1580.4 z"/>
<path transform="translate(0,0)" fill="rgb(203,95,40)" d="M 787.632 1627.1 C 791.669 1626.16 801.508 1629 805.906 1630.06 C 790.294 1641.49 788.981 1648.36 778.586 1657.4 L 776.656 1656.97 C 770.674 1654.51 756.674 1651.92 754.856 1646.36 C 757.629 1637.55 779.153 1629.33 787.632 1627.1 z"/>
<path transform="translate(0,0)" fill="rgb(207,129,40)" d="M 964.687 1529.42 C 979.03 1536.26 998.347 1540.57 1014.07 1543.74 L 1000.24 1554.21 L 994.823 1558.3 C 981.273 1553.67 967.737 1549.65 955.377 1542.42 C 959.329 1537.56 961.314 1534.69 964.687 1529.42 z"/>
<path transform="translate(0,0)" fill="rgb(203,95,40)" d="M 1107.13 1375.12 C 1109 1377.38 1109.91 1383.01 1110.64 1386.12 C 1096.69 1395.28 1073.42 1407.52 1057.84 1413.61 C 1054.09 1408.34 1046.11 1399.63 1041.77 1394.63 C 1039.64 1391.43 1035.7 1387.26 1038.42 1383.8 C 1043.08 1385.05 1055.17 1401.24 1060.8 1401.01 C 1071.69 1400.59 1098.48 1381 1107.13 1375.12 z"/>
<path transform="translate(0,0)" fill="rgb(203,95,40)" d="M 1581.96 1655.8 C 1606.44 1660.93 1623.84 1694.72 1611.56 1716.73 C 1608.84 1719.23 1608.68 1719.39 1605.5 1721.23 C 1604.86 1721.05 1604.21 1720.88 1603.56 1720.71 C 1602.06 1715.57 1602.82 1698.88 1602.11 1694.31 C 1599.54 1677.89 1591.45 1668.05 1581.96 1655.8 z"/>
<path transform="translate(0,0)" fill="rgb(207,129,40)" d="M 1807.81 520.342 C 1810.26 522.256 1830.27 549.548 1834.01 554.272 C 1829.71 554.087 1825.42 553.867 1821.13 553.613 C 1816.03 552.956 1810.94 552.271 1805.85 551.556 C 1798.67 544.355 1796.49 541.194 1792.25 532.197 C 1798.86 527.807 1802.09 525.728 1807.81 520.342 z"/>
<path transform="translate(0,0)" fill="rgb(207,129,40)" d="M 425.403 1714.02 L 445.931 1714.11 C 445.676 1724.49 446.825 1733.22 448.073 1743.5 L 446.936 1744.72 C 440.71 1745.18 433.888 1746.03 427.628 1746.68 C 424.536 1732.39 424.719 1728.96 425.403 1714.02 z"/>
<path transform="translate(0,0)" fill="rgb(203,95,40)" d="M 1053.09 1479.14 C 1060.25 1480 1066.82 1481.04 1073.94 1482.25 C 1066.9 1491.61 1059.29 1500.37 1051.72 1509.3 C 1048.82 1512.72 1046.29 1515.45 1041.66 1516.06 L 1040.41 1514.95 C 1039.96 1507.48 1049.76 1487.12 1053.09 1479.14 z"/>
<path transform="translate(0,0)" fill="rgb(207,129,40)" d="M 1081.49 1429.09 C 1087.33 1428.66 1092.13 1428.95 1097.93 1429.21 L 1094.12 1444.54 L 1081.25 1444.12 C 1074.32 1443.97 1066.09 1443.22 1059.07 1442.74 C 1066.97 1437.06 1073.01 1433.79 1081.49 1429.09 z"/>
<path transform="translate(0,0)" fill="rgb(203,95,40)" d="M 990.827 1599.72 C 996.89 1600.44 1004.45 1602.92 1010.47 1604.66 L 998.9 1619.55 C 991.394 1616.01 985.876 1615 977.791 1613.23 C 981.722 1608.59 986.497 1604.05 990.827 1599.72 z"/>
<path transform="translate(0,0)" fill="rgb(203,95,40)" d="M 1013.03 1474.86 C 1013.39 1475.22 1013.14 1474.89 1013.74 1476.46 C 1011.31 1482.57 1005.08 1499.38 1001.49 1504.02 C 998.057 1504.73 994.72 1503.4 991.254 1502.44 L 989.475 1501.61 C 989.777 1496.7 1008.46 1478.66 1013.03 1474.86 z"/>
</svg>