<svg width="113" height="106" viewBox="0 0 113 106" xmlns="http://www.w3.org/2000/svg">
  <g stroke="none" stroke-width="1" fill="none" fill-rule="evenodd">
    <path d="M51.921 10.594c-.267 0-.532-.102-.736-.306-2.75-2.752-2.75-7.231 0-9.983.407-.406 1.064-.406 1.47 0 .406.406.406 1.065 0 1.471-1.94 1.941-1.94 5.1 0 7.042.406.406.405 1.064 0 1.47-.203.204-.468.306-.735.306" fill="#2F5266"/>
    <path d="M46.173 10.594c-.267 0-.532-.102-.736-.306-2.75-2.752-2.75-7.231 0-9.983.407-.406 1.064-.406 1.47 0 .406.406.406 1.065 0 1.471-1.94 1.941-1.94 5.1 0 7.042.406.406.405 1.064 0 1.47-.203.204-.468.306-.735.306" fill="#2F5266"/>
    <path d="M93.647 91.093c-6.72 0-12.188-5.47-12.188-12.195 0-.575.466-1.04 1.04-1.04s1.04.465 1.04 1.04c0 5.577 4.535 10.114 10.108 10.114 5.574 0 10.11-4.537 10.11-10.115 0-.574.466-1.04 1.04-1.04.573 0 1.04.466 1.04 1.04 0 6.725-5.469 12.196-12.19 12.196" fill="#2F5266"/>
    <path d="M59.205 104.806H37.127c0-4.31 3.492-7.804 7.8-7.804V75.542" fill="#FEFEFE"/>
    <path d="M59.205 105.846H37.127a1.04 1.04 0 01-1.04-1.04c0-4.526 3.414-8.267 7.8-8.783V75.543c0-.574.466-1.04 1.04-1.04.574 0 1.04.466 1.04 1.04v21.459c0 .575-.466 1.04-1.04 1.04-3.374 0-6.179 2.486-6.68 5.724h20.958c.574 0 1.04.466 1.04 1.04 0 .575-.466 1.04-1.04 1.04" fill="#2F5266"/>
    <path d="M78.779 84.608s8.449-4.756 8.184-9.434l-.001-.005c-.265-4.678 3.6-8.546 8.276-8.28h.003c4.676.265 8.54-3.603 8.275-8.28-.265-4.68 3.6-8.549 8.277-8.281H60.26l18.519 34.28z" fill="#E14E3A"/>
    <path d="M62.002 51.369l17.174 31.786c2.533-1.607 6.891-4.994 6.751-7.898l-.003-.029c-.143-2.526.8-5 2.588-6.79 1.787-1.787 4.251-2.732 6.785-2.588 1.936.117 3.83-.612 5.199-1.982 1.37-1.37 2.093-3.266 1.983-5.201-.144-2.526.799-5 2.587-6.79.178-.179.363-.347.555-.509H62.002zm16.777 34.28a1.04 1.04 0 01-.29-.042 1.04 1.04 0 01-.625-.505L59.344 50.823a1.04 1.04 0 011.915-1.026h51.534c.327-.018.653-.016.98.001.562.033.996.506.979 1.068a1.04 1.04 0 01-1.039 1.011h-.862c-1.647.101-3.215.8-4.394 1.98a6.762 6.762 0 00-1.982 5.2c.143 2.527-.799 5.001-2.587 6.79-1.79 1.789-4.264 2.729-6.786 2.588a6.76 6.76 0 00-5.199 1.982 6.768 6.768 0 00-1.984 5.175l.003.031c.293 5.175-7.791 9.878-8.713 10.397a1.03 1.03 0 01-.51.135z" fill="#2F5266"/>
    <path d="M88.763 77.568C72.325 61.295 54.757 44.15 54.757 44.15l-4.778 4.78c-11.099 11.106-11.099 29.111 0 40.217l15.65 15.66h11.938c14.216 0 21.302-17.233 11.196-27.238" fill="#FEFEFE"/>
    <path d="M66.06 103.766h11.508c6.149 0 11.42-3.535 13.758-9.225 2.338-5.689 1.075-11.908-3.293-16.233-14.363-14.218-29.766-29.275-33.268-32.696l-4.051 4.054a33.144 33.144 0 00-8.02 21.373 33.157 33.157 0 008.02 19.373l15.346 15.354zm11.508 2.08H65.63a1.04 1.04 0 01-.735-.304L49.244 89.882a35.16 35.16 0 01-8.629-20.844 35.173 35.173 0 018.628-20.845l4.778-4.78a1.04 1.04 0 011.462-.009c.175.171 17.759 17.335 34.012 33.424 4.98 4.93 6.417 12.019 3.755 18.503-2.666 6.485-8.674 10.514-15.682 10.514z" fill="#2F5266"/>
    <path d="M68.243 104.806H46.165c0-4.31 3.492-7.804 7.8-7.804V78.45" fill="#FEFEFE"/>
    <path d="M68.243 105.846H46.165a1.04 1.04 0 01-1.04-1.04c0-4.526 3.415-8.267 7.8-8.783V78.45c0-.575.466-1.04 1.04-1.04.574 0 1.04.465 1.04 1.04v18.551c0 .575-.466 1.04-1.04 1.04-3.374 0-6.179 2.486-6.68 5.724h20.958c.574 0 1.04.466 1.04 1.04 0 .576-.466 1.041-1.04 1.041" fill="#2F5266"/>
    <path d="M72.119 105.846H58.433a1.04 1.04 0 01-1.04-1.04c0-4.526 3.414-8.267 7.8-8.784V90.63c0-8.144 6.622-14.771 14.762-14.771.574 0 1.04.465 1.04 1.04 0 .574-.466 1.04-1.04 1.04-6.993 0-12.682 5.694-12.682 12.691v6.371c0 .575-.466 1.041-1.04 1.041-3.374 0-6.179 2.486-6.68 5.724h12.566c.574 0 1.04.466 1.04 1.04 0 .576-.467 1.041-1.04 1.041" fill="#2F5266"/>
    <path d="M57.418 52.649l-5.879 5.882c-11.9 11.907-31.195 11.907-43.096 0L1.04 51.122 37.885 14.254c2.997-2.998 7.056-4.687 11.292-4.7 6.434-.02 12.307 3.789 14.795 9.724 4.647 11.08 2.462 24.35-6.554 33.371" fill="#FEFEFE"/>
    <path d="M9.053 43.103L1.04 51.121l7.404 7.41c.2.198.406.386.61.579V43.103z" fill="#E14E3A"/>
    <path d="M2.51 51.122l6.67 6.674c11.476 11.483 30.15 11.483 41.624 0l5.878-5.882c8.494-8.5 10.98-21.151 6.332-32.233-2.317-5.524-7.724-9.087-13.786-9.087h-.047c-3.989.013-7.739 1.573-10.561 4.396L2.509 51.122zm27.482 17.365c-8.07 0-16.139-3.073-22.282-9.22L.304 51.859a1.04 1.04 0 010-1.472L37.15 13.518c3.212-3.213 7.483-4.99 12.024-5.004h.055c6.902 0 13.061 4.062 15.703 10.362 4.975 11.864 2.315 25.41-6.778 34.51L52.274 59.266c-6.143 6.147-14.213 9.22-22.283 9.22z" fill="#2F5266"/>
    <path d="M13.328 38.826h52.015a27.91 27.91 0 00.502-17.17H30.487L13.328 38.827z" fill="#E14E3A"/>
    <path d="M2.51 51.122l6.67 6.674c11.476 11.483 30.15 11.483 41.624 0l5.878-5.882c8.494-8.5 10.98-21.151 6.332-32.233-2.317-5.524-7.724-9.087-13.786-9.087h-.047c-3.989.013-7.739 1.573-10.561 4.396L2.509 51.122zm27.482 17.365c-8.07 0-16.139-3.073-22.282-9.22L.304 51.859a1.04 1.04 0 010-1.472L37.15 13.518c3.212-3.213 7.483-4.99 12.024-5.004h.055c6.902 0 13.061 4.062 15.703 10.362 4.975 11.864 2.315 25.41-6.778 34.51L52.274 59.266c-6.143 6.147-14.213 9.22-22.283 9.22z" fill="#2F5266"/>
    <path d="M34.306 63.335c-1.774 0-3.442-.692-4.697-1.948a1.04 1.04 0 011.471-1.47 4.62 4.62 0 003.226 1.338 4.62 4.62 0 003.227-1.339c1.78-1.78 1.78-4.676 0-6.458a1.04 1.04 0 011.47-1.47 6.587 6.587 0 010 9.4 6.587 6.587 0 01-4.697 1.947" fill="#2F5266"/>
    <circle fill="#FEFEFE" cx="32.123" cy="30.241" r="2.696"/>
    <circle fill="#FEFEFE" cx="43.437" cy="30.241" r="2.696"/>
    <path d="M65.007 45.69h-2.866c-5.813 0-10.527-4.716-10.527-10.534V16.733h15.085c4.879 0 8.836 3.959 8.836 8.841v10.082c0 5.818-4.713 10.534-10.528 10.534" fill="#FEFEFE"/>
    <path d="M52.654 17.773v17.383c0 5.234 4.255 9.493 9.487 9.493h2.866c5.232 0 9.488-4.26 9.488-9.493v-9.582c0-4.301-3.498-7.801-7.796-7.801H52.654zM65.007 46.73h-2.866c-6.378 0-11.566-5.192-11.566-11.574V16.733c0-.574.465-1.04 1.04-1.04h15.084c5.445 0 9.876 4.433 9.876 9.881v9.582c0 6.382-5.19 11.574-11.568 11.574z" fill="#2F5266"/>
  </g>
</svg>
