<svg version="1.1" xmlns="http://www.w3.org/2000/svg" viewBox="0 0 2048 2048" width="1024" height="1024">
<path transform="translate(0,0)" fill="rgb(0,0,0)" d="M 1455.51 266.422 L 1456.82 266.41 C 1498.24 266.212 1544.02 281.426 1573.51 310.893 C 1593.74 290.404 1628.4 280.464 1656.54 281.243 C 1665.7 281.496 1692.16 281.565 1690.57 295.764 C 1689.69 303.644 1678.68 310.001 1672.75 314.009 C 1683.03 314.084 1696.47 314.535 1706.6 316.972 C 1721.47 320.549 1736.18 328.422 1751.02 332.852 C 1758.4 335.053 1769.92 337.192 1776.55 341.388 C 1778.16 342.405 1779.23 347.405 1778.93 349.818 C 1778.01 357.019 1770.75 361.951 1765.35 366.257 C 1777.53 373.384 1782.05 380.551 1791.79 390.077 C 1796.05 393.626 1802.12 395.956 1806.64 398.959 C 1839.69 420.912 1838.39 468.401 1822.17 499.42 C 1825.76 506.304 1832.64 520.368 1837.77 525.695 C 1858.68 547.42 1886.26 560.825 1836.61 574.269 C 1856.74 612.363 1857.19 642.055 1867.07 682.504 C 1869.69 693.24 1888.33 713.689 1884.84 723.71 C 1880.14 737.24 1853.64 730.079 1843.84 726.058 C 1849.86 766.664 1831.62 816.54 1834.81 857.875 C 1834.25 867.194 1844.6 888.539 1838.49 896.233 C 1828.46 908.89 1805.99 888.42 1799.63 882.336 C 1795.18 900.197 1790.99 923.47 1782.34 939.248 C 1767.61 966.094 1760.91 982.205 1755.55 1012.27 C 1751.42 1035.43 1736.22 1061.12 1733.38 1085.46 C 1732.33 1094.45 1732.25 1111.02 1727.38 1117.97 C 1713.04 1127.32 1702.52 1109.7 1694.64 1099.59 C 1678.56 1134.82 1652.26 1164.06 1639.03 1199.96 C 1631.91 1219.28 1629.05 1268.27 1602.11 1223.49 C 1595.85 1245.2 1592.8 1264.41 1588.53 1286.53 C 1583.87 1310.24 1578.96 1333.9 1573.8 1357.51 C 1561.94 1410.84 1546.4 1463.61 1536.62 1517.51 C 1531.37 1546.4 1520.14 1588.86 1534.18 1616.43 C 1541.32 1630.44 1557.53 1631.56 1571.43 1631.3 C 1595.98 1631.07 1618.32 1641.33 1630.24 1663.71 C 1642.88 1687.41 1647.53 1725.58 1619.79 1740.89 C 1612.84 1744.73 1604.3 1744.24 1598.72 1746.7 C 1573.56 1757.8 1557.5 1759.69 1530.96 1751.62 C 1501.98 1762.02 1450.71 1751.46 1425.72 1733.37 C 1410.9 1722.65 1409.15 1702.37 1407.5 1685.54 C 1378.17 1666.13 1383.27 1645.48 1384.02 1615.66 C 1365.22 1583.09 1373.26 1574.4 1377.44 1540.24 C 1385.19 1476.84 1368.98 1412.15 1367.64 1348.5 C 1367.3 1332.33 1346.54 1358.14 1346.05 1320.6 C 1335.4 1326.63 1326.41 1330.95 1315.36 1336.18 C 1312.98 1349.03 1313.11 1363.62 1311.99 1376.62 C 1307.15 1433.15 1313.47 1488.63 1318.6 1544.87 C 1320.33 1563.93 1320.81 1587.67 1325.31 1606 C 1328.49 1618.96 1341.77 1639.89 1348.91 1651.77 C 1366.09 1658.45 1376.97 1662.56 1388.84 1677.99 C 1406.89 1701.42 1412.96 1746.69 1386.76 1766.55 C 1375.74 1774.91 1360.69 1774.87 1347.4 1772.92 C 1320.25 1787.11 1304.03 1784.92 1274.88 1776.74 C 1273.31 1777.26 1271.74 1777.77 1270.16 1778.27 C 1236.09 1788.98 1192.97 1771.85 1179.68 1737.63 C 1171.43 1716.39 1173.2 1691.1 1168.49 1668.58 C 1164.82 1651.06 1155.67 1642.21 1150.9 1625.7 C 1149.44 1620.21 1150.15 1596.69 1150.12 1589.73 C 1150.07 1576.64 1149.14 1563.57 1147.35 1550.6 C 1140.28 1496.2 1121.96 1441.56 1110.87 1387.84 C 1107.98 1373.82 1105.03 1358.32 1100.8 1344.73 C 1079.74 1335.74 1086.98 1316.68 1080.23 1314.07 C 1067.91 1309.3 1062.51 1320.54 1063.05 1286.61 C 1044.22 1284.49 995.486 1270.31 975.399 1264.62 C 966.537 1298.98 960.204 1323.22 943.126 1355.18 C 937.296 1366.3 930.636 1376.96 923.203 1387.08 C 899.977 1418.32 870.221 1447.2 875.493 1488.89 C 879.35 1519.4 906.578 1574.03 930.301 1592.64 C 946.07 1596 960.363 1593.9 979.482 1598.39 C 1018.51 1607.55 1046.78 1672.76 1007.93 1697.56 C 1001.89 1701.42 992.143 1699.63 988.608 1701.34 C 970.536 1710.1 961.267 1710.28 941.662 1707.57 C 935.17 1707.69 926.453 1711.53 920.204 1711.58 C 897.733 1711.76 872.238 1708.84 850.535 1703.05 C 831.592 1698 819.659 1684.56 810.985 1667.7 C 782.431 1604.3 742.322 1544.81 716.357 1478.82 C 701.164 1440.2 725.2 1422.3 738.147 1389.89 C 763.822 1325.62 752.043 1277.65 727.504 1217.09 C 711.709 1258.94 699.026 1290.3 673.555 1328.18 C 662.234 1344.86 650.167 1361.01 637.39 1376.6 C 612.845 1405.95 577.448 1438.64 568.764 1477.93 C 562.396 1506.73 547.684 1592.14 568.59 1617.63 C 584.672 1629.09 598.191 1629.79 609.257 1648.98 C 621.422 1670.07 625.983 1712.7 601.368 1727.07 C 589.537 1733.98 573.954 1731.98 560.879 1731.68 C 557.159 1731.6 550.719 1735.61 546.716 1736.16 C 532.683 1739.07 520.257 1737.12 506.831 1733.32 C 481.768 1740.24 456.231 1736.11 438.033 1716.81 C 416.93 1694.43 420.273 1646.87 420.519 1618.16 C 421.082 1581.72 422.009 1545.28 423.3 1508.85 L 424.852 1455.23 C 425.259 1441.19 425.466 1427.36 427.752 1413.39 C 431.596 1389.9 450.584 1378.85 460.326 1360.8 C 486.427 1312.43 484.699 1251.78 486.088 1198.27 C 474.733 1247.48 442.76 1317.92 405.746 1350.91 C 304.231 1441.38 181.54 1368.47 186.766 1236.99 C 150.122 1196.48 159.56 1143.81 188.557 1102 C 198.261 1088 208.178 1074.38 215.663 1059.02 C 221.305 1050.26 219.641 1027.86 225.305 1021.11 C 235.945 1008.42 252.542 1029.7 256.874 1037.1 C 265.068 1051.1 267.441 1059.76 272.258 1074.58 C 274.482 1080.42 279.209 1086.1 281.884 1091.59 C 295.96 1120.54 294.487 1158.11 283.376 1187.82 C 276.472 1206.29 264.846 1219.5 252.121 1234.33 C 253.083 1247.62 254.094 1258.04 258.85 1270.83 C 265.212 1287.93 275.792 1300.73 292.541 1308.4 C 303.724 1313.53 319.839 1313 330.6 1307.62 C 410.996 1267.37 424.445 1110.12 443.482 1032.01 C 453.537 990.754 459.753 961.71 474.967 923.751 C 497.61 867.255 526.245 827.365 571.425 786.922 C 581.591 777.822 588.186 770.372 599.749 761.303 C 674.549 702.643 754.867 695.559 845.838 700.621 C 882.397 702.655 918.252 706.707 954.9 705.978 C 978.114 705.516 1019.8 703.226 1040.38 694.387 C 1042.18 689.889 1009.25 671.579 1057.17 657.061 C 1082.4 649.416 1110.73 615.25 1127.6 593.559 C 1115.26 590.942 1083.03 582.895 1086.45 565.907 C 1092.96 555.534 1115.8 549.352 1125.26 541.505 C 1170.9 503.613 1184.05 458.87 1235.63 424.559 C 1226.68 416.681 1214.63 404.7 1211.57 392.976 C 1205.09 368.149 1242.52 375.801 1257.21 371.841 C 1281.91 365.179 1301.2 353.22 1326 346.94 C 1319.95 340.646 1310.19 330.522 1309.12 321.821 C 1308.74 318.669 1309.65 315.496 1311.65 313.03 C 1314.29 309.826 1319.14 308.5 1323.04 308.967 C 1349.75 312.168 1374.61 304.174 1400.41 298.925 C 1411.29 296.711 1422.93 296.017 1434.21 295.231 C 1432.25 293.798 1430.31 292.343 1428.39 290.866 C 1423.44 287.029 1419.15 279.915 1424.5 274.494 C 1431.4 267.495 1446.23 267.161 1455.51 266.422 z"/>
<path transform="translate(0,0)" fill="rgb(208,132,39)" d="M 1463.16 289.397 C 1507.79 287.732 1571.26 320.262 1584.54 365.404 C 1586.6 372.429 1588.57 393.6 1594.47 396.288 L 1596.2 395.055 C 1597.97 391.638 1598.22 390.362 1598.51 386.393 C 1599.81 367.978 1593.79 349.793 1581.76 335.794 C 1600.22 315.166 1624.5 306.117 1651.74 304.604 C 1645.42 311.515 1624.22 336.005 1630.96 345.424 C 1637.84 347.692 1645.77 341.212 1652.34 339.25 C 1682.73 330.176 1711.85 340.937 1739.01 352.656 C 1724.41 360.736 1695.07 357.848 1688.15 372.334 C 1690.42 378.468 1711.01 374.216 1718.85 374.505 C 1738.88 375.242 1746.48 381.664 1762.68 391.111 C 1724.34 399.758 1713.87 412.643 1692.98 444.505 L 1685.91 446.662 C 1678.05 439.976 1670.38 434.87 1661.55 429.633 C 1671.47 421.365 1681.3 412.753 1693 407.157 C 1698.99 404.291 1708.95 403.252 1712.52 398.669 L 1712 396.884 C 1709.87 395.742 1709.21 395.713 1706.88 395.517 C 1681.9 393.409 1665.22 410.399 1647.65 425.742 C 1642.39 426.259 1635.19 427.453 1630.52 425.407 C 1623.04 414.187 1643.2 378.027 1651.83 369.267 C 1653.29 367.78 1653.66 367.652 1654.61 365.553 C 1636.91 361.66 1622.45 391.876 1617.97 405.56 C 1615.89 411.915 1615.2 419.132 1614.46 425.766 C 1605.71 434.591 1599.25 443.581 1589.43 452.844 C 1583.18 447.589 1580.71 445.206 1575.53 439.023 C 1573.32 420.976 1569.95 403.088 1561.85 386.708 C 1555.77 374.397 1541.14 351.762 1527.42 348.725 L 1526.22 349.639 C 1527.12 357.329 1538.41 367.335 1542.48 375.521 C 1552.72 396.076 1557.75 408.873 1561.69 431.226 C 1550.77 423.275 1544.43 422.009 1532.77 416.838 C 1519.79 411.081 1511.42 389.563 1501.84 377.631 C 1490.62 363.645 1475.62 349.444 1456.86 346.781 C 1452.87 346.215 1452.11 346.343 1449.84 348.295 C 1450.11 352.541 1464.91 359.318 1469.45 362.396 C 1492.17 377.803 1507.58 409.416 1523.43 432.492 C 1509.24 432.106 1472.43 419.677 1464.48 425.324 L 1464.87 427.392 C 1478.1 442.737 1503.98 443.205 1522.82 445.934 C 1528.03 446.688 1532.38 446.27 1536.87 443.465 C 1540.12 439.797 1537.7 437.275 1539.7 433.193 C 1558.42 440.879 1571.26 455.975 1587.09 465.878 C 1596.32 471.649 1612.78 444.316 1620.6 440.908 C 1629.92 447.248 1638.16 434.124 1657.57 445.452 C 1681.85 459.621 1685.85 474.527 1701.11 496.108 C 1710.13 508.853 1728.59 523.449 1733.09 540.186 C 1735.6 549.532 1733.15 560.339 1734.61 570.317 C 1736.03 580.014 1740.16 591.78 1741.41 600.692 C 1744.59 623.286 1730 660.286 1718.98 679.716 C 1715.73 673.574 1704.04 648.127 1695.45 651.46 C 1694.78 658.015 1707.27 689.333 1709.45 698.237 C 1711.5 706.562 1712.53 710.506 1713.76 719.949 C 1706.55 722.747 1693.74 724.971 1689.24 730.682 L 1689.99 732.226 C 1697.56 734.834 1705.84 733.456 1713.75 732.69 C 1713.09 739.302 1712.13 745.287 1711.08 751.838 C 1703.23 751.363 1688.86 749.205 1682.34 752.353 L 1682.71 754.741 C 1690.6 759.893 1698.71 761.567 1707.76 763.504 C 1703 773.603 1691.21 791.596 1678.88 790.809 C 1665.92 789.982 1643.51 773.576 1634.36 764.576 C 1633.78 756.009 1633.81 753.014 1635.43 744.823 C 1638.21 742.447 1645.01 736.838 1646.55 734.095 C 1659.45 711.128 1696.17 709.734 1690.61 677.872 C 1688.09 674.488 1689.68 675.658 1685.64 674.282 C 1681.74 675.76 1681.51 677.681 1679.58 681.474 C 1678.2 680.69 1672.62 677.228 1671.55 676.983 C 1658.64 673.534 1643.79 681.475 1631.15 680.428 C 1606.03 678.347 1599.63 669.986 1575.64 684.673 C 1570.62 679.734 1567.86 675.702 1560.92 674.985 C 1546.94 679.949 1566.4 707.538 1576.75 711.499 C 1583.35 714.031 1594.21 718.116 1600.06 721.166 C 1607 732.115 1610.47 736.579 1619.19 746.353 L 1618.75 761.891 C 1604.37 774.618 1566.55 793.946 1546.78 793.865 C 1537.05 793.825 1515.21 779.546 1508.07 791.058 C 1507.54 795.28 1509.3 799.104 1510.65 803.283 C 1507.49 801.192 1501.59 797.376 1499.52 794.452 C 1487.09 776.214 1486.32 754.285 1473.58 735.581 C 1460.49 716.369 1444.58 706.399 1427.47 692.074 C 1423.45 688.703 1420.43 674.353 1418.72 668.957 C 1415.32 658.237 1417.88 633.571 1411.37 625.08 C 1402.98 622.723 1400.33 647.938 1399.45 653.854 C 1396.26 675.227 1390.49 696.134 1382.27 716.12 C 1378.19 725.811 1367.59 743.681 1366.45 752.125 L 1367.49 753.077 C 1385.97 741.073 1402.27 697.677 1406.12 676.192 C 1409.79 688.242 1410.74 691.214 1418.18 701.225 C 1414.84 716.71 1410.76 729.102 1404.68 743.675 C 1401.53 751.206 1390.71 774.462 1394.23 780.742 L 1395.85 781.131 C 1400.93 776.807 1407.12 763.527 1410.97 757.5 C 1419.48 744.158 1424.71 728.642 1428.58 713.452 C 1464.67 745.487 1461.52 749.663 1477.53 792.777 C 1474.79 802.82 1468.95 816.884 1465.26 827.146 C 1455.23 855.013 1452.62 881.933 1462.2 910.261 C 1465.09 896.68 1465.17 879.674 1467.38 865.776 C 1470.54 845.838 1479.11 825.789 1486.55 807.066 C 1495.5 814.622 1498.13 816.962 1509.27 820.747 C 1512.67 835.192 1525.95 889.589 1549.77 873.954 L 1550.82 873.253 C 1558.32 874.622 1572.87 895.569 1581.25 898.915 C 1581.69 899.091 1586.97 902.233 1587.01 902.313 C 1593.36 916.151 1590.29 935.353 1594.31 949.727 L 1595.77 950.236 C 1605.18 941.599 1602.89 914.036 1599.73 903.147 C 1598.77 899.818 1597.74 895.774 1598.35 892.422 L 1599.83 892.008 L 1603.87 896.13 C 1612.2 904.735 1617.46 903.285 1626.57 897.208 C 1630.86 923.338 1626.44 947.113 1619.08 972.224 C 1617.75 976.747 1613.62 987.028 1615.61 990.796 C 1617.72 990.128 1618.15 989.934 1619.4 987.822 C 1638.4 955.721 1642.38 927.105 1637.48 890.7 C 1644.58 893.266 1642.77 891.762 1648.74 892.029 C 1656.89 893.718 1674.21 866.281 1674.45 866.2 C 1699.5 857.63 1697.34 828.928 1691.36 808.42 C 1694.36 806.68 1697.7 804.305 1700.61 802.344 C 1706.11 812.075 1715.86 838.963 1722.76 844.427 L 1724.44 844.119 C 1729.64 832.035 1714.76 805.252 1708.71 794.342 C 1721.26 779.543 1723.2 773.02 1729.19 754.669 C 1736.44 770.497 1745.6 785.329 1750.06 802.369 C 1751.25 806.915 1753.25 814.679 1755.59 818.48 L 1757 818.533 C 1767.19 800.467 1743.32 759.686 1735.79 743.682 C 1732.2 734.183 1728.98 711.459 1730.81 701.542 C 1732.92 690.065 1744.29 666.503 1748.97 655.41 C 1753.86 665.811 1774.14 701.83 1785.72 702.586 C 1789.87 697.234 1776.06 681.596 1772.49 675.64 C 1769.1 669.933 1766.07 664.019 1763.42 657.933 C 1752.47 632.58 1759.03 627.583 1758.58 602.566 C 1758.4 592.993 1752.12 577.841 1751.38 566.161 C 1767.08 581.587 1788.01 596.497 1805.1 611.722 C 1792.05 574.907 1759.74 568.126 1749.96 539.536 C 1741.43 510.602 1719.55 499.989 1706.17 474.449 C 1702.41 467.258 1696.93 459.559 1692.02 453.151 C 1727.1 451.225 1731.44 464.644 1760.57 478.125 L 1762.16 478.852 C 1754.4 478.952 1741.82 477.547 1737.05 484.631 C 1736.88 485.791 1736.71 486.951 1736.54 488.111 C 1741.77 494.721 1752.25 498.7 1758.25 504.517 C 1766.74 512.751 1769.98 526.314 1777.06 535.472 C 1792.46 555.839 1814.35 574.491 1823.97 598.59 C 1838.68 635.441 1835.73 668.768 1852.45 705.739 C 1844.29 701.648 1835.65 695.967 1827.83 691.088 C 1823.42 681.104 1799.46 620.116 1787.23 625.2 C 1786.19 628.635 1789.19 634.734 1790.92 637.963 C 1801.66 658.017 1808 678.005 1815.26 699.222 C 1834.51 755.498 1803.49 809.948 1813.68 865.536 C 1789.92 841.013 1797.25 822.286 1795.96 792.249 C 1795.58 783.414 1785.06 744.116 1775.13 745.235 C 1771.72 750.006 1777.36 763.212 1778.56 769.576 C 1779.96 777.073 1781.12 783.012 1781.66 790.779 C 1782.45 802.077 1781.08 812.884 1780.52 824.137 C 1779.84 860.811 1775.35 901.794 1758.06 934.925 C 1755.69 927.61 1751.61 911.611 1743.11 911.053 C 1742.77 911.558 1742.44 912.063 1742.1 912.569 C 1742.96 944.248 1739.05 986.677 1729.98 1016.17 C 1722.9 1039.17 1712.05 1061.52 1710.2 1081.93 C 1710.13 1081.74 1709.02 1078.57 1709.01 1078.54 C 1703.7 1070.32 1703.64 1041.61 1693.96 1038.62 C 1689.14 1041.32 1687.74 1053.31 1686.26 1058.63 C 1674.87 1099.53 1647.38 1130.34 1628.06 1167.07 C 1623.07 1176.55 1619.06 1186.76 1614.99 1196.79 C 1605.43 1169.14 1610.84 1164.7 1613.99 1136.85 C 1590.98 1153.9 1585.19 1181.25 1562.57 1205.16 C 1537.67 1231.47 1508.88 1246.55 1486.09 1272.03 C 1485.81 1260.35 1486.36 1251.69 1489.35 1240.37 C 1509.34 1220.12 1531.1 1202.19 1541.79 1174.82 C 1544.05 1169.03 1550.73 1154.51 1545.71 1148.95 C 1539.92 1151.48 1538.38 1158.41 1535.22 1164.19 C 1521.34 1189.59 1502.57 1204.77 1482.25 1224.24 C 1474.29 1231.87 1463.18 1247.26 1454.59 1256.51 C 1439.19 1273.07 1390.58 1306.23 1370.09 1312.92 C 1370.91 1305.09 1371.62 1294.33 1374.07 1287.22 C 1378.84 1273.33 1390.4 1263.24 1391.04 1247.78 C 1391.18 1244.57 1392.16 1240.43 1390.46 1238.47 C 1385.44 1240.15 1378.53 1253.01 1375.23 1257.8 C 1369.31 1266.23 1362.68 1274.14 1355.41 1281.43 C 1342.57 1294.44 1331.56 1301.89 1315.51 1310.25 C 1316.53 1299.29 1318.97 1288.51 1322.76 1278.17 C 1326.07 1269.18 1336.65 1243.86 1344.54 1242.24 C 1365.05 1238.02 1405.3 1156.63 1391.02 1143.48 L 1388.64 1143.69 C 1387.4 1144.71 1386.56 1145.37 1385.89 1146.95 C 1377.9 1165.82 1370.31 1183.45 1359.68 1201.09 C 1363.69 1144.95 1353.87 1113.09 1333.3 1061.53 C 1329.81 1052.77 1326.17 1021.59 1317.97 1020.33 C 1313.45 1022.33 1311.37 1031.42 1310.25 1035.88 C 1305.78 1053.68 1297.7 1065.33 1286.02 1079.1 C 1286.19 1064.2 1285.87 1050.78 1282.9 1036.11 C 1275.66 1000.39 1259.95 968.524 1258.39 931.524 C 1257.37 912.031 1259.59 892.424 1261.08 872.998 C 1261.68 865.255 1266.4 850.252 1263.36 843.363 L 1261.76 843.024 C 1244.64 853.725 1245.7 905.988 1241.44 923.827 C 1236.97 942.532 1216.78 958.062 1200.69 966.643 C 1210.15 908.761 1185.2 872.277 1185.97 816.406 C 1187.67 792.905 1194.72 770.36 1203.46 748.679 C 1206.67 740.69 1223.66 716.229 1218.46 710.041 C 1215.61 709.886 1212.72 711.469 1210.74 713.466 C 1181.66 742.757 1173.1 781.583 1168.76 820.733 C 1156.78 835.321 1147.34 843.917 1133.55 856.784 C 1146.78 799.453 1124.51 760.516 1145.42 704.378 C 1154.85 679.076 1164.49 657.908 1181.89 636.763 C 1186.69 630.931 1210.74 605.585 1211.68 601.626 C 1195.56 594.355 1156.59 650.335 1149.52 663.321 C 1143.29 666.629 1138.78 670.917 1132.56 674.326 C 1107.14 688.266 1090.21 687.231 1063.38 680.083 C 1122.58 655.404 1140.5 605.048 1187.21 566.248 C 1193.41 561.102 1213.22 547.442 1213.41 539.846 C 1203.13 534.546 1167.3 569.113 1152.66 570.836 C 1140.22 572.3 1137.28 571.731 1124.89 569.64 C 1139.63 559.516 1152.23 550.945 1164.37 537.524 C 1187.95 511.466 1203.83 480.303 1230.34 456.526 C 1242.9 445.26 1255.57 438.141 1270.93 431.398 C 1275.9 429.217 1288.74 424.282 1291.93 421.529 C 1291.72 418.334 1292.02 418.131 1290.26 415.577 C 1283.89 413.813 1279.59 414.904 1273.15 414.831 C 1259.91 414.682 1249.63 406.598 1241.02 397.416 C 1277.29 395.372 1295.19 379.414 1327.91 369.69 C 1361.14 359.569 1396.94 362.024 1428.48 376.588 C 1434.75 379.433 1450.77 390.772 1456.31 389.041 L 1456.87 387 C 1450.5 369.024 1416.73 353.458 1399.36 351.185 C 1374.2 347.893 1366.75 346.749 1344.78 332.481 C 1380.76 329.58 1413.54 313.413 1448.67 318.769 C 1463.35 321.008 1481.73 331.735 1496.51 335.728 L 1497.76 334.9 C 1500.95 324.256 1470.92 296.573 1463.16 289.397 z"/>
<path transform="translate(0,0)" fill="rgb(0,0,0)" d="M 1294.21 734.58 C 1293.05 735.35 1291.89 736.11 1290.72 736.86 C 1282.25 742.277 1264.09 754.891 1256.63 742.584 C 1255.39 734.161 1264.67 719.104 1266.73 707.859 C 1274.7 664.254 1265.5 609.044 1310.52 582.968 C 1312.82 581.633 1316.97 580.316 1319.58 581.32 C 1321.63 586.513 1310.61 597.124 1307.72 601.276 C 1301.84 609.709 1297.36 619.107 1293.92 628.763 C 1287.1 647.944 1288.51 668.356 1286.42 688.293 C 1284.86 703.663 1282.26 712.453 1277.63 726.767 C 1286.54 721.003 1293.47 716.328 1301.1 708.475 C 1309.88 699.439 1317.18 685.881 1327.63 678.677 C 1328.67 677.965 1329.05 678.547 1330.61 679.19 L 1330.88 681.028 C 1326.31 689.31 1324.65 698.195 1321.22 705.616 C 1306.87 736.718 1301.99 766.28 1307.43 800.263 C 1310.08 816.785 1315.23 832.027 1317.05 849.442 C 1326.91 833.145 1336.55 823.415 1344.04 805.969 C 1348.75 805.926 1349.09 805.045 1351.7 807.348 L 1352.5 810.286 C 1350.47 848.932 1351.98 867.019 1370.6 901.758 C 1377.57 914.759 1383.63 927.795 1388.17 941.795 C 1395.93 920.588 1399.59 902.023 1398.34 879.504 C 1397.49 864.17 1410.15 811.106 1424.74 806.047 L 1426.58 807.134 C 1427.5 811.736 1419.72 829.645 1417.85 836.897 C 1407.48 877.163 1411.15 925.114 1428.02 963.119 C 1434.08 976.757 1446.11 995.332 1454.04 1008.02 C 1459.08 1006.6 1462.1 1006.8 1467.3 1006.69 C 1468.89 992.793 1469.65 978.69 1470.58 964.72 C 1493.64 990.77 1516.33 1040.35 1523.71 1074.85 C 1526.12 1086.16 1526.12 1100.21 1526.14 1111.88 C 1562.29 1084.22 1577.53 1060.06 1589.06 1015.88 C 1590.15 1011.68 1592.27 1004.33 1596.18 1002.22 C 1607.91 1009.95 1595.46 1051.45 1598.76 1058.01 C 1602.61 1055.37 1607.84 1043.63 1612.2 1039.13 C 1641.22 1009.17 1657.63 975.394 1666.92 934.999 C 1667.57 932.188 1668.42 928.803 1670.83 927.414 C 1681.98 935.034 1666.16 974.828 1665.14 986.081 C 1664.15 997.003 1665.59 1005.45 1667.53 1016.21 C 1683.02 990.307 1705.72 963.583 1714.44 936.741 C 1717.02 928.759 1718.74 920.526 1719.6 912.181 C 1720.63 902.632 1718.98 879.283 1723.8 874.198 C 1726.35 875.117 1726.28 874.91 1727.82 877.67 C 1741.59 902.38 1733.55 939.895 1721.13 963.511 C 1712.19 980.518 1699.61 996.133 1688.94 1012.14 C 1684.04 1019.48 1675.26 1038.72 1668.9 1042.67 C 1664.57 1043.22 1666.55 1043.54 1662.72 1042.01 C 1657.25 1035.67 1654.72 1022.31 1652.48 1013.8 C 1638.02 1038.51 1615.35 1057.05 1606.02 1085 C 1602.84 1094.51 1602.86 1110.78 1599.16 1120.79 C 1597.09 1126.37 1591.02 1142.52 1585.97 1145.2 L 1584.88 1144.02 C 1584.37 1137.03 1588.16 1121.13 1589.17 1113.25 C 1590.47 1103.05 1590.95 1095.25 1591.38 1085 C 1587.96 1079.95 1587.32 1078.81 1585.15 1073.12 C 1575.21 1089.67 1542.08 1132.9 1516.27 1133.43 C 1510.41 1132.54 1511.02 1119.33 1511.17 1115.69 C 1512.68 1080.07 1499.41 1041.34 1481.36 1010.37 C 1480.59 1021.58 1477.6 1056.57 1462.83 1056.91 C 1458.12 1053.32 1446.43 1027.75 1441.97 1020.58 C 1433.43 1006.83 1423.45 992.814 1415.37 978.989 C 1411.46 972.3 1405.85 955.107 1403.11 947.081 C 1397.75 960.862 1396.52 964.071 1394.51 978.152 C 1392.65 991.16 1403.25 1042.94 1399.41 1048.16 L 1397.89 1048.37 C 1390.43 1042.33 1383.08 1003.26 1383.65 993.776 C 1385.51 963.158 1380.37 948.457 1363.49 922.517 C 1347.1 897.336 1339.07 870.074 1337.62 839.485 C 1333.8 848.516 1322.8 880.49 1319.54 885.099 C 1317.7 885.803 1316.6 886.559 1314.59 886.281 C 1311.47 885.852 1308.94 884.15 1307.27 881.466 C 1306.02 879.46 1291.16 809.044 1289.93 801.603 C 1288.73 794.292 1288.07 786.903 1287.94 779.495 C 1287.67 762.058 1290.03 751.059 1294.21 734.58 z"/>
<path transform="translate(0,0)" fill="rgb(208,132,39)" d="M 1454.04 1008.02 C 1459.08 1006.6 1462.1 1006.8 1467.3 1006.69 C 1466.13 1013.75 1465.37 1018.26 1463.37 1025.1 L 1454.04 1008.02 z"/>
<path transform="translate(0,0)" fill="rgb(0,0,0)" d="M 1297.46 461.861 C 1299.15 439.767 1302.52 422.825 1320.09 407.828 C 1333.58 396.313 1356.48 390.812 1373.82 392.801 C 1405.98 396.49 1431.82 413.547 1447.53 441.596 C 1454.08 440.839 1480.18 442.001 1481.09 450.246 C 1475.6 457.141 1456.98 451.228 1447.97 454.159 C 1422.68 462.392 1406.84 475.735 1379.88 481.775 C 1386.69 484.551 1393.7 486.378 1397.61 492.446 C 1398.48 499.4 1384.96 508.943 1380.69 515.002 C 1357.69 547.639 1334.49 558.494 1298.04 572.752 C 1294.6 570.655 1293.84 569.421 1291.14 566.305 C 1307.19 554.909 1322.4 548.249 1338.81 538.294 C 1325.65 528.97 1320.32 525.283 1311.2 512.14 C 1297.08 518.856 1285.31 524.255 1271.98 532.68 C 1264.36 537.496 1247.71 554.687 1241.56 554.393 C 1240.78 553.28 1240.2 553.07 1240.88 551.731 C 1252.86 528.041 1280.78 508.929 1305.52 501.91 C 1300.95 490.354 1299.24 484.51 1297.57 472.203 C 1284.89 476.444 1273.19 480.257 1260.97 485.86 C 1251.69 490.114 1239.75 502.16 1230.38 502.729 L 1229.12 501.659 C 1230.45 494.476 1242.59 484.01 1248.57 479.979 C 1264.53 469.211 1278.14 462.794 1297.46 461.861 z"/>
<path transform="translate(0,0)" fill="rgb(208,132,39)" d="M 1366.58 411.381 L 1367.47 411.411 C 1394.27 412.539 1413.46 425.97 1430.85 445.084 C 1423.22 448.953 1415.55 452.738 1407.83 456.439 C 1394.62 444.566 1367.97 423.7 1348.19 438.771 C 1345.6 440.746 1342.63 446.197 1342.48 449.56 C 1347.17 454.527 1361.31 447.291 1367.26 448.526 C 1373.99 449.923 1387.48 455.843 1389.51 462.532 C 1387.62 465.107 1386.79 464.559 1382.89 465.677 C 1358.51 474.368 1350.12 481.562 1378.15 497.284 C 1369.81 505.907 1361.89 515.593 1354.15 524.802 C 1332.76 512.882 1320.72 497.598 1318.22 472.723 C 1314.63 436.935 1329.84 414.615 1366.58 411.381 z"/>
<path transform="translate(0,0)" fill="rgb(0,0,0)" d="M 1688.73 542.32 C 1698.25 542.36 1722.1 549.403 1725.52 558.799 C 1723.47 565.041 1715.13 564.035 1714.04 566.286 C 1705.47 583.933 1699.44 591.709 1678.6 592.638 C 1671.51 592.954 1671.15 597.206 1666.9 603.337 C 1670.98 612.867 1689.26 641.595 1681.41 650.743 C 1678.29 650.546 1679.18 650.445 1676.28 647.352 C 1668.94 634.071 1660.91 620.715 1653.35 607.549 C 1643.17 589.829 1639.11 583.235 1643.69 562.78 C 1647.6 571.742 1651.7 580.616 1656.01 589.396 C 1654.72 562.786 1660.94 547.828 1688.73 542.32 z"/>
<path transform="translate(0,0)" fill="rgb(208,132,39)" d="M 1691.27 556.843 C 1710.64 557.618 1697.55 583.757 1677.4 580.426 C 1672.8 578.657 1666.84 573.861 1670.12 568.606 C 1677 566.179 1690.31 581.892 1691.27 556.843 z"/>
<path transform="translate(0,0)" fill="rgb(0,0,0)" d="M 1502.22 541.332 C 1526.19 538.976 1539.21 558.401 1546.7 578.169 C 1548.87 583.904 1555.68 597.3 1549.91 601.881 C 1540.72 602.69 1536.95 591.582 1525.75 590.287 C 1502.23 592.511 1493.95 589.77 1478.77 570.971 C 1477.01 568.798 1474.75 565.728 1472.33 564.596 C 1467.17 564.896 1465.18 565.681 1461.36 562.064 C 1458.18 550.933 1493.45 542.642 1502.22 541.332 z"/>
<path transform="translate(0,0)" fill="rgb(208,132,39)" d="M 1497.5 554.865 L 1501.09 555.098 C 1504.19 558.69 1501.22 563.084 1503.18 566.042 C 1508.91 574.715 1518.14 566.297 1523.35 564.123 C 1528.63 566.413 1527.71 570.063 1524.83 573.82 C 1511.56 587.687 1487.78 573.459 1490.65 559.335 C 1492.36 556.394 1494.27 556.121 1497.5 554.865 z"/>
<path transform="translate(0,0)" fill="rgb(0,0,0)" d="M 1444.8 482.774 C 1448.65 482.557 1449.63 482.714 1452.3 485.126 C 1452.2 492.708 1440.15 500.345 1435.38 507.29 C 1424.12 523.686 1414.23 548.6 1400.77 562.846 C 1379.44 585.437 1364.43 589.921 1344.64 616.113 C 1341.81 618.459 1343.36 617.875 1339.97 618.25 L 1338.85 616.791 C 1339.52 594.791 1382.75 568.238 1395.34 551.997 C 1414.59 527.173 1416.99 500.752 1444.8 482.774 z"/>
<path transform="translate(0,0)" fill="rgb(0,0,0)" d="M 1245.3 597.959 C 1245.58 601.155 1247.14 602.958 1247.12 603.375 C 1246.83 610.369 1236.11 626.928 1232.35 631.793 C 1213.35 655.727 1194.87 675.966 1183.2 704.916 C 1177.22 719.741 1174.7 736.773 1168.91 750.376 C 1167.12 748.871 1166.39 747.284 1166.15 745.007 C 1161.48 699.413 1191.12 659.88 1220.69 628.513 C 1229.5 619.172 1237.35 608.308 1245.3 597.959 z"/>
<path transform="translate(0,0)" fill="rgb(0,0,0)" d="M 1352.36 966.369 C 1353.16 966.924 1353.97 967.479 1354.77 968.034 C 1358.99 983.304 1359.96 999.042 1363.8 1014.67 C 1369.24 1036.78 1394.41 1090.56 1382.56 1112.18 C 1381.15 1111.76 1379.48 1111.26 1379.09 1109.48 C 1369.23 1065.08 1341.18 1012.4 1352.36 966.369 z"/>
<path transform="translate(0,0)" fill="rgb(0,0,0)" d="M 1433.55 1068.67 C 1441.26 1071.84 1443.15 1077.92 1444.03 1085.97 C 1447.74 1119.68 1446.69 1161.88 1425.83 1190.37 C 1422.89 1193.91 1424.6 1193.12 1421.06 1194.1 L 1419.83 1192.72 C 1418.86 1184.59 1424.89 1169.97 1426.89 1161.19 C 1429.19 1150.84 1430.94 1140.38 1432.16 1129.86 C 1433.27 1120.11 1433.91 1108.75 1433.75 1098.89 C 1433.58 1088.52 1432.31 1079.11 1433.55 1068.67 z"/>
<path transform="translate(0,0)" fill="rgb(0,0,0)" d="M 1466.73 1147.27 C 1467.37 1147.51 1468.63 1148.36 1469.28 1148.76 C 1471.22 1153.92 1469.66 1167.4 1468.42 1173.01 C 1461.84 1202.93 1441.92 1235.29 1416.49 1252.48 L 1413.74 1251.21 C 1412.17 1245.81 1420.57 1237.72 1424.61 1231.81 C 1435.16 1216.38 1445.77 1199.54 1452.95 1182.27 C 1458.06 1169.99 1460.23 1159.35 1466.73 1147.27 z"/>
<path transform="translate(0,0)" fill="rgb(0,0,0)" d="M 1506.66 863.497 L 1507.84 864.582 C 1508.88 868.168 1508 880.487 1508.2 885.596 C 1508.57 894.227 1509.38 902.835 1510.61 911.386 C 1513.88 933.113 1521.79 953.183 1524.97 974.572 C 1525.17 975.947 1524.02 976.265 1523.04 976.973 L 1519.89 976.398 C 1500.95 949.37 1490.63 894.114 1506.66 863.497 z"/>
<path transform="translate(0,0)" fill="rgb(0,0,0)" d="M 1232.33 760.633 L 1233.53 761.996 C 1234.17 767.723 1227.97 793.468 1226.24 803.28 C 1223.48 819.025 1222.81 842.546 1219.02 858.141 C 1218.8 859.055 1215.69 859.514 1214.34 859.856 C 1213.86 858.095 1213.44 856.318 1213.07 854.529 C 1211.28 845.6 1211.16 834.274 1211.55 825.242 C 1212.81 796.281 1216.83 784.051 1232.33 760.633 z"/>
<path transform="translate(0,0)" fill="rgb(0,0,0)" d="M 1553.91 925.106 C 1558.33 926.654 1559.86 928.969 1561.08 933.485 C 1567.52 957.384 1570.88 994.894 1560.1 1017.85 C 1558.85 1018.8 1557.93 1019.2 1556.54 1019.95 L 1554.79 1019.08 C 1552.11 1011.23 1556.54 993.637 1556.87 983.976 C 1557.46 966.517 1552.2 941.638 1553.91 925.106 z"/>
<path transform="translate(0,0)" fill="rgb(0,0,0)" d="M 1396.78 584.586 L 1398.92 586.544 C 1407.42 607.136 1371.16 649.538 1354.51 660.637 C 1353.22 660.35 1352.75 660.019 1351.54 659.46 C 1351.46 657.095 1351.37 656.332 1353.11 654.29 C 1367.32 637.674 1380.4 619.984 1388.97 599.711 C 1391.12 594.624 1393.51 589.223 1396.78 584.586 z"/>
<path transform="translate(0,0)" fill="rgb(0,0,0)" d="M 1438.5 600.391 C 1441.98 602.289 1448.31 619.196 1448.31 622.4 C 1448.33 635.406 1482.49 654.079 1478.76 661.8 L 1476.59 661.882 C 1456.79 663.81 1424.11 619.492 1438.5 600.391 z"/>
<path transform="translate(0,0)" fill="rgb(0,0,0)" d="M 1318.16 930.55 C 1322.92 935.106 1319.85 981.62 1321.38 991.849 C 1321.94 995.581 1322.68 1003.65 1319 1005.75 L 1315.9 1004.75 C 1305.81 986.695 1307.86 948.379 1318.16 930.55 z"/>
<path transform="translate(0,0)" fill="rgb(0,0,0)" d="M 1511.04 675.603 C 1514.01 677.091 1515.15 678.392 1516.21 681.122 C 1513.94 688.567 1506.97 696.676 1504.07 703.679 C 1500.78 711.629 1501.58 723.257 1496.47 730.482 C 1485.77 726.71 1491.25 705.636 1494.39 697.933 C 1498.46 687.968 1503.33 682.728 1511.04 675.603 z"/>
<path transform="translate(0,0)" fill="rgb(0,0,0)" d="M 1642.01 1074.57 L 1643.47 1075.08 C 1652 1084.57 1634.83 1121.65 1626.8 1129.48 C 1625.42 1129.11 1623.27 1128.37 1623.21 1126.84 C 1622.73 1114.08 1635.41 1084.98 1642.01 1074.57 z"/>
<path transform="translate(0,0)" fill="rgb(0,0,0)" d="M 1507.88 716.061 C 1512.63 716.209 1557.91 725.62 1559.25 726.637 C 1560.35 730.239 1560.21 728.331 1558.69 732.562 C 1543.85 729.978 1517.92 733.462 1507.43 722.059 C 1506.25 718.013 1506.13 719.947 1507.88 716.061 z"/>
<path transform="translate(0,0)" fill="rgb(0,0,0)" d="M 1511.98 745.018 C 1518.41 745.507 1551.47 749.775 1553.72 753.31 C 1552.24 756.123 1553.28 754.896 1549.74 756.371 C 1540.27 758.989 1512.46 762.3 1508.49 750.527 C 1509.31 747.194 1509.44 747.433 1511.98 745.018 z"/>
<path transform="translate(0,0)" fill="rgb(0,0,0)" d="M 1593.24 489.524 C 1607.82 490.072 1610.83 520.553 1605.98 531.297 C 1595.65 527.209 1590.61 498.156 1593.24 489.524 z"/>
<path transform="translate(0,0)" fill="rgb(0,0,0)" d="M 1562.35 608.356 C 1573.51 615.131 1561.54 640.987 1558.27 651.713 C 1543.43 646.894 1557.34 617.454 1562.35 608.356 z"/>
<path transform="translate(0,0)" fill="rgb(0,0,0)" d="M 1546.15 506.368 C 1559.56 514.355 1549.57 534.045 1541.69 542.47 C 1537.49 542.108 1537.26 541.816 1535.32 538.476 C 1534.61 530.514 1541.74 512.978 1546.15 506.368 z"/>
<path transform="translate(0,0)" fill="rgb(0,0,0)" d="M 1646.76 509.229 C 1655.74 510.604 1668.97 532.927 1665.82 541.412 C 1663.98 541.55 1663.55 541.445 1661.71 541.291 C 1652.24 534.928 1644.14 520.829 1646.76 509.229 z"/>
<path transform="translate(0,0)" fill="rgb(75,34,1)" d="M 1277.64 576.657 C 1281.16 573.021 1286.89 569.313 1291.14 566.305 C 1293.84 569.421 1294.6 570.655 1298.04 572.752 C 1290.81 578.118 1286.13 581.496 1280.46 588.655 C 1279.67 583.829 1279.41 581.33 1277.64 576.657 z"/>
<path transform="translate(0,0)" fill="rgb(0,0,0)" d="M 1277.64 576.657 C 1279.41 581.33 1279.67 583.829 1280.46 588.655 C 1278.08 593.251 1275.37 599.556 1269.81 599.362 C 1264.47 591.265 1272.4 582.465 1277.64 576.657 z"/>
<path transform="translate(0,0)" fill="rgb(28,2,1)" d="M 1344.04 805.969 C 1345.34 798.987 1346.68 792.013 1348.06 785.047 C 1350.75 785.281 1353.26 785.463 1355.93 785.847 C 1353.78 796.065 1353.29 799.997 1352.5 810.286 L 1351.7 807.348 C 1349.09 805.045 1348.75 805.926 1344.04 805.969 z"/>
<path transform="translate(0,0)" fill="rgb(0,0,0)" d="M 1348.06 785.047 C 1349.64 780.764 1350.19 778.048 1353.46 774.862 L 1355.69 774.142 C 1358.87 777.774 1357 781.35 1355.93 785.847 C 1353.26 785.463 1350.75 785.281 1348.06 785.047 z"/>
<path transform="translate(0,0)" fill="rgb(206,96,41)" d="M 764.612 725.421 C 783.224 723.909 803.412 724.579 822.094 725.566 C 777.844 821.042 771.767 947.841 792.037 1050.2 C 799.53 1088.05 809.895 1120.54 822.307 1156.72 C 806.383 1147.82 796.44 1141.65 778.829 1136.15 C 785.824 1131.38 801.326 1124.36 801.425 1115.3 L 799.482 1113.51 C 792.512 1111.48 786.234 1112.76 779.54 1115.01 C 742.178 1127.56 719.444 1170.46 706.2 1205.11 C 702.622 1214.47 698.737 1224 694.321 1233.08 C 687.593 1233.06 680.502 1232.39 673.755 1231.89 C 622.895 1230.76 548.142 1186.64 510.015 1152.75 C 510.386 1033.84 495.814 910.914 581.836 813.534 C 629.581 759.484 693.294 730.23 764.612 725.421 z"/>
<path transform="translate(0,0)" fill="rgb(0,0,0)" d="M 660.172 787.891 C 662.897 787.97 662.871 787.742 664.995 789.353 C 665.522 795.345 653.697 802.754 648.866 805.995 C 629.842 818.757 611.878 835.289 598.163 853.658 C 590.489 863.936 584.145 875.592 575.78 885.804 L 574.821 886.963 C 573.852 887.514 573.206 887.488 572.024 887.713 L 570.659 886.108 C 569.664 880.461 574.326 869.254 576.846 863.93 C 591.856 832.231 627.258 799.725 660.172 787.891 z"/>
<path transform="translate(0,0)" fill="rgb(0,0,0)" d="M 544.093 976.47 C 546.53 977.354 545.757 977.093 547.858 978.93 C 551.828 987.55 539.738 1090.01 540.192 1107 C 540.268 1109.88 538.534 1111.66 536.374 1113.26 C 524.457 1094.72 531.181 995.521 544.093 976.47 z"/>
<path transform="translate(0,0)" fill="rgb(0,0,0)" d="M 714.858 969.285 C 724.449 972.645 728.315 990.702 730.905 999.854 C 740.006 1032.01 741.908 1061.88 732.993 1094.23 C 731.943 1097.24 732.027 1097.99 729.574 1099.98 L 728.306 1099.19 C 725.333 1090.85 725.522 1045.77 723.973 1031.1 C 722.399 1016.18 711.854 979.543 714.858 969.285 z"/>
<path transform="translate(0,0)" fill="rgb(0,0,0)" d="M 698.516 1130.71 C 700.111 1132.36 701.935 1134.73 701.961 1137.04 C 702.107 1150.19 691.491 1177.3 683.963 1187.11 L 682.462 1186.55 C 676.281 1177.31 692.032 1140.34 698.516 1130.71 z"/>
<path transform="translate(0,0)" fill="rgb(0,0,0)" d="M 720.099 758.171 C 725.431 757.84 734.119 756.75 738.309 760.189 L 738.069 762.055 C 731.897 768.27 718.832 771.636 710.24 774.428 C 707.921 775.184 705.591 775.908 703.253 776.601 C 699.304 777.745 698.27 777.944 694.909 776.072 C 693.315 765.864 712.471 759.888 720.099 758.171 z"/>
<path transform="translate(0,0)" fill="rgb(206,96,41)" d="M 1125.45 698.045 L 1127.03 698.608 C 1126.97 703.014 1121.74 715.786 1120.22 721.205 C 1109.62 758.97 1120.1 796.413 1117.65 834.453 C 1116.88 846.461 1111.48 861.81 1108.43 873.946 C 1115.01 889.879 1127.24 881.169 1138.25 874.71 C 1149.81 867.931 1159.3 858.228 1168.29 848.43 C 1171.66 877.399 1181.68 903.8 1183.82 932.924 C 1185.24 946.451 1179.83 962.828 1180.06 975.881 C 1180.53 1001.93 1216.9 981.154 1226.58 973.104 C 1233.09 967.689 1236.52 963.787 1241.64 957.627 C 1244.46 969.733 1247.54 981.776 1250.88 993.749 C 1257.77 1017.64 1266.09 1040.97 1267.29 1066.07 C 1267.83 1077.49 1261.04 1098.29 1268.23 1106.97 C 1281.57 1114.7 1307.84 1084.31 1314.8 1074.09 C 1329.87 1107.37 1351.89 1177.92 1335.46 1210.06 C 1315.87 1248.38 1295.5 1265.51 1291.79 1314.42 C 1240.51 1330.87 1173.83 1331.08 1120.76 1324.03 C 1119.33 1316.67 1117.99 1310.73 1116.08 1303.48 C 1113.48 1301.55 1113.68 1301.39 1110.51 1301.25 C 1107.76 1302.73 1107.47 1304.17 1106.12 1307.05 L 1105.62 1308.13 L 1103.33 1308.74 L 1105.08 1309 L 1103.95 1309.35 C 1097.74 1300.48 1110.38 1272.36 1104.99 1265.46 C 1099.35 1266.27 1095.08 1276.56 1088.24 1281.26 L 1086.81 1280.8 C 1083.37 1261.59 1107.73 1210.97 1110.74 1189.13 C 1114.39 1162.54 1108.7 1132.63 1105.93 1106 C 1104.32 1090.72 1103.88 1075.34 1104.61 1060 C 1105.3 1046.57 1106.75 1033.25 1108.79 1019.97 C 1110.45 1009.22 1116.55 994.043 1112.89 983.501 C 1110.51 981.306 1111.84 981.768 1108.91 981.693 C 1103.72 986.095 1100.04 998.888 1097.73 1005.87 C 1086.39 1040.01 1083.77 1077.72 1086.32 1113.45 C 1088.53 1144.49 1095.69 1167.62 1087.03 1198.53 L 1086.53 1197.27 C 1028.98 1052.03 1023.88 863.466 1076.34 714.874 C 1077.09 712.739 1080.2 707.887 1082.53 707.121 C 1097.48 702.22 1109.93 703.34 1125.45 698.045 z"/>
<path transform="translate(0,0)" fill="rgb(0,0,0)" d="M 1144.45 1014.44 C 1145.02 1014.88 1146.03 1016 1146.58 1016.56 C 1144.01 1050.93 1141.7 1081.95 1144.87 1116.54 C 1145.23 1120.39 1145.26 1130.04 1144.18 1133.27 L 1142.39 1133.61 L 1140.02 1131.48 C 1131.45 1105.55 1124.96 1035.9 1144.45 1014.44 z"/>
<path transform="translate(0,0)" fill="rgb(0,0,0)" d="M 1085.2 787.517 L 1086.69 788.803 C 1089.89 795.271 1079.28 854.633 1079.41 866.975 C 1079.44 869.465 1077.61 891.187 1076.91 893.469 L 1074.8 893.906 C 1067.71 871.871 1067.83 804.024 1085.2 787.517 z"/>
<path transform="translate(0,0)" fill="rgb(0,0,0)" d="M 1303.18 1145.39 C 1306.21 1147.6 1308.15 1151 1308.36 1154.65 C 1309.87 1180.59 1300.54 1201.79 1285.89 1221.35 L 1284.82 1222.51 L 1283.57 1222.07 C 1282.77 1215.87 1299.99 1154.84 1303.18 1145.39 z"/>
<path transform="translate(0,0)" fill="rgb(0,0,0)" d="M 1139.09 1252.37 C 1148.73 1258.97 1150.54 1296.55 1146.79 1306.51 C 1135.15 1298.17 1133.62 1264.93 1139.09 1252.37 z"/>
<path transform="translate(0,0)" fill="rgb(206,96,41)" d="M 1294.14 1558.17 C 1296.84 1561.13 1297.32 1599.25 1299.96 1607.53 C 1306.57 1628.23 1319.55 1650.62 1329.44 1670.48 C 1340.78 1676.78 1355.73 1678.3 1365.86 1687.53 C 1378.23 1698.8 1387.81 1731.6 1373.94 1745.17 C 1367.6 1751.37 1360.04 1750.54 1351.7 1750.33 C 1353.42 1735.07 1353.91 1725 1348.8 1709.01 C 1341.83 1687.2 1321.18 1666.73 1296.21 1672.8 C 1294.01 1673.33 1293.43 1675.27 1292.8 1677.15 C 1300.77 1683.52 1315.91 1681.86 1324.12 1694.77 C 1335.4 1712.48 1337.88 1728.97 1334.15 1749.15 C 1319.42 1763.66 1303.87 1761.84 1285.88 1755.12 L 1287.64 1744.24 L 1287.73 1743.32 C 1289.87 1720.84 1281.48 1686.68 1252.54 1682.77 C 1248.95 1682.29 1236 1683.79 1237.05 1689.53 C 1240.22 1692.26 1247.65 1692.57 1252.56 1693.33 C 1271.7 1707.97 1273.57 1731.96 1267.51 1753.45 C 1247.43 1762.46 1230.45 1756.9 1214.12 1743.27 C 1192.62 1725.32 1199.13 1684.16 1192.06 1658.41 C 1188.56 1645.64 1174.98 1625.41 1174.56 1616.82 C 1173.79 1601.4 1174.9 1584.75 1173.94 1568.68 C 1214.41 1573.44 1255.61 1573.72 1294.14 1558.17 z"/>
<path transform="translate(0,0)" fill="rgb(0,0,0)" d="M 1193.12 1590.41 C 1203.08 1594.51 1208.76 1626.91 1205.03 1636.22 C 1194.46 1630.88 1189.55 1600.97 1193.12 1590.41 z"/>
<path transform="translate(0,0)" fill="rgb(208,132,39)" d="M 890.858 729.113 C 930.814 731.766 959.105 732.258 998.733 728.983 C 986.488 763.034 977.931 803.034 973.464 839.072 C 952.749 836.108 931.352 835.79 910.602 833.744 C 911.657 824.817 915.751 814.703 914.465 806.196 C 913.087 797.072 894.351 798.144 887.888 799.798 C 879.952 805.307 872.305 859.965 876.969 869.695 C 882.282 873.349 955.943 874.409 968.653 874.769 C 968.181 904.207 964.797 956.281 968.245 983.939 C 948.361 986.162 925.39 986.753 905.224 987.461 C 905 982.384 905.674 950.758 896.96 950.552 C 890.196 950.392 871.437 949.34 870.982 958.687 C 870.261 973.519 869.741 1018.42 877.576 1029.85 C 888.714 1035.8 954.508 1028.12 971.553 1026.83 C 977.125 1061.36 983.453 1095.76 990.534 1130.01 C 971.494 1132.55 951.935 1133.57 932.963 1137.17 C 930.895 1132.38 926.718 1116.18 925.132 1114.24 C 912.031 1098.17 890.928 1110.56 898.879 1132.59 C 904.511 1148.19 905.983 1164.57 916.554 1178.3 C 927.909 1182.89 987.848 1175.18 1003.36 1173.7 C 1013.69 1203.18 1019.8 1222.5 1032.11 1252.05 L 1031.74 1253.32 C 1028.31 1253.77 1017.81 1250.99 1013.77 1250.06 C 1006.43 1232.26 1002.63 1210.65 991.46 1195.05 C 988.156 1190.44 964.063 1194 958.399 1194.37 C 941.555 1195.37 924.706 1196.26 907.851 1197.06 C 896.162 1173.86 879.48 1118.19 873.273 1092.53 C 893.487 1090.77 911.483 1089.2 931.691 1086.6 C 939.059 1105.14 935.085 1124.96 963.126 1117.03 C 966.75 1116 968.127 1114.71 969.882 1111.37 C 970.408 1102.99 961.412 1053.84 955.702 1049.68 C 950.103 1045.61 876.953 1053.09 864.807 1052.89 C 856.961 1018.98 853.976 968.283 854.115 933.832 C 871.703 932.388 898.237 932.901 916.427 932.919 C 918.658 965.754 911.276 973.454 949.916 966.168 C 951.602 955.034 954.454 898.47 949.985 895.121 C 943.03 889.912 866.69 891.529 855.317 891.465 C 858.41 849.31 864.847 822.411 874.017 781.588 C 893.864 782.23 913.692 783.348 933.484 784.941 C 931.408 795.873 923.157 817.867 940.533 819.383 C 959.489 821.037 963.293 813.556 965.664 796.019 C 967.292 783.978 970.676 771.205 973.624 759.374 C 974.246 756.879 972.76 754.358 971.201 752.501 C 961.297 747.203 899.403 745.371 885.061 744.862 L 890.858 729.113 z"/>
<path transform="translate(0,0)" fill="rgb(206,96,41)" d="M 1400.49 1550.95 C 1432.49 1559.03 1472.84 1559.09 1505.61 1555.23 C 1504.46 1563.73 1503.53 1572.24 1503 1580.58 C 1501.72 1600.83 1509.88 1638.57 1529.82 1648.4 C 1543.64 1655.22 1560.89 1654.45 1571.47 1667.31 C 1583.14 1681.97 1586.84 1698.96 1583.3 1717.01 C 1579.37 1737.02 1561.59 1732.99 1544.61 1730.71 C 1550.1 1716.29 1551.15 1701.69 1544.9 1687.32 C 1535.62 1665.98 1513.5 1652.21 1491.19 1662.72 C 1490.74 1665.44 1490.81 1664.69 1490.99 1667.43 C 1497.66 1673.98 1525.96 1670.68 1530.5 1697.26 C 1537.33 1737.33 1504.43 1735.64 1476.6 1728.15 C 1443.17 1719.15 1435.3 1717.69 1431.9 1682.17 C 1442.48 1677.81 1446.91 1675.03 1453.39 1664.71 C 1459.1 1655.63 1459.19 1631.68 1449.15 1626.31 C 1441.81 1631.03 1445.88 1654.29 1435.52 1661.37 C 1432.12 1663.69 1429.03 1664.29 1424.91 1663.59 C 1398.8 1659.2 1410.11 1622.73 1405.99 1604.91 C 1403.89 1595.82 1402.25 1594.09 1397.12 1586.53 C 1396.79 1575.5 1399.01 1562.07 1400.49 1550.95 z"/>
<path transform="translate(0,0)" fill="rgb(206,96,41)" d="M 1023.63 725.418 L 1025.38 725.466 C 1025.89 729.308 1017.98 751.704 1016.6 757.604 C 1011.08 781.214 1006.11 805.086 1002.72 829.073 C 985.587 949.047 996.16 1071.35 1033.63 1186.61 C 1042.83 1214.27 1053.06 1234.99 1063.12 1261.04 C 1057.46 1259.87 1051.81 1258.66 1046.16 1257.42 C 1041.39 1246.82 1036.95 1236.07 1032.83 1225.19 C 1026.87 1209.25 1019.15 1179.22 1008.67 1165.73 C 1007.14 1163.94 1004.33 1163.06 1002.04 1163.08 C 975.742 1163.39 948.491 1167.83 922.235 1169.2 C 916.85 1158.94 909.077 1131.25 906.089 1119.38 L 916.245 1117.91 C 917.915 1124.31 921.211 1143.56 925.715 1145.85 C 933.983 1150.05 972.78 1143.8 982.864 1142.7 C 988.995 1141.72 997.841 1140.77 1001.11 1134.94 C 1001.83 1118.17 993.213 1089.73 990.318 1072.2 C 988.019 1058.28 984.595 1028 977.656 1017.58 C 970.439 1014.75 896.184 1021.08 883.788 1021.99 C 881.305 1001.71 880.256 982.56 879.125 962.219 L 893.515 961.953 C 895.44 986.324 888.036 1003.08 921.188 998.729 C 935.905 996.795 964.073 999.318 976.493 991.181 C 977.645 988.222 977.728 985.017 977.875 981.875 C 978.844 961.086 977.679 939.931 977.991 919.074 C 978.215 904.069 980.484 888.167 978.98 873.263 C 978.781 871.294 977.887 869.772 976.506 868.379 C 969.53 861.342 897.476 861.96 883.769 861.779 C 885.405 846.704 888.957 828.734 891.626 813.537 C 892.04 811.18 893.664 810.189 895.262 808.903 C 898.77 808.554 898.521 808.502 901.683 810.057 C 908.111 818.272 894.429 834.49 905.021 843.408 C 912.212 845.547 970.983 850.738 980.189 845.859 C 982.515 844.971 983.111 841.405 983.519 838.916 C 989.741 800.948 996.444 763.407 1010.61 727.36 C 1014.86 726.638 1019.35 726.051 1023.63 725.418 z"/>
<path transform="translate(0,0)" fill="rgb(206,96,41)" d="M 867.112 727.827 L 879.227 728.699 C 877.522 733.461 874.956 739.041 874.563 744.074 C 874.4 746.162 874.82 749.596 876.362 751.103 C 883.854 758.422 948.595 759.809 962.627 760.266 C 957.933 775.978 954.656 793.108 951.48 809.183 C 947.89 809.078 945.11 808.865 941.534 808.511 C 936.496 803.343 949.24 779.522 939.35 775.992 C 932.262 773.461 874.675 768.618 871.38 771.514 C 856.326 784.743 840.138 885.157 850.734 899.038 C 855.074 901.081 929.509 901.927 942.156 902.389 C 941.79 920.337 942.294 938.853 941.947 957.2 L 926.876 957.218 C 926.929 950.055 928.356 930.102 924.033 925.025 C 913.328 918.791 865.072 923.265 850.309 924.118 C 848.17 927.078 846.103 930.398 844.098 933.474 C 843.378 953.845 846.502 1051.7 859.683 1062.61 C 865 1067.02 899.213 1062.11 907.843 1061.3 C 922.016 1059.74 936.235 1058.65 950.479 1058.01 C 951.719 1068.99 957.048 1094.64 959.443 1105.51 C 956.254 1106.5 951.627 1107.49 948.276 1108.32 C 938.437 1067.29 938.791 1074.98 897.167 1079.79 C 890.461 1080.56 865.169 1080.65 865.04 1087.55 C 864.541 1114.06 887.478 1179.94 898.863 1200.63 L 881.946 1191.36 C 880.103 1183.43 872.429 1167.99 869.211 1159.2 C 861.649 1138.55 852.643 1117.11 846.845 1095.85 C 821.935 1004.53 817.807 903.34 839.149 810.923 C 845.325 784.18 857.347 753.261 867.112 727.827 z"/>
<path transform="translate(0,0)" fill="rgb(206,96,41)" d="M 491.039 1354.9 C 517.609 1379.95 544.727 1397.23 580.822 1404.57 C 566.102 1420.5 555.066 1439.48 548.497 1460.15 C 546.966 1464.98 543.111 1483.54 541.679 1485.37 L 537.747 1484.48 C 509.542 1478.09 477.2 1477.97 448.871 1483.39 C 448.883 1466.25 447.256 1417.51 457.054 1405.85 C 472.634 1387.31 479.939 1378.71 491.039 1354.9 z"/>
<path transform="translate(0,0)" fill="rgb(0,0,0)" d="M 491.88 1389.77 C 495.926 1393.74 491.228 1404.96 488.671 1408.65 C 482.311 1417.83 477.596 1446.1 471.399 1452.1 C 457.951 1435.95 477.459 1400.96 491.88 1389.77 z"/>
<path transform="translate(0,0)" fill="rgb(206,96,41)" d="M 502.422 1611.42 C 514.078 1610.99 527.259 1612.95 538.886 1614.51 C 548.938 1646.28 566.62 1637.43 584.774 1657.42 C 595.743 1669.49 605.235 1711.97 574.172 1708.11 C 571.766 1706.45 572.414 1706.31 572.639 1703 C 573.689 1687.7 571.174 1673.13 562.952 1660.01 C 559.734 1654.87 552.308 1648.98 546.352 1653.48 C 551.054 1667.49 558.105 1682.57 556.571 1697.64 C 554.887 1714.21 533.351 1715.06 521.039 1713.01 C 519.792 1712.25 517.502 1711.2 517.585 1709.41 C 518.531 1689.43 517.874 1662.64 497.445 1652.05 C 492.038 1649.24 480.987 1647.48 479.193 1655.41 L 480.169 1656.76 C 498.237 1661.42 500.02 1674.35 501.942 1690.73 C 505.749 1723.19 473.757 1716 458.683 1701.46 C 442.081 1685.45 444.917 1644.61 444.975 1622.76 C 467.333 1614.27 479.315 1612.55 502.422 1611.42 z"/>
<path transform="translate(0,0)" fill="rgb(206,96,41)" d="M 762.82 1395.86 C 797.031 1415.32 822.627 1426.62 862.383 1429.27 C 850.866 1454.84 848.587 1464.64 851.184 1492.41 C 836.018 1494.65 823.439 1498.91 809.499 1504.99 C 792.818 1512.62 782.371 1518.21 768.259 1530 C 758.49 1512.09 747.751 1490.36 739.704 1471.7 C 730.991 1451.5 741.83 1437.18 751.086 1420.23 C 755.266 1412.58 759.094 1404.07 762.82 1395.86 z"/>
<path transform="translate(0,0)" fill="rgb(0,0,0)" d="M 774.371 1421.58 C 776.267 1421.55 776.049 1421.66 777.942 1422.15 C 782.42 1429.45 772.281 1446.06 770.225 1454.41 C 767.889 1463.9 778.696 1480.59 773.436 1487.81 L 770.215 1488.16 C 763.115 1480.82 758.889 1471.17 758.306 1460.97 C 757.482 1446.66 765.01 1432.06 774.371 1421.58 z"/>
<path transform="translate(0,0)" fill="rgb(206,96,41)" d="M 759.859 1155.67 C 788.847 1160.18 859.595 1207.13 888.49 1223.61 C 908.748 1235.15 929.681 1245.47 951.177 1254.51 L 948.656 1264.76 C 943.474 1264.86 938.409 1265.27 933.243 1265.64 C 873.773 1270.95 807.615 1245.68 755.158 1220.4 C 750.905 1208.79 747.077 1196.08 741.786 1185.03 C 747.971 1173.09 751.398 1165.99 759.859 1155.67 z"/>
<path transform="translate(0,0)" fill="rgb(206,96,41)" d="M 894.915 1593.11 C 901.06 1596.27 910.301 1610.73 916.955 1613.83 C 940.78 1624.94 977.719 1609.85 994.157 1637.13 C 998.886 1644.98 1008.07 1673.47 996.932 1677.52 C 996.208 1677.38 993.945 1677.1 993.82 1676.37 C 990.89 1659.28 991.172 1643.54 973.089 1633.26 C 967.556 1630.11 967.306 1629.66 960.368 1631.37 C 957.806 1635.17 965.819 1640.09 968.294 1643.33 C 975.31 1652.51 982.153 1670.81 972.056 1680.04 C 965.683 1685.87 956.865 1684.37 949.011 1683.91 C 949.673 1665.36 948.865 1656.03 937.146 1640.76 C 927.879 1631.79 913.554 1625.12 900.444 1630.04 C 896.815 1631.4 891.767 1634.32 890.088 1637.93 L 891.023 1639.6 C 901.426 1643.2 919.227 1639.76 924.69 1649.42 C 951.18 1697.62 911.661 1688.06 881.174 1683.44 C 837.999 1676.9 838.688 1669.47 822.11 1631.1 C 848.768 1610.92 863.748 1603.47 894.915 1593.11 z"/>
<path transform="translate(0,0)" fill="rgb(208,132,39)" d="M 1060.07 715.237 C 1060.58 718.248 1059.95 718.318 1058.92 721.445 C 1016.3 850.127 1017.6 1007.98 1051.96 1138.34 C 1058.75 1164.09 1068.64 1194.5 1080.04 1217.98 C 1080.23 1217.32 1070.4 1244.76 1070.45 1244.63 L 1068.48 1239.75 C 1057.85 1212.78 1046.88 1183.96 1038.63 1156.13 C 1004.92 1042.06 998.561 921.648 1020.07 804.657 C 1025.5 776.249 1033.34 748.378 1041.55 720.675 C 1047.58 719.059 1054.03 717.017 1060.07 715.237 z"/>
<path transform="translate(0,0)" fill="rgb(208,132,39)" d="M 1617.4 788.154 C 1643.5 788.342 1650.93 798.855 1673.94 808.795 C 1678.53 826.572 1679.61 828.053 1675.35 846.867 C 1672.35 844.996 1669.24 843.324 1666.14 841.596 C 1662.74 852.104 1659.83 861.458 1651.36 869.178 C 1647.87 867.739 1651.75 860.191 1644.78 853.47 C 1640.93 856.129 1637.66 863.855 1633.77 868.064 C 1627.49 874.867 1620.83 878.862 1613.13 883.878 L 1599.9 868.4 C 1596.65 864.306 1594.24 860.531 1588.67 861.524 C 1583.96 866.309 1584.6 873.501 1584.19 880.364 C 1570 870.494 1567.88 862.686 1557.68 849.869 C 1555.66 847.328 1552.74 847.306 1549.95 847.508 C 1545.9 849.616 1543.96 852.943 1541.11 856.645 C 1539.62 853.944 1538.23 851.193 1536.92 848.398 C 1532.64 839.407 1524.41 821.643 1527.88 811.892 C 1534.5 809.562 1552 811.869 1560.58 809.172 C 1583.05 802.112 1593.76 793.641 1617.4 788.154 z"/>
<path transform="translate(0,0)" fill="rgb(208,132,39)" d="M 836.139 726.072 C 842.139 726.085 847.921 726.566 853.899 726.98 C 844.144 750.906 835.241 774.424 828.998 800.023 C 800.461 917.035 811.2 1043.28 853.432 1155.66 C 855.139 1160.21 862.357 1176.19 862.126 1179.89 L 842.058 1167.02 C 795.041 1055.81 780.385 922.305 809.63 804.75 C 816.615 776.672 825.527 752.952 836.139 726.072 z"/>
<path transform="translate(0,0)" fill="rgb(206,96,41)" d="M 1284.44 1364.23 C 1285.31 1364.06 1286.3 1364.26 1287.26 1364.36 C 1287.87 1365.5 1285.97 1411.75 1285.93 1417.73 C 1285.71 1439.55 1286.31 1461.37 1287.74 1483.15 C 1252.99 1490.68 1244.76 1492.61 1209.68 1494.09 C 1207.58 1475.37 1206.35 1455.84 1204.19 1436.58 L 1227.84 1435.38 C 1227.78 1443.93 1226.02 1462.93 1232.02 1468.64 C 1240.7 1471.14 1265.02 1469.31 1270.79 1461.92 C 1273.53 1450.93 1270.51 1399.72 1265.09 1389.15 C 1258.97 1384.57 1240.95 1387.73 1232.84 1388.66 C 1218.84 1390.37 1171.56 1391.51 1164.6 1394.33 C 1150.26 1400.14 1172.45 1479.51 1167.5 1494.37 L 1165.69 1494.71 C 1164.79 1494.14 1163.89 1493.58 1162.99 1493.01 C 1154.44 1463.47 1138.89 1397.88 1132.04 1371.62 C 1182.77 1380.19 1234.54 1375.33 1284.44 1364.23 z"/>
<path transform="translate(0,0)" fill="rgb(208,132,39)" d="M 241.539 1055.78 C 259.357 1078.88 244.211 1126.98 249.794 1132.74 C 256.735 1130.15 261.596 1111.89 263.807 1104.83 C 276.184 1144.82 268.229 1184.76 237.574 1213.94 C 239.196 1204.72 250.815 1172.04 246.039 1165.35 C 232.397 1171.35 228.966 1216.55 222.268 1223.39 C 220.252 1225.31 220.307 1225.6 217.708 1226.37 C 209.001 1220.1 210.361 1180.75 212.524 1170.62 C 213.23 1167.32 215.925 1149.6 215.211 1147.79 L 212.661 1147.89 C 211.164 1148.67 209.61 1149.54 208.796 1151.05 C 196.952 1172.93 198.191 1196.15 200.986 1218.55 C 190.27 1201.4 185.071 1184.04 187.889 1163.88 C 192.232 1132.81 213.652 1111.2 229.105 1085.35 C 234.72 1075.96 238.149 1066.11 241.539 1055.78 z"/>
<path transform="translate(0,0)" fill="rgb(206,96,41)" d="M 1577.78 1218.89 C 1577.77 1224.11 1572.04 1245.51 1570.7 1251.59 C 1566.07 1272.21 1561.89 1292.93 1558.13 1313.73 C 1504.21 1324.78 1460.3 1326.57 1405.75 1318.61 C 1411.44 1314.67 1418.54 1310.46 1424.49 1306.74 C 1445.29 1294.83 1453.57 1286.02 1470.8 1269.53 C 1470.84 1279.49 1472.29 1302.17 1483.88 1304.61 C 1485.29 1304.08 1487.84 1302.87 1488.67 1301.56 C 1511.7 1265.45 1547.37 1248.58 1577.78 1218.89 z"/>
<path transform="translate(0,0)" fill="rgb(206,96,41)" d="M 1254.46 1398.4 L 1255.6 1398.5 C 1258.22 1402.31 1260.05 1445.93 1260.5 1454.61 C 1252.31 1456.44 1248.63 1456.73 1240.23 1457.26 C 1239 1448.77 1240.15 1432.52 1236.99 1427 C 1228.47 1420.77 1201.3 1422.09 1193.91 1429.64 C 1191.17 1437.1 1196.23 1498.66 1202.34 1504.36 C 1220.9 1511.01 1269.11 1500.54 1288.85 1494.81 C 1289.8 1500.38 1289.92 1506.03 1290.21 1511.69 C 1250.39 1526.24 1210.22 1527.3 1168.63 1522.33 C 1167.26 1516.85 1163.49 1507.79 1169.24 1504.61 C 1173.11 1505.33 1175.2 1506.44 1178.19 1503.73 C 1182.81 1490.69 1173.4 1421.53 1170.6 1404.01 C 1203.58 1403.71 1221.93 1402.38 1254.46 1398.4 z"/>
<path transform="translate(0,0)" fill="rgb(208,132,39)" d="M 1403.12 1393.48 C 1424.6 1398.69 1456.77 1398.21 1478.79 1397.88 C 1478.74 1411.25 1477.51 1440.28 1475.95 1452.98 L 1457.91 1452.29 C 1458.16 1429.06 1465.45 1414.76 1433.74 1416.83 C 1421.22 1417.65 1417.57 1416.06 1416.79 1432.93 C 1416.01 1449.76 1416.72 1467.28 1416.83 1484.11 C 1416.87 1490.77 1431.74 1494.17 1436.59 1494.1 C 1452.24 1494.75 1500.67 1498.56 1511.75 1489.53 C 1516.53 1479.94 1515.1 1460.3 1515.02 1448.81 C 1516.01 1431.93 1518.3 1413.33 1520.03 1396.39 C 1526.86 1395.86 1532.98 1394.74 1539.71 1393.61 C 1531.41 1424.94 1517.38 1475.53 1513.46 1506.52 C 1471.15 1513.48 1445.13 1512.18 1403.54 1504.47 C 1403.51 1498.15 1403.24 1492.04 1402.89 1485.73 C 1401.2 1455.39 1400.64 1423.84 1403.12 1393.48 z"/>
<path transform="translate(0,0)" fill="rgb(208,132,39)" d="M 509.626 1240.4 C 525.156 1253.07 547.423 1265.66 564.819 1276.44 C 556.448 1300.72 541.988 1323.72 535.207 1348.18 C 533.254 1355.23 560.117 1367.71 565.842 1367.52 C 574.455 1363.57 597.197 1306.25 604.421 1293.62 L 604.985 1292.65 C 622.806 1299.66 638.392 1303.78 656.874 1307.64 C 653.487 1314.15 651.894 1316.34 647.46 1322.22 C 637.447 1319.08 629.229 1316.72 618.969 1314.19 C 610.537 1315.21 586.813 1365.92 587.575 1372.68 C 591.007 1377.69 595.899 1377.9 601.768 1379.16 C 598.061 1383.31 593.959 1388.93 590.485 1393.44 C 550.553 1385.34 525.368 1370.66 495.583 1342.04 C 497.033 1337.57 498.352 1332.72 499.679 1328.18 C 515.731 1341.21 520.08 1346.95 527.734 1323.47 C 531.682 1311.36 540.327 1294.38 539.177 1281.44 C 538.818 1277.4 513.231 1261.2 509.089 1258.38 C 509.106 1252.58 509.43 1246.25 509.626 1240.4 z"/>
<path transform="translate(0,0)" fill="rgb(206,96,41)" d="M 1545.23 1363.42 L 1546.58 1364 C 1546.39 1368.62 1543.43 1376.55 1541.92 1381.26 C 1533.75 1382.25 1516.48 1383.34 1510.77 1388.23 C 1504.73 1400.97 1502.64 1463.11 1502.14 1481.05 C 1475.78 1485.45 1454.22 1482.57 1428.32 1480.76 C 1428.68 1463.43 1428.63 1446.09 1428.16 1428.77 L 1446.98 1429.25 C 1447.43 1461.04 1439.67 1464.8 1475.27 1465.43 C 1479.82 1465.07 1485.75 1464.37 1487.09 1458.63 C 1490.04 1446 1489.55 1432.57 1490.07 1419.6 C 1490.43 1410.53 1491.27 1397.67 1487.31 1389.34 C 1480.57 1383.51 1407.38 1383.57 1394.84 1383.97 C 1393.37 1380.36 1392.99 1368.19 1392.7 1363.57 C 1448.78 1373.44 1489.91 1371.88 1545.23 1363.42 z"/>
<path transform="translate(0,0)" fill="rgb(208,132,39)" d="M 776.97 1302.13 C 800.859 1313.19 816.823 1318.22 841.702 1326.05 C 838.173 1347.79 829.809 1366.62 825.43 1387.63 C 823.131 1398.66 856.136 1400.31 863.78 1400.75 C 870.256 1384.64 880.491 1350.88 885.607 1333.58 C 899.458 1336.16 911.787 1335.93 925.791 1336.05 L 917.372 1349.92 C 901.989 1349.45 897.367 1346.97 892.906 1362.91 C 884.312 1389.68 888.874 1390.75 871.031 1415.35 C 828.573 1414.18 804.647 1402.69 767.035 1384 C 768.281 1379.5 769.409 1374.34 770.527 1369.76 C 772.798 1371.24 775.096 1372.67 777.419 1374.06 C 785.289 1378.75 794.528 1384.74 803.743 1382.43 C 811.429 1376.18 820.717 1344.18 816.415 1334.47 C 809.56 1328.35 787.274 1322.82 777.32 1319.94 L 776.97 1302.13 z"/>
<path transform="translate(0,0)" fill="rgb(206,96,41)" d="M 510.859 1208.98 C 553.298 1247.99 616.941 1273.6 674.252 1278.2 C 670.534 1284.72 666.713 1291.18 662.79 1297.58 C 653.723 1295.69 605.915 1282.25 601.512 1282.42 C 597.573 1284.27 596.943 1285.62 594.1 1289.14 C 581.976 1310.57 574.449 1333.71 563.319 1354.96 C 557.307 1352.13 552.447 1349.39 546.676 1346.12 C 555.362 1327.38 564.017 1308.87 571.533 1289.6 C 574.175 1282.83 578.83 1271.59 570.483 1266.45 C 550.375 1254.07 529.227 1243.02 510.355 1228.65 C 510.205 1221.55 509.928 1216.04 510.859 1208.98 z"/>
<path transform="translate(0,0)" fill="rgb(208,132,39)" d="M 1764.48 410.292 C 1814.79 407.12 1819.46 463.248 1799.44 495.753 C 1795.07 502.845 1790.57 507.098 1784.65 512.741 C 1781.6 508.701 1767.55 493.215 1767.17 492.044 C 1773.24 487.203 1775.82 486.018 1780.45 479.485 C 1776.79 473.831 1774.34 471.316 1768.99 467.311 L 1751.08 455.38 C 1756.04 451.207 1760.99 446.6 1766.71 443.501 C 1773.27 439.948 1784.22 446.905 1787.39 438.798 C 1785.42 431.844 1777.23 430.119 1770.8 430.15 C 1756.84 430.217 1748.43 438.867 1739.33 448.132 C 1729.59 442.867 1725.02 441.796 1714.44 439.3 C 1729.45 423.119 1742.44 413.51 1764.48 410.292 z"/>
<path transform="translate(0,0)" fill="rgb(208,132,39)" d="M 510.27 1169.47 C 516.766 1173.4 528.898 1185.01 537.002 1190.45 C 573.674 1215.08 612.878 1235.03 656.564 1243.46 C 666.503 1245.38 679.028 1245.72 689.237 1246.17 C 687.387 1251.03 685.163 1255.57 682.958 1260.27 C 679.371 1267.76 666.807 1264.42 659.45 1263.43 C 603.935 1256.01 551.805 1229.04 510.098 1192.2 L 510.27 1169.47 z"/>
<path transform="translate(0,0)" fill="rgb(208,132,39)" d="M 476.551 1493.41 C 496.59 1492.07 519.998 1495.14 539.55 1499.23 C 539.154 1504.54 538.673 1509.84 538.11 1515.14 C 528.642 1511.52 503.736 1506.49 494.101 1509.91 C 485.621 1517.19 487.142 1570.7 492.172 1581.04 C 495.547 1584.53 526.112 1585.19 535.415 1586.65 C 535.804 1591.36 535.947 1596.54 536.18 1601.29 C 532.707 1600.31 527.667 1599.71 523.985 1599.15 C 491.782 1597 475.577 1597.68 445.046 1609.47 L 444.957 1593.44 C 452.321 1591.22 468.756 1587.86 474.346 1584.65 C 477.57 1578.39 476.007 1555.08 475.58 1547.04 C 475.174 1539.42 475.613 1514.5 470.345 1510.6 C 463.441 1509.3 455.186 1511.36 448.102 1512.59 L 448.172 1497.34 C 457.644 1495.45 466.954 1494.36 476.551 1493.41 z"/>
<path transform="translate(0,0)" fill="rgb(206,96,41)" d="M 772.276 1275.22 C 831.626 1302.46 869.62 1311.92 936.237 1310.09 L 931.05 1324.64 C 913.364 1323.44 895.638 1322.92 877.912 1323.06 C 875.221 1328.44 873.921 1333.15 872.111 1338.84 C 867.906 1354.4 861.759 1372.69 856.966 1388.34 C 849.061 1387.15 844.554 1386.08 836.806 1383.97 C 842.525 1368.38 854.602 1337.07 853.183 1321.67 C 850.242 1314.71 825.813 1308.62 817.675 1306 C 803.372 1301.5 789.301 1296.3 775.517 1290.4 L 772.276 1275.22 z"/>
<path transform="translate(0,0)" fill="rgb(208,132,39)" d="M 1286.66 1330.15 L 1288.93 1330.08 C 1291.58 1333.85 1289.51 1345.31 1288.96 1350.39 C 1282.51 1351.5 1275.92 1352.85 1269.53 1354.28 C 1221.94 1364.95 1177.15 1363.42 1128.92 1359.6 C 1127.02 1352.16 1125.36 1344.24 1123.66 1336.72 C 1170.35 1347.75 1240.32 1341.31 1286.66 1330.15 z"/>
<path transform="translate(0,0)" fill="rgb(208,132,39)" d="M 761.532 1237.9 C 773.157 1243.29 782.491 1248.32 794.607 1253.3 C 842.364 1273.4 894.161 1282.06 945.859 1278.57 C 944.642 1283.4 943.019 1288.54 941.61 1293.35 C 941.086 1294.63 940.63 1295.11 939.845 1296.26 C 934.167 1297.92 926.861 1297.31 920.84 1297.44 C 866.876 1298.62 816.463 1282.6 768.792 1259.06 L 761.532 1237.9 z"/>
<path transform="translate(0,0)" fill="rgb(208,132,39)" d="M 1551.5 1329.23 L 1552.59 1329.22 L 1553.79 1330.47 C 1553.65 1335.72 1551.57 1343.17 1550.33 1348.48 C 1491.5 1360.76 1451.9 1357.86 1394.08 1349.98 L 1392.47 1349.69 C 1389.52 1345.51 1391.51 1335 1392.07 1329.45 C 1435.19 1341.19 1508 1338.07 1551.5 1329.23 z"/>
<path transform="translate(0,0)" fill="rgb(208,132,39)" d="M 848.575 1507.17 L 851.941 1507.16 C 854.8 1509.48 855.586 1512.78 856.931 1516.31 C 850.689 1517.91 830.995 1522.32 828.758 1526.95 C 825.395 1533.91 845.609 1574.79 850.412 1578.68 C 859.005 1579.92 872.261 1574 880.978 1570.97 L 888.656 1582.2 C 869.171 1586.03 850.781 1595.73 834.365 1606.78 C 828.191 1610.94 823.317 1616.08 816.625 1619.68 C 813.672 1617.74 813.694 1616.55 811.893 1613.08 L 809.865 1609.39 C 810.412 1602.63 828.862 1597.4 835.943 1587.16 C 838.214 1579.71 817.486 1539.8 810.134 1535.59 C 801.627 1535.18 786.668 1547.4 779.299 1552.74 L 772.499 1540.44 C 801.641 1521.92 815.648 1515.11 848.575 1507.17 z"/>
<path transform="translate(0,0)" fill="rgb(208,132,39)" d="M 1291.7 1525.18 C 1293.11 1530.99 1293.22 1539.04 1293.54 1545.2 C 1245.05 1558.19 1224.11 1559.91 1173.24 1555.45 C 1172.22 1551.42 1171.11 1541.08 1170.5 1536.51 C 1217.1 1542.1 1247.09 1539.5 1291.7 1525.18 z"/>
<path transform="translate(0,0)" fill="rgb(206,96,41)" d="M 493.566 946.755 C 493.748 950.459 492.086 961.318 491.486 965.564 C 484.966 1011.74 485.83 1057.1 485.551 1103.65 L 469.473 1094.93 L 458.03 1088.07 C 465.753 1046.47 477.094 985.855 493.566 946.755 z"/>
<path transform="translate(0,0)" fill="rgb(206,96,41)" d="M 351.297 1325.07 C 353.34 1325.87 362.398 1347.01 364.488 1351.26 C 341.885 1363.62 321.924 1367.58 296.537 1364.79 C 291.259 1363.93 285.445 1362.19 280.224 1360.8 C 282.63 1350.46 285.274 1343.21 289.209 1333.41 C 312.668 1339.78 330.234 1335.38 351.297 1325.07 z"/>
<path transform="translate(0,0)" fill="rgb(206,96,41)" d="M 419.437 1233.44 C 428.251 1239.57 433.725 1242.72 443.301 1247.62 C 432.964 1272.79 421.204 1292.92 405.595 1315.06 C 402.783 1318.06 404.378 1317.41 401.105 1318.08 C 394.164 1314.03 388.704 1303.04 384.363 1295.81 C 401.247 1274.08 408.517 1258.01 419.437 1233.44 z"/>
<path transform="translate(0,0)" fill="rgb(208,132,39)" d="M 1403.65 1518.36 C 1441.23 1525.08 1473.29 1528.15 1511.25 1520.73 C 1510.04 1527.55 1509.38 1533.56 1508.63 1540.46 C 1505.54 1542.43 1495.23 1542.88 1491.34 1543.14 C 1460.98 1545.12 1431.93 1543.37 1402.09 1537.32 C 1402.85 1530.99 1402.75 1524.95 1403.65 1518.36 z"/>
<path transform="translate(0,0)" fill="rgb(206,96,41)" d="M 448.601 1132.52 C 458.589 1138.96 465.641 1142.02 476.665 1146.27 C 472.246 1164.83 465.75 1188.9 459.18 1206.55 L 458.789 1207.12 C 454.343 1207.15 438.453 1195.97 433.824 1192.83 C 438.91 1172.76 443.836 1152.66 448.601 1132.52 z"/>
<path transform="translate(0,0)" fill="rgb(206,96,41)" d="M 226.542 1236.24 L 227.042 1236.22 C 228.722 1238.54 229.546 1257 230.668 1262.13 C 235.27 1283.15 241.204 1295.09 254.528 1311.45 C 248.493 1318.16 244.405 1324.02 239.501 1331.53 C 216.113 1301.67 213.056 1276.59 209.875 1240.15 C 217.8 1240.1 219.26 1239.64 226.542 1236.24 z"/>
<path transform="translate(0,0)" fill="rgb(208,132,39)" d="M 501.129 1520.81 C 513.633 1521.51 523.963 1523.42 536.117 1526.25 C 535.328 1542.7 534.014 1558.14 534.167 1574.66 C 523.17 1573.23 512.109 1572.35 501.025 1572.02 C 500.278 1554.42 500.562 1538.38 501.129 1520.81 z"/>
<path transform="translate(0,0)" fill="rgb(206,96,41)" d="M 965.224 1204.5 L 984.184 1203.51 C 989.929 1216.32 995.948 1232.93 1001.19 1246.24 C 996.146 1244.8 991.247 1243.14 986.271 1241.49 C 981.723 1231.8 979.961 1221.94 967.758 1223.45 L 945.079 1225.67 C 932.697 1219.4 920.413 1212.94 908.232 1206.29 C 928.576 1206.94 945.013 1205.77 965.224 1204.5 z"/>
<path transform="translate(0,0)" fill="rgb(206,96,41)" d="M 1594.63 688.281 C 1612.18 687.951 1627.14 695.932 1644.94 691.913 C 1653.18 690.053 1661.95 686.122 1669.6 690.537 C 1669.32 694.834 1658.18 694.919 1654.71 697.487 C 1650.51 700.593 1648.03 704.016 1645.31 708.295 L 1644.65 709.356 C 1641.43 718.613 1640.93 721.101 1634.73 728.35 C 1631.47 729.049 1628.12 730.587 1624.99 731.872 C 1613.78 721.858 1619.94 721.594 1615.01 708.25 C 1610.46 695.937 1598.86 696.717 1588.86 692.068 C 1590.23 689.485 1591.23 689.809 1594.63 688.281 z"/>
<path transform="translate(0,0)" fill="rgb(208,132,39)" d="M 806.324 1548.11 C 810.868 1555.06 819.193 1574.14 823.444 1582.85 C 816.607 1587.33 809.799 1592.48 803.18 1597.32 C 796.916 1585.29 790.551 1573.32 784.086 1561.41 C 791.737 1557.34 798.976 1552.69 806.324 1548.11 z"/>
<path transform="translate(0,0)" fill="rgb(208,132,39)" d="M 451.901 1523.35 L 463.222 1522.86 C 462.426 1540.31 463.223 1558.18 464.223 1575.59 C 461.675 1578.05 461.401 1577.38 457.206 1578.21 L 446.007 1581.19 C 445.927 1572.54 446.198 1530.31 448.587 1524.58 L 451.901 1523.35 z"/>
<path transform="translate(0,0)" fill="rgb(206,96,41)" d="M 777.269 1330.51 C 786.815 1335.03 796.9 1337.33 806.842 1341.9 C 804.561 1351.73 802.005 1359.3 798.643 1368.79 L 798.002 1369.55 C 793.591 1370.45 778.293 1362.07 773.242 1359.6 C 775.031 1349.97 776.375 1340.26 777.269 1330.51 z"/>
<path transform="translate(0,0)" fill="rgb(206,96,41)" d="M 508.53 1272.27 C 514.277 1275.63 522.511 1281.68 528.561 1285.61 C 524.468 1296.44 520.507 1309.88 516.938 1321.09 C 516.156 1323.5 516.336 1323.49 514.502 1325.17 C 510.651 1324.34 506.016 1319.17 502.509 1316.2 C 504.531 1301.09 506.761 1287.75 508.53 1272.27 z"/>
<path transform="translate(0,0)" fill="rgb(206,96,41)" d="M 1582.06 1655.8 C 1585.67 1656.77 1589.83 1657.83 1593.06 1659.74 C 1610.43 1670.01 1622.86 1699.59 1611.25 1717.65 C 1607.74 1720.04 1607.44 1720.35 1603.45 1721.55 C 1602.2 1719.92 1602.64 1715.44 1602.8 1713.26 C 1604.57 1688.59 1597.14 1674.61 1582.06 1655.8 z"/>
<path transform="translate(0,0)" fill="rgb(208,132,39)" d="M 858.568 1528.1 L 859.386 1528.17 C 861.603 1529.42 872.954 1554.82 875.082 1559.24 C 869.616 1560.78 862.745 1563.37 857.244 1565.29 L 856.184 1565.59 C 852.14 1562.84 843.095 1539.04 840.67 1533.24 C 846.563 1531.32 852.591 1529.74 858.568 1528.1 z"/>
<path transform="translate(0,0)" fill="rgb(208,132,39)" d="M 1807.84 519.816 C 1810.17 522.113 1817.65 534.448 1820.74 538.373 C 1824.77 543.485 1830.58 548.582 1833.64 553.414 C 1831.1 555.218 1824.17 554.053 1820.77 553.694 L 1804.91 551.615 C 1799.79 545.774 1795.4 539.331 1791.83 532.43 C 1799.15 527.785 1801.83 525.866 1807.84 519.816 z"/>
<path transform="translate(0,0)" fill="rgb(206,96,41)" d="M 619.987 1327.24 C 626.208 1328.97 634.241 1330.56 640.664 1332.01 C 633.348 1342.04 624.939 1352.47 617.252 1362.3 C 615.112 1365.11 614.586 1366.11 611.59 1368.11 C 607.968 1368.91 605.349 1367.24 601.774 1365.78 C 606.922 1353.17 614.287 1340.01 619.987 1327.24 z"/>
<path transform="translate(0,0)" fill="rgb(208,132,39)" d="M 455.601 1100.93 C 467.147 1108.53 473.819 1111.08 486.572 1116.34 L 480.473 1133.6 C 475.988 1134.56 456.516 1122.56 451.599 1119.69 C 452.816 1112.85 453.853 1107.65 455.601 1100.93 z"/>
<path transform="translate(0,0)" fill="rgb(208,132,39)" d="M 263.629 1319.46 C 268.346 1322.34 274.194 1326.62 278.856 1329.84 C 275.045 1336.05 268.591 1354.48 267.205 1355.3 C 259.638 1350.65 254.33 1346.54 248.057 1340.38 C 252.162 1334.14 259.015 1325.59 263.629 1319.46 z"/>
<path transform="translate(0,0)" fill="rgb(208,132,39)" d="M 375.612 1305.72 C 377.104 1306.86 388.439 1324.23 393.094 1329.56 C 388.122 1333.5 383.111 1337.39 378.061 1341.22 C 376.382 1342.4 377.36 1342.01 375.059 1342.2 C 370.334 1337.66 365.377 1324.17 362.725 1317.61 C 367.331 1313.63 371.232 1309.95 375.612 1305.72 z"/>
<path transform="translate(0,0)" fill="rgb(208,132,39)" d="M 429.922 1204.4 C 438.89 1210.83 445.011 1214.98 455.321 1218.92 L 448.88 1236.49 C 443.419 1236.66 428.82 1225.81 424.253 1221.85 C 425.84 1216.23 428.058 1209.99 429.922 1204.4 z"/>
<path transform="translate(0,0)" fill="rgb(110,81,65)" d="M 905.259 1361.19 C 908.187 1362.38 907.247 1361.35 908.563 1363.92 C 907.255 1367.01 905.863 1368.58 903.873 1371.22 L 903.359 1371.76 L 902.355 1371.58 C 902.789 1366.92 903.518 1365.66 905.259 1361.19 z"/>
</svg>